<?xml version="1.0" standalone="no"?>
<!DOCTYPE svg PUBLIC "-//W3C//DTD SVG 1.1//EN" "http://www.w3.org/Graphics/SVG/1.1/DTD/svg11.dtd" >
<svg>
<metadata>
Created by FontForge 20090914 at Sun Sep  5 12:34:54 2021
 By www-data
Copyright (c) Nick's Fonts &#38; A.Gophmann (cyr.code page), 2009. All rights reserved.
</metadata>
<defs>
<font id="Larisascript" horiz-adv-x="918" >
  <font-face 
    font-family="Larisa script"
    font-weight="400"
    font-stretch="normal"
    units-per-em="1000"
    panose-1="2 7 5 5 6 3 10 9 1 3"
    ascent="611"
    descent="-389"
    x-height="357.001"
    cap-height="605.494"
    bbox="-220.005 -482.011 1299 766.002"
    underline-thickness="20"
    underline-position="-113"
    unicode-range="U+0020-U+FB02"
  />
<missing-glyph horiz-adv-x="0" 
 />
    <glyph glyph-name=".notdef" horiz-adv-x="0" 
 />
    <glyph glyph-name="space" unicode=" " horiz-adv-x="300" 
 />
    <glyph glyph-name="exclam" unicode="!" horiz-adv-x="210" 
d="M39 67c10 0 19.167 -3.33301 27.5 -10s12.5 -15.334 12.5 -26.001s-4.16699 -19.334 -12.5 -26.001s-17.5 -10 -27.5 -10s-19 3.33301 -27 10s-12 15.334 -12 26.001s4 19.334 12 26.001s17 10 27 10zM210 520l-144 -433h-32l121 435z" />
    <glyph glyph-name="quotedbl" unicode="&#x22;" horiz-adv-x="250" 
d="M197 520l-133 -180h-28l102 180h59zM286 520l-134 -180h-27l101 180h60z" />
    <glyph glyph-name="numbersign" unicode="#" horiz-adv-x="804" 
d="M680 399c-13.333 0 -25.001 -3.33496 -35.001 -10.002s-18.167 -15.167 -24.5 -25.5s-11 -21.666 -14 -33.999s-4.5 -24.166 -4.5 -35.499c0 -20.667 5.66699 -37.834 17 -51.501s27.666 -20.5 48.999 -20.5c12 0 22.833 3.16699 32.5 9.5s17.834 14.5 24.501 24.5
s11.834 20.833 15.501 32.5s5.5 22.834 5.5 33.501c0 20 -5.5 37.833 -16.5 53.5s-27.5 23.5 -49.5 23.5zM350.999 463.998c-6.66699 -14.667 -14.8301 -33.8301 -24.4971 -57.4971s-20.5 -48.834 -32.5 -75.501s-25.167 -53.667 -39.5 -81s-29.5 -52 -45.5 -74
s-32.667 -39.833 -50 -53.5s-35.333 -20.5 -54 -20.5c-17.333 0 -32.833 4.66699 -46.5 14s-25.167 20.666 -34.5 33.999l12 10c8 -10.667 17.5 -20.167 28.5 -28.5s23.5 -12.5 37.5 -12.5c16 0 32.333 7.16699 49 21.5s33 33 49 56s31.333 48.5 46 76.5
s28.167 55.667 40.5 83l33.5 76c10 23.333 18.333 41.666 25 54.999c-7.33301 -2.66699 -15.333 -4 -24 -4c-11.333 0 -22.833 0.833008 -34.5 2.5s-23.5 2.5 -35.5 2.5c-11.333 0 -22.5 -1.66699 -33.5 -5s-20.833 -8.33301 -29.5 -15s-15.667 -14.834 -21 -24.501
s-8 -20.5 -8 -32.5c0 -15.333 4.83301 -29.333 14.5 -42s22.5 -19 38.5 -19c11.333 0 21.666 3 30.999 9l8 -13c-11.333 -8 -24.666 -12 -39.999 -12c-20 0 -37 7 -51 21s-21 31 -21 51c0 16 3.5 30.167 10.5 42.5s16.333 23 28 32s24.667 15.833 39 20.5s28.833 7 43.5 7
c12.667 0 25.167 -0.666992 37.5 -2s24.833 -2 37.5 -2c6 0 11.667 1 17 3s10.666 4.66699 15.999 8l107 -307l58 174c8.66699 26 18.667 50.5 30 73.5s27.666 43.833 48.999 62.5l16 -15c-23.333 -17.333 -40.333 -36.166 -51 -56.499s-20.334 -43.5 -29.001 -69.5
l-75 -222h-14l-108 309v0zM755.003 187.002l-10 -32h-214l10 32h214zM668.003 205.002c-14 0 -27.165 2.66504 -39.498 7.99805s-23 12.666 -32 21.999s-16 20 -21 32s-7.5 25 -7.5 39c0 15.333 3 29.666 9 42.999s14 24.833 24 34.5s21.667 17.334 35 23.001
s27.666 8.5 42.999 8.5c14 0 27.167 -2.66699 39.5 -8s23 -12.666 32 -21.999s16.167 -20.166 21.5 -32.499s8 -25.5 8 -39.5c0 -15.333 -3 -29.666 -9 -42.999s-14.167 -24.833 -24.5 -34.5s-22.333 -17.167 -36 -22.5s-27.834 -8 -42.501 -8z" />
    <glyph glyph-name="dollar" unicode="$" horiz-adv-x="413" 
d="M160 46c8.66699 -2 17 -3 25 -3c10.667 0 22 1.66699 34 5l56 182l-46 42l-69 -226v0zM237 54c20 8.66699 36.667 21.668 50 39.001s20 37.666 20 60.999c0 22.667 -7 43 -21 61l-49 -161v0zM264 441.001c-14 -4 -26.333 -11.001 -37 -21.001s-16 -23.667 -16 -41
s6.66699 -33.666 20 -48.999l33 111v0zM337 434c-6.66699 4 -13.668 6.83301 -21.001 8.5s-14.666 2.5 -21.999 2.5h-13l-38 -128l46 -42l48 159v0zM375.999 379c0 9.33301 -2.33594 18 -7.00293 26s-10.667 15 -18 21l-50 -164c12 -13.333 21.667 -27.833 29 -43.5
s11 -34.167 11 -55.5c0 -16.667 -3 -32 -9 -46s-14 -26.5 -24 -37.5s-21.667 -20.333 -35 -28s-27.333 -13.5 -42 -17.5l-24 -79h-17l24 75c-5.33301 -0.666992 -10.166 -1.16699 -14.499 -1.5s-9.16602 -0.5 -14.499 -0.5s-10.333 0.166992 -15 0.5
s-9.33398 0.833008 -14.001 1.5l-23 -75h-17l24 79c-19.333 5.33301 -37.166 13.666 -53.499 24.999s-29.833 25.666 -40.5 42.999l-8 -21l-14 6l40 102l14 -5l-2 -5c-4 -11.333 -6 -22.666 -6 -33.999c0 -23.333 7.33301 -43.166 22 -59.499s32.334 -28.166 53.001 -35.499
l71 234c-11.333 10.667 -20.833 22.167 -28.5 34.5s-11.5 26.166 -11.5 41.499c0 27.333 9.5 49.5 28.5 66.5s40.833 27.833 65.5 32.5l11 38h16l-10 -35h7c17.333 0 33.666 -3.33301 48.999 -10l13 45h17l-16 -51c14.667 -8.66699 26.334 -18.667 35.001 -30l7 17l14 -6
l-24 -63c-3.33301 -8 -8 -14.667 -14 -20l-10 12c7.33301 7.33301 11 15 11 23z" />
    <glyph glyph-name="percent" unicode="%" horiz-adv-x="462" 
d="M54 294c0 -8 0.833984 -16.333 2.50098 -25s4.5 -16.667 8.5 -24s9.33301 -13.333 16 -18s14.667 -7 24 -7c14.667 0 27.667 4.5 39 13.5s20.666 20 27.999 33s12.833 27 16.5 42s5.5 28.833 5.5 41.5c0 8 -0.833008 16.333 -2.5 25s-4.5 16.667 -8.5 24
s-9.33301 13.333 -16 18s-14.667 7 -24 7c-15.333 0 -28.5 -4.33301 -39.5 -13s-20.167 -19.5 -27.5 -32.5s-12.833 -27.167 -16.5 -42.5s-5.5 -29.333 -5.5 -42zM268.001 102c0 -8 0.833984 -16.333 2.50098 -25s4.5 -16.667 8.5 -24s9.33301 -13.333 16 -18
s14.667 -7 24 -7c14.667 0 27.667 4.5 39 13.5s20.666 20 27.999 33s12.833 27 16.5 42s5.5 28.833 5.5 41.5c0 8 -0.833008 16.333 -2.5 25s-4.5 16.667 -8.5 24s-9.33301 13.333 -16 18s-14.667 7 -24 7c-15.333 0 -28.5 -4.33301 -39.5 -13s-20.167 -19.5 -27.5 -32.5
s-12.833 -27.167 -16.5 -42.5s-5.5 -29.333 -5.5 -42zM304.002 -5c-12 0 -22.168 2.83398 -30.501 8.50098s-15.166 12.667 -20.499 21s-9.16602 17.833 -11.499 28.5s-3.5 21 -3.5 31c0 28 5.83301 54 17.5 78s26.5 46 44.5 66c10.667 11.333 22.334 20.333 35.001 27
s25 10 37 10s22.167 -2.83301 30.5 -8.5s15.166 -12.667 20.499 -21s9.16602 -17.833 11.499 -28.5s3.5 -21 3.5 -31c0 -28 -5.83301 -53.833 -17.5 -77.5s-26.5 -45.834 -44.5 -66.501c-10.667 -11.333 -22.167 -20.333 -34.5 -27s-24.833 -10 -37.5 -10zM158.001 457.001
c10.667 0 19.999 -1.66602 27.999 -4.99902s19.667 -5 35 -5c29.333 0 57.5 6 84.5 18s49.167 30 66.5 54h24l-262 -519h-53l266 465c-17.333 -14 -36.333 -24.667 -57 -32s-42 -11 -64 -11h-14c8 -14 12 -32 12 -54c0 -28 -5.83301 -53.833 -17.5 -77.5
s-26.5 -45.834 -44.5 -66.501c-10.667 -11.333 -22.334 -20.333 -35.001 -27s-25 -10 -37 -10s-22.167 2.83301 -30.5 8.5s-15.166 12.667 -20.499 21s-9.16602 17.833 -11.499 28.5s-3.5 21 -3.5 31c0 28 5.83301 54 17.5 78s26.5 46 44.5 66
c10.667 11.333 22.167 20.333 34.5 27s24.833 10 37.5 10z" />
    <glyph glyph-name="ampersand" unicode="&#x26;" horiz-adv-x="781" 
d="M274 345c-6.66699 0 -13 -0.166016 -19 -0.499023s-12 -1.16602 -18 -2.49902c8.66699 -9.33301 19.167 -17.333 31.5 -24s26.5 -10 42.5 -10c5.33301 0 10.333 0.833008 15 2.5s7 4.16699 7 7.5c0 4 -2.16699 7.66699 -6.5 11s-9.5 6.16602 -15.5 8.49902
s-12.5 4.16602 -19.5 5.49902s-12.833 2 -17.5 2zM310 293.001c-18 0 -34.8301 3.66113 -50.4971 10.9941s-29.5 16.666 -41.5 27.999c-2.66699 2.66699 -4.33398 4.66699 -5.00098 6c-44.667 -12 -79.334 -35.333 -104.001 -70s-37 -75 -37 -121
c0 -32 6.16699 -62.667 18.5 -92s29 -55.166 50 -77.499s45.833 -40 74.5 -53s59.334 -19.5 92.001 -19.5c26 0 51.833 3.83301 77.5 11.5s48.667 19.167 69 34.5s36.833 34.166 49.5 56.499s19 48.166 19 77.499c0 18.667 -3.5 34.834 -10.5 48.501
s-16.167 24.834 -27.5 33.501s-24.5 15 -39.5 19s-30.5 6 -46.5 6c-18 0 -35.833 -2.5 -53.5 -7.5s-33.667 -12 -48 -21s-25.833 -20.167 -34.5 -33.5s-13 -28 -13 -44c0 -14.667 3.83301 -28.167 11.5 -40.5s18.834 -21.166 33.501 -26.499l-5 -15
c-17.333 6 -30.833 16.833 -40.5 32.5s-14.5 32.167 -14.5 49.5c0 28 6.83301 50.833 20.5 68.5s32 31.834 55 42.501s49.167 19 78.5 25s59.666 11.333 90.999 16c24.667 4 52 8.66699 82 14s58 13.833 84 25.5s47.833 27.334 65.5 47.001s26.5 45.834 26.5 78.501
c0 13.333 -2.5 26 -7.5 38s-11.667 22.5 -20 31.5s-18.166 16 -29.499 21s-23.333 7.5 -36 7.5c-15.333 0 -29.333 -3.5 -42 -10.5s-23 -16.5 -31 -28.5l-12 3c5.33301 16 16 28.5 32 37.5s32 13.5 48 13.5c33.333 0 61.333 -10.333 84 -31s34 -47.667 34 -81
c0 -41.333 -10 -74 -30 -98s-44.833 -42.833 -74.5 -56.5s-61.834 -23.334 -96.501 -29.001l-96 -15.5c30 -8.66699 53.5 -24.167 70.5 -46.5s25.5 -48.5 25.5 -78.5c0 -26.667 -6.66699 -52.334 -20 -77.001c-17.333 -32 -46 -59.5 -86 -82.5s-91.667 -34.5 -155 -34.5
c-32.667 0 -65.167 5.5 -97.5 16.5s-61.333 26.833 -87 47.5s-46.5 45.334 -62.5 74.001s-24 61 -24 97c0 26.667 4.5 52.334 13.5 77.001s21.5 47 37.5 67s34.833 37.5 56.5 52.5s45.167 26.167 70.5 33.5c-16.667 22.667 -25 47.334 -25 74.001
c0 20.667 4.33301 38.834 13 54.501s20 28.834 34 39.501s30 18.667 48 24s36.333 8 55 8c12 0 23.667 -1.83301 35 -5.5s21.5 -9 30.5 -16s16.167 -15.667 21.5 -26s8 -21.833 8 -34.5c0 -18.667 -6.33301 -34.167 -19 -46.5s-28.334 -18.5 -47.001 -18.5
c-16 0 -30.667 6 -44 18l11 11c10 -8.66699 21 -13 33 -13c13.333 0 24.5 5.33301 33.5 16s13.5 22.667 13.5 36c0 10.667 -2.5 20 -7.5 28s-11.5 14.667 -19.5 20s-16.833 9.16602 -26.5 11.499s-19.167 3.5 -28.5 3.5c-32.667 0 -59.834 -10.667 -81.501 -32
s-32.5 -48.333 -32.5 -81c0 -24.667 6.33301 -46.334 19 -65.001c8 1.33301 16 2.33301 24 3s16 1 24 1c7.33301 0 15.333 -0.833008 24 -2.5s16.667 -4.16699 24 -7.5s13.5 -7.66602 18.5 -12.999s7.5 -12 7.5 -20c0 -9.33301 -4.16699 -15.833 -12.5 -19.5
s-16.833 -5.5 -25.5 -5.5z" />
    <glyph glyph-name="quotesingle" unicode="'" horiz-adv-x="161" 
d="M197 520l-133 -180h-28l102 180h59z" />
    <glyph glyph-name="parenleft" unicode="(" horiz-adv-x="282" 
d="M38 -44c0 -26.667 2.16504 -49.666 6.49805 -68.999s11.5 -33.333 21.5 -42l-5 -16c-13.333 6.66699 -24 16.334 -32 29.001s-14.167 26.5 -18.5 41.5s-7.16602 30.167 -8.49902 45.5s-2 29.666 -2 42.999c0 33.333 3 68.666 9 105.999s14.667 75 26 113
s24.333 74.667 39 110s30.667 67.333 48 96c6.66699 11.333 14.334 23.166 23.001 35.499s18.5 23.833 29.5 34.5s23.333 19.5 37 26.5s29.167 10.5 46.5 10.5l-4 -16c-14.667 -2.66699 -29.167 -11 -43.5 -25s-28.5 -32.667 -42.5 -56
c-18 -29.333 -35 -63.666 -51 -102.999s-29.667 -80.333 -41 -123c-12 -43.333 -21.333 -85.833 -28 -127.5s-10 -79.5 -10 -113.5z" />
    <glyph glyph-name="parenright" unicode=")" horiz-adv-x="281" 
d="M243 392c0 26 -2.16504 48.501 -6.49805 67.501s-11.166 33.167 -20.499 42.5l5 16c12.667 -7.33301 23 -17.166 31 -29.499s14.167 -26 18.5 -41s7.16602 -30.167 8.49902 -45.5s2 -29.333 2 -42c0 -33.333 -3 -68.833 -9 -106.5s-14.667 -75.5 -26 -113.5
c-10.667 -38 -23.334 -74.667 -38.001 -110s-30.667 -67 -48 -95l-24 -35.5c-8.66699 -12.333 -18.5 -23.833 -29.5 -34.5s-23.333 -19.334 -37 -26.001s-28.834 -10.334 -45.501 -11.001l5 16c14 2.66699 28.167 11 42.5 25s28.5 32.333 42.5 55
c17.333 30 34 64.667 50 104s29.667 80.333 41 123c12 42.667 21.333 85 28 127s10 80 10 114z" />
    <glyph glyph-name="asterisk" unicode="*" horiz-adv-x="260" 
d="M130 517c5.33301 0 10 -2.66309 14 -7.99609s6 -11.666 6 -18.999c0 -8 -2.5 -19 -7.5 -33s-7.83301 -32 -8.5 -54c18.667 11.333 32.667 22.666 42 33.999s17.666 19.333 24.999 24c5.33301 2.66699 11 4 17 4c8 0 13.333 -2.66699 16 -8c1.33301 -1.33301 2 -4 2 -8
c0 -9.33301 -5 -17 -15 -23c-8 -4.66699 -18.667 -8 -32 -10s-30.333 -8.33301 -51 -19c10 -5.33301 19.167 -9.5 27.5 -12.5s16 -5.33301 23 -7l18.5 -4.5c5.33301 -1.33301 10 -3 14 -5c10 -6.66699 15 -14.334 15 -23.001c0 -1.33301 -0.666992 -4 -2 -8
c-3.33301 -5.33301 -9 -8 -17 -8c-5.33301 0 -10.666 1.66699 -15.999 5c-7.33301 4 -15.666 11.667 -24.999 23s-23.333 22.666 -42 33.999c0.666992 -22 3.5 -40 8.5 -54s7.5 -25 7.5 -33c0 -7.33301 -2 -13.666 -6 -18.999s-8.66699 -8 -14 -8s-10 2.66699 -14 8
s-6 11.666 -6 18.999c0 9.33301 2.5 20.166 7.5 32.499s7.83301 30.166 8.5 53.499c-19.333 -12 -33.166 -23.167 -41.499 -33.5s-16.5 -18.166 -24.5 -23.499c-5.33301 -2.66699 -11 -4 -17 -4c-8.66699 0 -14.334 2.66699 -17.001 8
c-1.33301 2.66699 -2 5.33398 -2 8.00098c0 8.66699 5.33301 16.334 16 23.001c7.33301 4 18.166 7.16699 32.499 9.5s31.166 8.83301 50.499 19.5c-19.333 10.667 -36.166 17.334 -50.499 20.001s-25.166 6 -32.499 10c-5.33301 2.66699 -9.33301 6.16699 -12 10.5
s-4 8.5 -4 12.5c0 1.33301 0.666992 4 2 8c3.33301 5.33301 9 8 17 8c5.33301 0 10.666 -1.66699 15.999 -5c8.66699 -4.66699 17 -12.334 25 -23.001s22 -22 42 -34c-0.666992 23.333 -3.5 41.166 -8.5 53.499s-7.5 23.166 -7.5 32.499c0 7.33301 2 13.666 6 18.999
s8.66699 8 14 8z" />
    <glyph glyph-name="plus" unicode="+" horiz-adv-x="415" 
d="M233 300h158v-52h-158v-158h-51v158h-158v52h158v158h51v-158z" />
    <glyph glyph-name="comma" unicode="," horiz-adv-x="167" 
d="M5 -78c22.667 2 43.168 9.99609 61.501 23.9961s30.166 32.667 35.499 56c-5.33301 -4.66699 -13 -7 -23 -7s-19 3.33301 -27 10s-12 15.334 -12 26.001s4 19.334 12 26.001s17 10 27 10c11.333 0 21 -4.16699 29 -12.5s12 -18.166 12 -29.499
c0 -16.667 -3.33301 -32.167 -10 -46.5s-15.5 -26.666 -26.5 -36.999s-23.667 -18.5 -38 -24.5s-29.5 -9.33301 -45.5 -10l5 15v0z" />
    <glyph glyph-name="hyphen" unicode="-" horiz-adv-x="192" 
d="M168 208l-10 -33h-134l10 33h134z" />
    <glyph glyph-name="period" unicode="." horiz-adv-x="126" 
d="M39 67c10 0 19.167 -3.33301 27.5 -10s12.5 -15.334 12.5 -26.001s-4.16699 -19.334 -12.5 -26.001s-17.5 -10 -27.5 -10s-19 3.33301 -27 10s-12 15.334 -12 26.001s4 19.334 12 26.001s17 10 27 10z" />
    <glyph glyph-name="slash" unicode="/" horiz-adv-x="354" 
d="M24 -81l284 601h22l-252 -601h-54z" />
    <glyph glyph-name="zero" unicode="0" horiz-adv-x="421" 
d="M68 201c0 -16 1.83301 -32.832 5.5 -50.499s9.66699 -33.834 18 -48.501s19.166 -26.834 32.499 -36.501s29.666 -14.5 48.999 -14.5c30.667 0 57.334 8.83301 80.001 26.5s41.334 39.5 56.001 65.5s25.667 54.167 33 84.5s11 58.166 11 83.499
c0 16 -1.83301 32.833 -5.5 50.5s-9.66699 33.834 -18 48.501s-19.166 26.834 -32.499 36.501s-29.666 14.5 -48.999 14.5c-30.667 0 -57.334 -8.66699 -80.001 -26s-41.334 -39 -56.001 -65s-25.667 -54.167 -33 -84.5s-11 -58.5 -11 -84.5zM276 511.001
c22 0 40.665 -5.16895 55.998 -15.502s27.833 -23.666 37.5 -39.999s16.667 -34.333 21 -54s6.5 -38.5 6.5 -56.5c0 -52 -11.667 -101.167 -35 -147.5s-52 -88.166 -86 -125.499c-17.333 -18.667 -37.166 -35 -59.499 -49s-46.166 -21 -71.499 -21
c-22 0 -40.667 5.16699 -56 15.5s-27.833 23.5 -37.5 39.5s-16.667 33.833 -21 53.5s-6.5 38.5 -6.5 56.5c0 52 11.667 101.167 35 147.5s52 88.5 86 126.5c17.333 18 37 34.167 59 48.5s46 21.5 72 21.5z" />
    <glyph glyph-name="one" unicode="1" horiz-adv-x="282" 
d="M150 486v16.001h27c16.667 0 33.334 1.5 50.001 4.5s32.667 8.16699 48 15.5l7 -14l-14 -6l-132 -434c-1.33301 -3.33301 -2.33301 -7 -3 -11s-1 -8 -1 -12c0 -10 3.33301 -17.333 10 -22s14.667 -7 24 -7h18l-4 -16h-180l5 16c21.333 0 38.666 3 51.999 9
s23.333 20 30 42l116 384c0.666992 1.33301 1.5 3.66602 2.5 6.99902s1.5 6.33301 1.5 9c0 8 -3.5 13.167 -10.5 15.5s-13.5 3.5 -19.5 3.5h-27z" />
    <glyph glyph-name="two" unicode="2" horiz-adv-x="448" 
d="M360 378c0 14.667 -2.99707 27.666 -8.99707 38.999s-14 20.833 -24 28.5s-21.333 13.5 -34 17.5s-25.667 6 -39 6c-20 0 -40 -3 -60 -9s-38.333 -14.667 -55 -26s-30.167 -25.666 -40.5 -42.999s-15.5 -37 -15.5 -59c0 -19.333 5.83301 -36.333 17.5 -51
s26.167 -25.667 43.5 -33l-5 -15c-23.333 7.33301 -43.166 19.833 -59.499 37.5s-24.5 39.5 -24.5 65.5s6.83301 50 20.5 72s31.167 41 52.5 57s44.666 28.333 69.999 37s50 13 74 13c18.667 0 37.167 -2.83301 55.5 -8.5s34.666 -13.834 48.999 -24.501
s25.833 -24 34.5 -40s13 -34.333 13 -55c0 -25.333 -6.5 -50 -19.5 -74s-29.333 -46.667 -49 -68s-40.834 -40.833 -63.501 -58.5s-43.334 -32.5 -62.001 -44.5l-154 -100h194c18.667 0 35.834 4 51.501 12s30.167 17.667 43.5 29l10 -12l-111 -102
c-14.667 20.667 -33.667 31 -57 31h-203l-4 14l188 133l60.5 44.5c20.333 15.667 38.666 32.834 54.999 51.501s29.833 39.167 40.5 61.5s16 46.833 16 73.5z" />
    <glyph glyph-name="three" unicode="3" horiz-adv-x="478" 
d="M229 531c14.667 -20.667 33.6689 -31.001 57.002 -31.001h187l5 -14l-186 -148c34.667 -6 63.5 -19.5 86.5 -40.5s34.5 -48.833 34.5 -83.5c0 -33.333 -8 -63.666 -24 -90.999s-36.833 -50.833 -62.5 -70.5s-54 -35 -85 -46s-61.5 -16.5 -91.5 -16.5
c-28.667 0 -55.834 4.33301 -81.501 13s-48.5 23.667 -68.5 45l52 47c9.33301 -28 23.5 -49.333 42.5 -64s43.5 -22 73.5 -22c24.667 0 49 4.83301 73 14.5s45.333 23 64 40s33.667 36.833 45 59.5s17 47 17 73c0 28.667 -10 51.167 -30 67.5s-46.333 24.5 -79 24.5
c-14.667 0 -28.334 -2 -41.001 -6l-7 13l204 163h-190c-19.333 0 -36.5 -3.83301 -51.5 -11.5s-29.167 -17.167 -42.5 -28.5l-11 11z" />
    <glyph glyph-name="four" unicode="4" horiz-adv-x="482" 
d="M262 168l86 284l-299 -284h213zM156 16c20 0 35.998 3.66895 47.998 11.002s21 20.666 27 39.999l20 65h-239l9 32l340 321l34.5 34.5c11.667 11.667 23.834 22.5 36.501 32.5l10 -11c-10 -9.33301 -17.833 -19.333 -23.5 -30s-10.5 -22.334 -14.5 -35.001l-94 -308h42
c18.667 0 36 5 52 15s30.667 21 44 33l10 -12l-111 -103c-6 9.33301 -12.667 16.5 -20 21.5s-16.666 8.16699 -27.999 9.5l-19 -64c-2.66699 -6 -4 -13.667 -4 -23c0 -10 3.33301 -17.333 10 -22s14.667 -7 24 -7h20l-5 -16h-187l5 16h13v0z" />
    <glyph glyph-name="five" unicode="5" horiz-adv-x="472" 
d="M150 328c30 12 61.999 17.999 95.999 17.999c21.333 0 42 -3 62 -9s37.667 -14.667 53 -26s27.666 -25.166 36.999 -41.499s14 -35.166 14 -56.499c0 -32.667 -8 -62.667 -24 -90s-36.667 -50.833 -62 -70.5s-53.5 -35 -84.5 -46s-61.5 -16.5 -91.5 -16.5
c-29.333 0 -56.666 4.33301 -81.999 13s-48 23.667 -68 45l52 47c9.33301 -27.333 23.5 -48.5 42.5 -63.5s43.5 -22.5 73.5 -22.5c24 0 47.833 4.83301 71.5 14.5s45 23 64 40s34.333 36.667 46 59s17.5 46.166 17.5 71.499c0 17.333 -3.66699 32.5 -11 45.5
s-17.166 24 -29.499 33s-26.5 15.667 -42.5 20s-33 6.5 -51 6.5c-40 0 -77.667 -10.333 -113 -31l-11 10l90 222h179c16.667 0 31.667 3 45 9s26 14.667 38 26l11 -10l-101 -140l-13 8c3.33301 8 5 16 5 24c0 12.667 -4 22.667 -12 30s-18.333 11 -31 11h-117l-53 -130v0z
" />
    <glyph glyph-name="six" unicode="6" horiz-adv-x="430" 
d="M358 198c0 18 -3.33398 34.3301 -10.001 48.9971s-15.5 27.334 -26.5 38.001s-24.167 18.834 -39.5 24.501s-31.333 8.5 -48 8.5c-20 0 -40 -4 -60 -12s-37.667 -18.833 -53 -32.5s-27.833 -29.667 -37.5 -48s-14.5 -37.833 -14.5 -58.5
c0 -37.333 11.667 -67.666 35 -90.999s53 -35 89 -35c22.667 0 44.167 3.83301 64.5 11.5s37.833 18.334 52.5 32.001s26.334 30.167 35.001 49.5s13 40.666 13 63.999zM95.999 271.997c11.333 10.667 24.167 21.167 38.5 31.5s29.166 19.666 44.499 27.999s31 15 47 20
s31.333 7.5 46 7.5c18.667 0 36.167 -3.16699 52.5 -9.5s30.5 -15.333 42.5 -27s21.5 -25.5 28.5 -41.5s10.5 -33.667 10.5 -53c0 -20.667 -3.33301 -39.667 -10 -57s-15.5 -33.5 -26.5 -48.5s-23.667 -28.833 -38 -41.5s-29.166 -24.667 -44.499 -36
c-19.333 -14.667 -39.5 -26.167 -60.5 -34.5s-42.833 -12.5 -65.5 -12.5c-22 0 -41.5 4.33301 -58.5 13s-31.333 20.167 -43 34.5s-20.5 30.833 -26.5 49.5s-9 38.334 -9 59.001c0 40 8.33301 79 25 117s38.5 73.167 65.5 105.5s57.5 61.166 91.5 86.499
s68.667 45.333 104 60l6 -14c-49.333 -23.333 -93 -56.166 -131 -98.499s-67.667 -88.5 -89 -138.5z" />
    <glyph glyph-name="seven" unicode="7" horiz-adv-x="414" 
d="M0 0l4.99902 15.999c9.33301 0 17.5 0.333008 24.5 1s13.667 2.33398 20 5.00098s12.5 6.66699 18.5 12s12.667 12.333 20 21l321 401h-230c-19.333 0 -36.5 -4 -51.5 -12s-29.167 -18 -42.5 -30l-11 12l111 102c7.33301 -10.667 15.333 -18.5 24 -23.5
s19.667 -7.5 33 -7.5h157c13.333 0 25 2.5 35 7.5s20 11.167 30 18.5l10 -13c-5.33301 -4.66699 -10.166 -9.16699 -14.499 -13.5s-8.16602 -9.16602 -11.499 -14.499l-291 -417c-4 -6 -6.5 -10.833 -7.5 -14.5s-1.5 -7.16699 -1.5 -10.5c0 -8 4.16699 -13.833 12.5 -17.5
s19.166 -5.83398 32.499 -6.50098l-5 -16h-188z" />
    <glyph glyph-name="eight" unicode="8" horiz-adv-x="411" 
d="M208 275l-50.001 -20.5c-18 -7.66699 -34.667 -17 -50 -28s-28.166 -23.833 -38.499 -38.5s-15.5 -31.667 -15.5 -51c0 -18 4.83301 -33.667 14.5 -47s21.667 -24.5 36 -33.5s30.166 -15.667 47.499 -20s33.666 -6.5 48.999 -6.5c14.667 0 30 2.5 46 7.5
s30.833 12.167 44.5 21.5s24.834 20.5 33.501 33.5s13 27.833 13 44.5c0 16 -4.66699 30.667 -14 44s-20.666 25.833 -33.999 37.5s-27.5 22.167 -42.5 31.5zM229.999 484c-10 0 -20.165 -1.66504 -30.498 -4.99805s-19.5 -8 -27.5 -14s-14.5 -13.5 -19.5 -22.5
s-7.5 -19.167 -7.5 -30.5c0 -20.667 9 -37.334 27 -50.001l76 -53c10 4 20.833 8.83301 32.5 14.5s22.5 12.167 32.5 19.5s18.167 16 24.5 26s9.5 21.667 9.5 35c0 14 -3.83301 26.167 -11.5 36.5s-17.334 18.666 -29.001 24.999s-24.334 11 -38.001 14s-26.5 4.5 -38.5 4.5
zM263.001 298.002l39.5 -25.9961c13.667 -8.66699 26 -18 37 -28s20 -21.5 27 -34.5s10.5 -28.167 10.5 -45.5c0 -25.333 -7.16699 -48.5 -21.5 -69.5s-32.333 -39.167 -54 -54.5s-45.167 -27.333 -70.5 -36s-49.333 -13 -72 -13c-18 0 -36.333 3 -55 9
s-35.834 14.667 -51.501 26s-28.334 25 -38.001 41s-14.5 34 -14.5 54c0 23.333 5.83301 44.666 17.5 63.999s26.667 36.333 45 51s38.5 26.5 60.5 35.5s43 15.167 63 18.5c-9.33301 6 -18.666 12.333 -27.999 19s-18 14.167 -26 22.5s-14.5 17.666 -19.5 27.999
s-7.5 21.5 -7.5 33.5c0 19.333 5.33301 36.5 16 51.5s24 27.667 40 38s33.5 18.166 52.5 23.499s36.833 8 53.5 8c12.667 0 26.167 -1.66699 40.5 -5s27.333 -8.5 39 -15.5s21.334 -16 29.001 -27s11.5 -24.167 11.5 -39.5c0 -16.667 -4 -31.667 -12 -45
s-18 -25.333 -30 -36s-25.333 -19.834 -40 -27.501s-28.667 -14.5 -42 -20.5z" />
    <glyph glyph-name="nine" unicode="9" horiz-adv-x="435" 
d="M66 307c0 -17.333 3.16797 -32.833 9.50098 -46.5s14.833 -25.167 25.5 -34.5s23.167 -16.666 37.5 -21.999s29.5 -8 45.5 -8c20 0 40.833 4.5 62.5 13.5s41.167 21.167 58.5 36.5s31.666 33 42.999 53s17 41.333 17 64c0 35.333 -11.167 63.333 -33.5 84
s-50.5 31 -84.5 31c-24.667 0 -48 -4.33301 -70 -13s-41.167 -20.667 -57.5 -36s-29.333 -33.333 -39 -54s-14.5 -43.334 -14.5 -68.001zM331.001 248c-10.667 -10.667 -23.002 -21.166 -37.002 -31.499s-29 -19.5 -45 -27.5s-32.333 -14.5 -49 -19.5s-33 -7.5 -49 -7.5
c-18 0 -34.667 3 -50 9s-28.666 14.333 -39.999 25s-20.333 23.667 -27 39s-10 32 -10 50c0 32 8.33301 62.167 25 90.5s37 51.833 61 70.5c26.667 21.333 53.834 39.5 81.501 54.5s57.834 22.5 90.501 22.5c20.667 0 39 -3.83301 55 -11.5s29.5 -18 40.5 -31
s19.333 -28.333 25 -46s8.5 -36.167 8.5 -55.5c0 -20.667 -3 -42.334 -9 -65.001c-10 -36 -24.833 -70 -44.5 -102s-42.667 -61.667 -69 -89s-55.166 -51.5 -86.499 -72.5s-64 -38.5 -98 -52.5l-6 15c24.667 9.33301 48.5 22.5 71.5 39.5s44.667 36 65 57
s38.666 43.5 54.999 67.5s30.166 47.667 41.499 71z" />
    <glyph glyph-name="colon" unicode=":" horiz-adv-x="126" 
d="M39 67c10 0 19.167 -3.33301 27.5 -10s12.5 -15.334 12.5 -26.001s-4.16699 -19.334 -12.5 -26.001s-17.5 -10 -27.5 -10s-19 3.33301 -27 10s-12 15.334 -12 26.001s4 19.334 12 26.001s17 10 27 10zM87 228c10 0 19 -3.33301 27 -10s12 -15.334 12 -26.001
c0 -11.333 -4 -20.333 -12 -27s-17 -10 -27 -10s-19.167 3.33301 -27.5 10s-12.5 15.667 -12.5 27c0 10.667 4.16699 19.334 12.5 26.001s17.5 10 27.5 10z" />
    <glyph glyph-name="semicolon" unicode=";" horiz-adv-x="167" 
d="M5 -78c22.667 2 43.168 9.99609 61.501 23.9961s30.166 32.667 35.499 56c-5.33301 -4.66699 -13 -7 -23 -7s-19 3.33301 -27 10s-12 15.334 -12 26.001s4 19.334 12 26.001s17 10 27 10c11.333 0 21 -4.16699 29 -12.5s12 -18.166 12 -29.499
c0 -16.667 -3.33301 -32.167 -10 -46.5s-15.5 -26.666 -26.5 -36.999s-23.667 -18.5 -38 -24.5s-29.5 -9.33301 -45.5 -10l5 15v0zM128.001 227.996c10 0 19 -3.33301 27 -10s12 -15.334 12 -26.001c0 -11.333 -4 -20.333 -12 -27s-17 -10 -27 -10s-19 3.33301 -27 10
s-12 15.667 -12 27c0 10.667 4 19.334 12 26.001s17 10 27 10z" />
    <glyph glyph-name="less" unicode="&#x3c;" horiz-adv-x="361" 
d="M74 274l287 -126v-55l-361 157v47l361 158v-56z" />
    <glyph glyph-name="equal" unicode="=" horiz-adv-x="367" 
d="M367 372v-51h-367v51h367zM367 227v-51h-367v51h367z" />
    <glyph glyph-name="greater" unicode="&#x3e;" horiz-adv-x="361" 
d="M0 399v56l361 -158v-47l-361 -157v55l287 126z" />
    <glyph glyph-name="question" unicode="?" horiz-adv-x="329" 
d="M100 87c3.33301 28.667 9.99902 53.8291 19.999 75.4961s21.333 41 34 58s26 32.5 40 46.5s26.667 27.5 38 40.5s20.833 26.167 28.5 39.5s11.5 28 11.5 44c0 14.667 -3.16699 27.334 -9.5 38.001s-14.5 19.5 -24.5 26.5s-21.333 12.167 -34 15.5s-25.667 5 -39 5
c-15.333 0 -30.666 -1.66699 -45.999 -5s-29.833 -8.5 -43.5 -15.5s-25.667 -15.833 -36 -26.5s-18.5 -23.667 -24.5 -39l-15 13c7.33301 18 17.333 34.167 30 48.5s27 26.5 43 36.5s33.167 17.833 51.5 23.5s36.833 8.5 55.5 8.5c18 0 35.833 -2.5 53.5 -7.5
s33.667 -12.333 48 -22s25.833 -22 34.5 -37s13 -32.5 13 -52.5c0 -24 -4.5 -44.667 -13.5 -62s-20.5 -33.166 -34.5 -47.499s-29.333 -27.833 -46 -40.5s-32.834 -26.667 -48.501 -42s-29.667 -32.666 -42 -51.999s-21.166 -42.666 -26.499 -69.999h-18v0zM98.999 66.9951
c10 0 19 -3.33301 27 -10s12 -15.334 12 -26.001s-4 -19.334 -12 -26.001s-17 -10 -27 -10s-19 3.33301 -27 10s-12 15.334 -12 26.001s4 19.334 12 26.001s17 10 27 10z" />
    <glyph glyph-name="at" unicode="@" horiz-adv-x="505" 
d="M348 119c20.667 0 39.668 7.16895 57.001 21.502s32.166 31.666 44.499 51.999s22 42 29 65s10.5 43.5 10.5 61.5c0 28 -4.66699 53.5 -14 76.5s-22.333 42.5 -39 58.5s-36.5 28.5 -59.5 37.5s-48.5 13.5 -76.5 13.5c-37.333 0 -71.666 -7.16699 -102.999 -21.5
s-58.5 -33.833 -81.5 -58.5s-41 -53.334 -54 -86.001s-19.5 -67.334 -19.5 -104.001c0 -30 5.5 -58.5 16.5 -85.5s26 -50.833 45 -71.5s41.667 -37 68 -49s54.833 -18 85.5 -18c44.667 0 87.167 10.333 127.5 31s72.833 50 97.5 88l13 -9c-26 -40 -60.167 -71 -102.5 -93
s-87.5 -33 -135.5 -33c-35.333 0 -68.5 6.16699 -99.5 18.5s-58.167 29.333 -81.5 51s-41.833 47.667 -55.5 78s-20.5 63.5 -20.5 99.5c0 40.667 8.33301 78.167 25 112.5s38.834 63.666 66.501 87.999s59.5 43.333 95.5 57s73.667 20.5 113 20.5
c30 0 57.5 -4.83301 82.5 -14.5s46.667 -23.167 65 -40.5s32.5 -38.5 42.5 -63.5s15 -52.5 15 -82.5c0 -20 -3.83301 -42.5 -11.5 -67.5s-18.334 -48.5 -32.001 -70.5s-30.167 -40.5 -49.5 -55.5s-40.666 -22.5 -63.999 -22.5c-20.667 0 -36.667 7.16699 -48 21.5
s-17 31.166 -17 50.499c-6 -8 -12.667 -16.333 -20 -25s-15.5 -16.667 -24.5 -24s-18.667 -13.333 -29 -18s-20.833 -7 -31.5 -7c-12.667 0 -23.834 2.66699 -33.501 8s-17.834 12.5 -24.501 21.5s-11.667 19.167 -15 30.5s-5 22.666 -5 33.999c0 24 5.5 48.833 16.5 74.5
s25.667 49.334 44 71.001s39.333 39.5 63 53.5s48.167 21 73.5 21c16 0 29.667 -5.16699 41 -15.5s17 -25.166 17 -44.499l25 58h55l-15 -32.5l-22.5 -48l-25.5 -56l-24 -56c-7.33301 -17.667 -13.333 -33.167 -18 -46.5s-7 -22.666 -7 -27.999
c0 -7.33301 2.16699 -13.666 6.5 -18.999s10.5 -8 18.5 -8zM298.001 399.002c-13.333 0 -26.168 -4.16699 -38.501 -12.5s-24 -19.333 -35 -33s-21.167 -29.167 -30.5 -46.5s-17.166 -34.666 -23.499 -51.999s-11.333 -34 -15 -50s-5.5 -29.667 -5.5 -41
c0 -4 0.5 -8.66699 1.5 -14s2.5 -10.5 4.5 -15.5s4.83301 -9.16699 8.5 -12.5s8.16699 -5 13.5 -5c20 0 39.667 9.33301 59 28s36.5 41 51.5 67s27.167 52.667 36.5 80s14 49.666 14 66.999c0 12.667 -3.83301 22.5 -11.5 29.5s-17.5 10.5 -29.5 10.5z" />
    <glyph glyph-name="A" unicode="A" 
d="M685 222l63.5 -14.5c21 -5 42.167 -7.5 63.5 -7.5c12 0 23 2 33 6v283zM845 189c-8 -2.66699 -16.3291 -4.49609 -24.9961 -5.49609s-17.334 -1.5 -26.001 -1.5c-23.333 0 -45.333 2.16699 -66 6.5l-60 12.5c-24.667 -33.333 -52.334 -65.333 -83.001 -96
s-63.5 -57.667 -98.5 -81s-72.167 -41.833 -111.5 -55.5s-80 -20.5 -122 -20.5c-26.667 0 -54.167 3.83301 -82.5 11.5s-54.333 19.167 -78 34.5s-43 34.5 -58 57.5s-22.5 49.833 -22.5 80.5c0 36 7.83301 68.667 23.5 98s36.167 54.333 61.5 75s54.333 36.5 87 47.5
s66 16.5 100 16.5c16.667 0 34.5 -2.33301 53.5 -7s36.167 -12 51.5 -22s28.166 -22.333 38.499 -37s15.5 -32 15.5 -52c0 -24.667 -5.33301 -46.5 -16 -65.5s-24.5 -35.167 -41.5 -48.5s-36.667 -23.666 -59 -30.999s-44.833 -11 -67.5 -11v15c20 0 39.5 3 58.5 9
s35.833 14.667 50.5 26s26.5 25.166 35.5 41.499s13.5 35.5 13.5 57.5c0 18 -4.16699 33.833 -12.5 47.5s-19.166 25 -32.499 34s-28 15.667 -44 20s-32 6.5 -48 6.5c-30 0 -59.5 -5 -88.5 -15s-54.667 -24.333 -77 -43s-40.5 -41 -54.5 -67s-21 -55 -21 -87
c0 -28.667 6.33301 -54 19 -76s29.334 -40.5 50.001 -55.5s43.667 -26.333 69 -34s50.666 -11.5 75.999 -11.5c40 0 78.833 6.66699 116.5 20s73.5 31 107.5 53s65.667 47.5 95 76.5s56 59.5 80 91.5l-29 4c-10 1.33301 -20 2 -30 2c-22.667 0 -45.334 -5.33301 -68.001 -16
l-7 14c15.333 8 31.833 13.667 49.5 17s34.834 5 51.501 5c8.66699 0 17.167 -0.333008 25.5 -1s16.5 -1.66699 24.5 -3l210 351l14 -4v-349c0 -33.333 -4.16699 -66.833 -12.5 -100.5s-21 -65.167 -38 -94.5s-38 -54.833 -63 -76.5s-53.833 -36.5 -86.5 -44.5
c38.667 -7.33301 75.667 -19 111 -35l105 -49c34.667 -16.667 69.334 -31.334 104.001 -44.001s71 -19 109 -19c20 0 39.667 2.5 59 7.5s36.333 12.667 51 23s26.5 23.166 35.5 38.499s13.5 33 13.5 53c0 24.667 -7.5 45.834 -22.5 63.501s-35.167 26.5 -60.5 26.5
c-18.667 0 -35.334 -6.33301 -50.001 -19l-10 12c8.66699 7.33301 18 13 28 17s20.667 6 32 6c14.667 0 28 -2.83301 40 -8.5s22.5 -13.334 31.5 -23.001s16 -21 21 -34s7.5 -26.833 7.5 -41.5c0 -24.667 -6 -46.334 -18 -65.001s-27.167 -34.334 -45.5 -47.001
s-38.833 -22.167 -61.5 -28.5s-44.667 -9.5 -66 -9.5c-30.667 0 -59.834 3.83301 -87.501 11.5s-54.667 17.5 -81 29.5s-52 25 -77 39l-75 40c-25 12.667 -50.333 23.5 -76 32.5s-51.834 14.5 -78.501 16.5v14c32.667 0 62 8.33301 88 25s48.167 38.167 66.5 64.5
s32.5 55.833 42.5 88.5s15.333 64.667 16 96z" />
    <glyph glyph-name="B" unicode="B" horiz-adv-x="645" 
d="M350 306c-10.667 -2 -16 -5.33301 -16 -10c0 -2.66699 3.33301 -5.66699 10 -9zM394 278h10.999c24 0 46.333 3.66699 67 11c-23.333 10.667 -46.666 17 -69.999 19zM389.999 263c-11.333 -44 -24.502 -86.1709 -39.502 -126.504s-33.333 -75.833 -55 -106.5
s-47.5 -55 -77.5 -73s-65.667 -27 -107 -27c-13.333 0 -26.666 1.83301 -39.999 5.5s-25.166 9.16699 -35.499 16.5s-18.833 16.5 -25.5 27.5s-10 24.167 -10 39.5c0 9.33301 1.5 18.666 4.5 27.999s7.16699 18 12.5 26l13 -8c-10 -15.333 -15 -30.666 -15 -45.999
c0 -13.333 3 -24.666 9 -33.999s13.5 -17 22.5 -23s19.167 -10.333 30.5 -13s22.666 -4 33.999 -4c33.333 0 61.5 8 84.5 24s42.167 36.167 57.5 60.5s28 51 38 80s18.667 56.5 26 82.5l23 81c-6.66699 2.66699 -12.167 5.83398 -16.5 9.50098s-6.5 8.5 -6.5 14.5
c0 7.33301 4 13 12 17s16.667 6.66699 26 8c5.33301 17.333 11 34.333 17 51s13 33 21 49c7.33301 15.333 15.666 30 24.999 44s19 26.667 29 38c-4.66699 -0.666992 -9.66699 -1 -15 -1h-16c-11.333 0 -23.166 -1.66699 -35.499 -5s-22.5 -9.33301 -30.5 -18l-12 10
c9.33301 10.667 21.333 18.167 36 22.5s28.667 6.5 42 6.5c10 0 20.167 0.166992 30.5 0.5s20.166 1.5 29.499 3.5l8 -13c-11.333 -14 -21 -29.167 -29 -45.5s-15.333 -32.833 -22 -49.5c-4.66699 -12.667 -9 -25.834 -13 -39.501s-8.66699 -31.167 -14 -52.5
c15.333 -1.33301 30.5 -4.16602 45.5 -8.49902s29.167 -9.83301 42.5 -16.5c26 13.333 47.333 31.833 64 55.5s25 50.834 25 81.501c0 24.667 -5.33301 45.834 -16 63.501s-25.167 32.167 -43.5 43.5s-39.5 19.833 -63.5 25.5s-49.333 8.5 -76 8.5
c-34 0 -69.833 -5 -107.5 -15s-72.167 -24.833 -103.5 -44.5s-57.166 -44 -77.499 -73s-30.5 -62.5 -30.5 -100.5c0 -15.333 2.5 -30.333 7.5 -45s12.333 -27.834 22 -39.501s21.167 -21.167 34.5 -28.5s28.333 -11 45 -11c18 0 35.667 3.66699 53 11s32 18 44 32l11 -11
c-13.333 -15.333 -29.5 -27 -48.5 -35s-38.833 -12 -59.5 -12c-19.333 0 -37.333 3.66699 -54 11s-31.5 17.166 -44.5 29.499s-23.167 26.833 -30.5 43.5s-11 34.667 -11 54c0 40 11.167 75.5 33.5 106.5s50.666 57 84.999 78s72.5 36.833 114.5 47.5s83 16 123 16
c30 0 59 -2.83301 87 -8.5s52.667 -14.667 74 -27s38.333 -28.166 51 -47.499s19 -42.333 19 -69c0 -33.333 -10.5 -63.333 -31.5 -90s-45.833 -47 -74.5 -61c15.333 -9.33301 30 -20.333 44 -33s26.167 -26.5 36.5 -41.5s18.5 -31 24.5 -48s9 -34.833 9 -53.5
c0 -29.333 -5.83301 -55.333 -17.5 -78s-26.5 -41.834 -44.5 -57.501s-38 -27.667 -60 -36s-43.333 -12.5 -64 -12.5c-28.667 0 -54.5 7 -77.5 21s-38.167 35 -45.5 63l14 6c4.66699 -21.333 15.834 -37.666 33.501 -48.999s37.834 -17 60.501 -17
c18 0 36.167 3.33301 54.5 10s35 17 50 31s27.333 31.667 37 53s14.5 47 14.5 77c0 32 -8.66699 61.667 -26 89s-39.333 49.333 -66 66c-13.333 -5.33301 -25.833 -9.16602 -37.5 -11.499s-25.167 -3.5 -40.5 -3.5h-11c-4 0 -8.33301 0.333008 -13 1z" />
    <glyph glyph-name="C" unicode="C" horiz-adv-x="654" 
d="M604 372c3.33301 8 6.49707 16.1689 9.49707 24.502s4.5 17.166 4.5 26.499c0 26.667 -7.66699 50.167 -23 70.5s-34.333 37.5 -57 51.5s-47.334 24.5 -74.001 31.5s-51 10.5 -73 10.5c-50 0 -94.5 -9.5 -133.5 -28.5s-71.667 -44 -98 -75s-46.5 -66.333 -60.5 -106
s-21 -79.834 -21 -120.501c0 -38.667 6.33301 -76.834 19 -114.501s31.167 -71.5 55.5 -101.5s54.333 -54.167 90 -72.5s76.5 -27.5 122.5 -27.5c27.333 0 54.833 4.66699 82.5 14s52.5 22.333 74.5 39s40 36.667 54 60s21 49.333 21 78c0 11.333 -2.16699 23.5 -6.5 36.5
s-10.5 23.833 -18.5 32.5l9 12c11.333 -7.33301 21.666 -19 30.999 -35s14 -31.333 14 -46c0 -33.333 -7.83301 -62.833 -23.5 -88.5s-36.167 -47.334 -61.5 -65.001s-53.666 -31.167 -84.999 -40.5s-62.666 -14 -93.999 -14c-55.333 0 -104.166 9.83301 -146.499 29.5
s-77.666 45.334 -105.999 77.001s-49.666 67.667 -63.999 108s-21.5 81.166 -21.5 122.499c0 42.667 8 84.5 24 125.5s39.5 77.667 70.5 110s69.333 58.5 115 78.5s98.167 30 157.5 30c24 0 48.667 -2.83301 74 -8.5s49.5 -14.167 72.5 -25.5s43.833 -25.166 62.5 -41.499
s34 -35.166 46 -56.499l15 38h17l-56 -139h-18v0z" />
    <glyph glyph-name="D" unicode="D" horiz-adv-x="827" 
d="M256 -16c29.333 -7.33301 59.167 -12 89.5 -14s60.5 -3 90.5 -3c46 0 89.5 8.5 130.5 25.5s77 40.333 108 70s55.5 64.667 73.5 105s27 84.166 27 131.499c0 40 -7.5 78.333 -22.5 115s-39.5 69 -73.5 97c-26 21.333 -58 38.333 -96 51s-82 20.334 -132 23.001l-195 -601
v0zM155.001 -34c15.333 0 28.832 4.33398 40.499 13.001s19.834 19.667 24.501 33l187 574c-50 -0.666992 -96.5 -7.16699 -139.5 -19.5s-80.5 -29.166 -112.5 -50.499c-32.667 -21.333 -58.334 -46.5 -77.001 -75.5s-28 -60.167 -28 -93.5c0 -13.333 2.5 -26.333 7.5 -39
s11.833 -24 20.5 -34s19 -18 31 -24s25 -9 39 -9c16 0 31.333 3.5 46 10.5s27.334 16.833 38.001 29.5l12 -9c-12 -14.667 -26.333 -26.167 -43 -34.5s-34.334 -12.5 -53.001 -12.5c-18 0 -34.5 3.16699 -49.5 9.5s-28 15 -39 26s-19.667 24.167 -26 39.5
s-9.5 31.666 -9.5 48.999c0 36 10.667 69.5 32 100.5s51 58.167 89 81.5c37.333 23.333 80.333 41.666 129 54.999s101.334 20 158.001 20c64 0 119.5 -7.33301 166.5 -22s86.5 -34.667 118.5 -60c38 -30 65.833 -64.833 83.5 -104.5s26.5 -80.834 26.5 -123.501
c0 -44.667 -9.5 -88.667 -28.5 -132s-46.5 -81.666 -82.5 -114.999c-32 -30 -69.667 -53.833 -113 -71.5s-92 -26.5 -146 -26.5h-335l5 15h28z" />
    <glyph glyph-name="E" unicode="E" horiz-adv-x="613" 
d="M423 285c-18.667 0 -34.168 -6.83398 -46.501 -20.501s-18.5 -29.5 -18.5 -47.5s4 -34.5 12 -49.5s19 -28.833 33 -41.5s30.167 -24.667 48.5 -36s37.833 -22 58.5 -32c7.33301 13.333 12.666 27.5 15.999 42.5s5 30.833 5 47.5c0 18 -2.33301 35.167 -7 51.5
s-11.667 30.833 -21 43.5s-20.666 22.834 -33.999 30.501s-28.666 11.5 -45.999 11.5zM236.999 386.999c12 -13.333 23.667 -22.666 35 -27.999s21.666 -8 30.999 -8c8 0 14.5 1.5 19.5 4.5s7.5 6.83301 7.5 11.5c0 5.33301 -4.16699 10.166 -12.5 14.499
s-22.166 6.83301 -41.499 7.5h-4c-6 0 -12 -0.166992 -18 -0.5s-11.667 -0.833008 -17 -1.5zM322.999 476.999c10 -8.66699 21.002 -13.0098 33.002 -13.0098c13.333 0 24.5 5.33301 33.5 16s13.5 22.667 13.5 36c0 10.667 -2.5 20.167 -7.5 28.5s-11.5 15 -19.5 20
s-16.833 8.83301 -26.5 11.5s-19.167 4 -28.5 4c-32.667 0 -59.834 -10.833 -81.501 -32.5s-32.5 -48.834 -32.5 -81.501c0 -24.667 6.33301 -46.667 19 -66c7.33301 1.33301 14.833 2.5 22.5 3.5s16.167 1.5 25.5 1.5c26 -0.666992 44.667 -4.66699 56 -12
s17 -15.666 17 -24.999c0 -8.66699 -4.33301 -16.5 -13 -23.5s-20 -10.5 -34 -10.5c-12.667 0 -26.5 3.66699 -41.5 11s-30.167 19.666 -45.5 36.999c-22 -6 -41.667 -15.167 -59 -27.5s-32 -27 -44 -44s-21.167 -36 -27.5 -57s-9.5 -42.833 -9.5 -65.5
c0 -32.667 6.16699 -63.167 18.5 -91.5s29 -53.166 50 -74.499s45.667 -38.166 74 -50.499s58.833 -18.5 91.5 -18.5c36 0 70.667 6.5 104 19.5s61.333 33.833 84 62.5c-20.667 10.667 -40.5 21.834 -59.5 33.501s-35.833 24.5 -50.5 38.5s-26.334 29.667 -35.001 47
s-13 37 -13 59c0 24.667 8.5 45.5 25.5 62.5s38.167 25.5 63.5 25.5c20 0 38 -4.16699 54 -12.5s29.667 -19.5 41 -33.5s20.166 -29.833 26.499 -47.5s9.5 -35.834 9.5 -54.501c0 -19.333 -2.66699 -37.666 -8 -54.999s-12.666 -33.666 -21.999 -48.999l77 -40
c26.667 -14 51 -30.167 73 -48.5s40.167 -40 54.5 -65s21.5 -54.833 21.5 -89.5c0 -17.333 -3.5 -33.333 -10.5 -48s-16.333 -27.5 -28 -38.5s-25.334 -19.667 -41.001 -26s-31.834 -9.5 -48.501 -9.5c-11.333 0 -22.333 1.83301 -33 5.5s-20.334 9 -29.001 16
s-15.667 15 -21 24s-8 19.167 -8 30.5c0 3.33301 0.333008 7 1 11s1.66699 7.66699 3 11l15 -6c-2 -5.33301 -3 -10.666 -3 -15.999c0 -9.33301 2.33301 -17.5 7 -24.5s10.834 -12.833 18.501 -17.5s15.834 -8.16699 24.501 -10.5s17 -3.5 25 -3.5
c14.667 0 28.834 2.5 42.501 7.5s25.667 12.167 36 21.5s18.5 20.5 24.5 33.5s9 27.167 9 42.5c0 30.667 -7.5 57.167 -22.5 79.5s-33.833 41.833 -56.5 58.5s-47.167 31.334 -73.5 44.001l-73.5 36c-25.333 -32 -57.333 -56.167 -96 -72.5s-78.667 -24.5 -120 -24.5
c-32.667 0 -65.167 5.5 -97.5 16.5s-61.333 26.833 -87 47.5s-46.5 45.334 -62.5 74.001s-24 61 -24 97c0 26.667 4.5 52.334 13.5 77.001s21.5 47 37.5 67s34.833 37.5 56.5 52.5s45.167 26.167 70.5 33.5c-16.667 22.667 -25 47.334 -25 74.001
c0 20.667 4.16699 38.834 12.5 54.501s19.5 28.834 33.5 39.501s29.833 18.667 47.5 24s35.834 8 54.501 8c12 0 24 -1.83301 36 -5.5s22.667 -9 32 -16s17 -15.667 23 -26s9 -21.833 9 -34.5c0 -19.333 -6.83301 -35 -20.5 -47s-29.834 -18 -48.501 -18
c-16 0 -30.667 6 -44 18l11 11v0z" />
    <glyph glyph-name="F" unicode="F" horiz-adv-x="591" 
d="M73 66c-6.66699 -11.333 -10 -22.334 -10 -33.001c0 -14 3.83301 -26.167 11.5 -36.5s17.167 -19 28.5 -26s23.5 -12.167 36.5 -15.5s25.167 -5 36.5 -5c29.333 0 55.833 8.33301 79.5 25s44.834 37.167 63.501 61.5s34.667 50.666 48 78.999s24 54.166 32 77.499
l16.5 47l16.5 48c-5.33301 0.666992 -10.5 1 -15.5 1h-15.5c-8 0 -17.833 -0.833008 -29.5 -2.5s-23 -4.16699 -34 -7.5s-21 -8.16602 -30 -14.499s-15.167 -13.833 -18.5 -22.5l-14 6c4 10.667 11 19.667 21 27s21 13.166 33 17.499s24.5 7.5 37.5 9.5s24.5 3 34.5 3
c6.66699 0 13 -0.166992 19 -0.5s12 -0.5 18 -0.5c16 44 34.333 87 55 129s47.667 79.333 81 112c-25.333 -7.33301 -49.333 -11 -72 -11c-22 0 -43.833 1.83301 -65.5 5.5s-43.334 7.83398 -65.001 12.501s-43 8.83398 -64 12.501s-42.167 5.5 -63.5 5.5
c-24.667 0 -48.334 -3.66699 -71.001 -11s-42.834 -18 -60.501 -32s-31.667 -31.333 -42 -52s-15.5 -44 -15.5 -70c0 -16 2.66699 -31.833 8 -47.5s13 -29.5 23 -41.5s22 -21.833 36 -29.5s29.667 -11.5 47 -11.5c19.333 0 37.333 4.66699 54 14l6 -10
c-20.667 -14.667 -43.334 -22 -68.001 -22c-18.667 0 -35.834 3.83301 -51.501 11.5s-29.334 17.834 -41.001 30.501s-20.667 27.334 -27 44.001s-9.5 34 -9.5 52c0 31.333 7.33301 59.5 22 84.5s33.5 46.167 56.5 63.5s48.833 30.666 77.5 39.999s57 14 85 14
c24 0 47.5 -2 70.5 -6l68.5 -12.5l68 -12.5c22.667 -4 45.667 -6 69 -6c12.667 0 24.667 2.33301 36 7s22.333 10.334 33 17.001l9 -13c-20 -13.333 -37.333 -31 -52 -53s-27.5 -45.667 -38.5 -71s-20.5 -51 -28.5 -77s-15 -49.667 -21 -71l40.5 -4
c13 -1.33301 26.5 -2 40.5 -2c8 0 14.333 2.83301 19 8.5s7.66699 11.834 9 18.501l15 -3c-2.66699 -10.667 -7.5 -19.834 -14.5 -27.501s-16.5 -11.5 -28.5 -11.5c-15.333 0 -29.666 0.666992 -42.999 2s-27.666 2.66602 -42.999 3.99902
c-7.33301 -24 -15.166 -48 -23.499 -72s-17.666 -47.333 -27.999 -70s-22.166 -44.667 -35.499 -66s-29 -41.333 -47 -60c-52 -54 -109.333 -81 -172 -81c-13.333 0 -27.5 2.16699 -42.5 6.5s-28.833 10.5 -41.5 18.5s-23.167 18.167 -31.5 30.5s-12.5 26.5 -12.5 42.5
c0 14 4.33301 27.667 13 41l12 -8v0z" />
    <glyph glyph-name="G" unicode="G" horiz-adv-x="705" 
d="M546 179l4.99707 15.999h154l-5 -16c-20 -0.666992 -34.333 -5 -43 -13s-15.334 -19.667 -20.001 -35l-28 -95c-34 -32 -74.333 -56.167 -121 -72.5s-92.667 -24.5 -138 -24.5c-41.333 0 -81.666 7.16699 -120.999 21.5s-74.166 34.833 -104.499 61.5
s-54.666 59.167 -72.999 97.5s-27.5 81.5 -27.5 129.5c0 50.667 10.333 97.834 31 141.501s48.167 81.334 82.5 113.001s74.166 56.5 119.499 74.5s93 27 143 27c24 0 49.167 -2.5 75.5 -7.5s51.5 -13 75.5 -24s46 -24.833 66 -41.5s36 -36.334 48 -59.001l15 37h17
l-58 -140h-17c7.33301 18 11 35.667 11 53c0 26.667 -8 50.167 -24 70.5s-35.833 37.5 -59.5 51.5s-49 24.5 -76 31.5s-51.833 10.5 -74.5 10.5c-46 0 -88.667 -9 -128 -27s-73.166 -42.167 -101.499 -72.5s-50.666 -65.833 -66.999 -106.5s-24.5 -83.334 -24.5 -128.001
c0 -41.333 6.5 -80 19.5 -116s31.667 -67.333 56 -94s53.833 -47.5 88.5 -62.5s73.334 -22.5 116.001 -22.5c20.667 0 42.167 2 64.5 6s43.666 10.833 63.999 20.5s38.333 22.167 54 37.5s27.167 34.333 34.5 57l21 66c0.666992 2.66699 1 6.33398 1 11.001
c0 7.33301 -2.5 13 -7.5 17s-11.167 6 -18.5 6h-25z" />
    <glyph glyph-name="H" unicode="H" horiz-adv-x="806" 
d="M118 -60c-22 0 -41.832 6.83301 -59.499 20.5s-26.5 32.167 -26.5 55.5c0 13.333 3.16699 25.166 9.5 35.499s14.833 19.166 25.5 26.499l9 -13c-7.33301 -5.33301 -13.5 -11.833 -18.5 -19.5s-7.5 -16.167 -7.5 -25.5c0 -19.333 7 -34.833 21 -46.5s30 -17.5 48 -17.5
c29.333 0 54.333 9.33301 75 28s38 41.5 52 68.5s25.5 55.5 34.5 85.5s16.167 56 21.5 78c9.33301 38 19.166 75.333 29.499 112s24.5 72.667 42.5 108c12 23.333 25 43.833 39 61.5s30 35.834 48 54.501c-13.333 -3.33301 -26 -5 -38 -5
c-14.667 0 -29.334 1.16699 -44.001 3.5s-29.334 5 -44.001 8s-29.5 5.83301 -44.5 8.5s-30.5 4 -46.5 4c-15.333 0 -30.666 -2.16699 -45.999 -6.5s-29 -11 -41 -20s-21.833 -20 -29.5 -33s-11.5 -27.833 -11.5 -44.5c0 -22 7.33301 -41.333 22 -58s33.334 -25 56.001 -25
c18 0 34.5 5.33301 49.5 16s25.167 24.667 30.5 42l15 -5c-6 -20.667 -18 -37.334 -36 -50.001s-37.667 -19 -59 -19c-28 0 -51.333 9.5 -70 28.5s-28 42.5 -28 70.5c0 21.333 5.33301 39.833 16 55.5s24.334 28.834 41.001 39.501s35 18.5 55 23.5s39 7.5 57 7.5
c15.333 0 30.666 -1.16699 45.999 -3.5s30.666 -5 45.999 -8s30.833 -5.66699 46.5 -8s31.5 -3.5 47.5 -3.5c10 0 19.5 1.33301 28.5 4s17.833 6.33398 26.5 11.001l8 -13c-19.333 -11.333 -35.5 -24.333 -48.5 -39s-24.167 -32.334 -33.5 -53.001
c-13.333 -29.333 -24.166 -59.5 -32.499 -90.5s-16.166 -62.167 -23.499 -93.5h339l73 224c1.33301 6.66699 2 12.334 2 17.001c0 7.33301 -2.33301 13.666 -7 18.999s-11.334 8 -20.001 8h-33l5 16h191l-5 -16h-20c-20 0 -35.333 -3.66699 -46 -11
s-18.667 -19.666 -24 -36.999l-152 -471c-4 -12.667 -7.66699 -26 -11 -40s-5 -27.667 -5 -41c0 -20.667 5.16699 -38.167 15.5 -52.5s26.833 -21.5 49.5 -21.5c11.333 0 22 3.16699 32 9.5s19.333 14 28 23s16.167 18.833 22.5 29.5s11.166 20.667 14.499 30l14 -5
c-12 -31.333 -29.167 -57.5 -51.5 -78.5s-49.833 -31.5 -82.5 -31.5c-12 0 -23.333 2.5 -34 7.5s-19.667 11.667 -27 20s-13.166 17.833 -17.499 28.5s-6.5 21.667 -6.5 33c0 15.333 1.33301 30.833 4 46.5s6.33398 31.167 11.001 46.5l73 227h-337
c-10 -40 -21.333 -79.5 -34 -118.5s-30.334 -76.167 -53.001 -111.5c-23.333 -37.333 -49 -64.333 -77 -81s-57.667 -25 -89 -25z" />
    <glyph glyph-name="I" unicode="I" horiz-adv-x="382" 
d="M86 -60c-22 0 -41.8369 6.83203 -59.5039 20.499s-26.5 32.167 -26.5 55.5c0 13.333 3.16699 25.166 9.5 35.499s14.833 19.166 25.5 26.499l9 -13c-7.33301 -5.33301 -13.5 -11.833 -18.5 -19.5s-7.5 -16.167 -7.5 -25.5c0 -18.667 6.83301 -34 20.5 -46
s29.5 -18 47.5 -18c29.333 0 54.333 9.33301 75 28s38.167 41.5 52.5 68.5s25.833 55.5 34.5 85.5l22 78l18 72c12.667 52.667 30 100 52 142s51.667 82.667 89 122l-18.5 -4c-6.33301 -1.33301 -12.833 -2 -19.5 -2c-19.333 0 -36.833 1.33301 -52.5 4
s-31.167 5.66699 -46.5 9c-13.333 2.66699 -26.666 5.5 -39.999 8.5s-27 4.5 -41 4.5c-17.333 0 -33.666 -2.33301 -48.999 -7s-28.666 -11.334 -39.999 -20.001s-20.5 -19.667 -27.5 -33s-10.5 -28.333 -10.5 -45c0 -22 7.33301 -41.333 22 -58s33.334 -25 56.001 -25
c18 0 34.5 5.33301 49.5 16s25.167 24.667 30.5 42l15 -5c-7.33301 -23.333 -19.833 -40.5 -37.5 -51.5s-36.167 -16.5 -55.5 -16.5c-12.667 0 -25 2.16699 -37 6.5s-22.667 10.5 -32 18.5s-16.833 18.167 -22.5 30.5s-8.5 26.5 -8.5 42.5c0 21.333 4.83301 40 14.5 56
s22.334 29.5 38.001 40.5s33.5 19.167 53.5 24.5s40.333 8 61 8c21.333 0 40.666 -1.66699 57.999 -5s33.666 -6.66602 48.999 -9.99902c13.333 -3.33301 26.5 -6 39.5 -8s26.833 -3 41.5 -3c10 0 19.5 1.33301 28.5 4s17.833 6.33398 26.5 11.001l8 -13
c-19.333 -12 -35.166 -24.833 -47.499 -38.5s-23.833 -31.5 -34.5 -53.5c-10 -21.333 -18.833 -45.333 -26.5 -72s-15.5 -55.667 -23.5 -87l-20 -79c-4.66699 -19.333 -10.334 -40.166 -17.001 -62.499s-14.667 -44.666 -24 -66.999s-20.166 -43.833 -32.499 -64.5
s-26.833 -39 -43.5 -55s-35.5 -28.833 -56.5 -38.5s-44.5 -14.5 -70.5 -14.5z" />
    <glyph glyph-name="J" unicode="J" horiz-adv-x="459" 
d="M18 -258c0 -12.667 4.50098 -22.832 13.501 -30.499s18.167 -11.5 27.5 -11.5c25.333 0 48.166 8.16699 68.499 24.5s38.333 37 54 62s29.5 52.167 41.5 81.5s22.333 57.333 31 84c-26 -8 -53 -18 -81 -30s-53.5 -26.5 -76.5 -43.5s-41.833 -36.833 -56.5 -59.5
s-22 -48.334 -22 -77.001zM376.001 -23.998c-12 0 -24.167 -0.494141 -36.5 -1.49414s-21.833 -2.83301 -28.5 -5.5c-10.667 -32.667 -23.834 -65.834 -39.501 -99.501s-34 -64.334 -55 -92.001s-44.833 -50.334 -71.5 -68.001s-56.334 -26.5 -89.001 -26.5
c-14.667 0 -27.667 5.66699 -39 17s-17 26.333 -17 45c0 29.333 8 56.166 24 80.499s36.5 46 61.5 65s52.833 35.333 83.5 49s60.667 24.167 90 31.5l17.5 60l27 88.5l26.5 88.5l17 60c7.33301 27.333 17.166 56.333 29.499 87s26.5 60.334 42.5 89.001
c13.333 24.667 28 47.334 44 68.001s32 37.667 48 51l-26 -6c-15.333 -2.66699 -31.666 -4 -48.999 -4c-25.333 0 -50.333 1.83301 -75 5.5s-49.667 5.5 -75 5.5c-28 0 -55.5 -4.33301 -82.5 -13s-51 -21.334 -72 -38.001s-37.833 -36.834 -50.5 -60.501
s-19 -50.834 -19 -81.501c0 -15.333 2.83301 -30 8.5 -44s13.334 -26.333 23.001 -37s21.167 -19 34.5 -25s28 -9 44 -9c14 0 27.667 2.33301 41 7s25.333 11.667 36 21l10 -12c-24.667 -23.333 -54.667 -35 -90 -35c-17.333 0 -33.666 3.16699 -48.999 9.5
s-28.833 15.166 -40.5 26.499s-21 24.5 -28 39.5s-10.5 31.5 -10.5 49.5c0 35.333 7.83301 67.333 23.5 96s36.167 53.334 61.5 74.001s54 36.5 86 47.5s64.333 16.5 97 16.5c17.333 0 35.666 -1.16699 54.999 -3.5s38.333 -4.5 57 -6.5l41 -5.5
c12.667 -1.66699 23.667 -2.5 33 -2.5s19 1.5 29 4.5s19.333 6.16699 28 9.5l7 -14c-32 -18 -59.667 -50.667 -83 -98c-12 -23.333 -22.833 -50 -32.5 -80l-31.5 -99l-96 -313c20 4 40.333 6 61 6c28.667 0 53.5 -3.5 74.5 -10.5s38.5 -16 52.5 -27s24.5 -23.333 31.5 -37
s10.5 -27.5 10.5 -41.5c0 -24.667 -8.16699 -45.834 -24.5 -63.501s-40.5 -26.5 -72.5 -26.5c-20.667 0 -38.334 6.66699 -53.001 20l10 12c12.667 -11.333 27 -17 43 -17c24.667 0 42.834 6 54.501 18s17.5 26.333 17.5 43c0 12 -3.16699 24.667 -9.5 38
s-15.666 25.5 -27.999 36.5s-27.5 20 -45.5 27s-38.667 10.5 -62 10.5z" />
    <glyph glyph-name="K" unicode="K" horiz-adv-x="773" 
d="M405 288l-11 -0.000976562c-5.33301 0 -11.5 -1 -18.5 -3s-10.5 -6 -10.5 -12c0 -5.33301 3 -9.66602 9 -12.999s12.667 -6 20 -8zM451 251.999l20 6c-2.66699 2 -5.16699 4 -7.5 6s-4.83301 3.66699 -7.5 5zM1043 -234.001c-65.333 0 -121.829 11.3291 -169.496 33.9961
s-90.5 53.167 -128.5 91.5s-73.167 82.5 -105.5 132.5l-101.5 158c-9.33301 13.333 -18.166 25 -26.499 35s-16.833 19 -25.5 27c-13.333 -4 -26.666 -7 -39.999 -9c-10.667 -34.667 -25.5 -69.834 -44.5 -105.501s-41.833 -67.834 -68.5 -96.501s-57 -52.167 -91 -70.5
s-71 -27.5 -111 -27.5c-15.333 0 -30.666 2.33301 -45.999 7s-29.333 11.334 -42 20.001s-23 19.5 -31 32.5s-12 27.833 -12 44.5c0 20.667 6.66699 39.167 20 55.5s30.666 24.5 51.999 24.5c12 0 23.333 -3.66699 34 -11l-9 -12c-7.33301 5.33301 -15.666 8 -24.999 8
c-17.333 0 -31.166 -6.83301 -41.499 -20.5s-15.5 -28.5 -15.5 -44.5c0 -13.333 3.33301 -25.5 10 -36.5s15.334 -20.333 26.001 -28s22.5 -13.5 35.5 -17.5s25.5 -6 37.5 -6c27.333 0 54 6.83301 80 20.5s48.333 29.834 67 48.501c22 21.333 42.167 46.833 60.5 76.5
s33.166 62.5 44.499 98.5l13 42c-10 2.66699 -19.333 6.83398 -28 12.501s-13 13.5 -13 23.5c0 11.333 5.16699 19.333 15.5 24s20.166 7 29.499 7c3.33301 0 6.33301 -0.166992 9 -0.5s5.66699 -0.5 9 -0.5c8.66699 24 18.667 49 30 75s23.666 51 36.999 75
c11.333 21.333 23.5 40.833 36.5 58.5s26.833 32.834 41.5 45.501c-11.333 -4 -23.166 -7.5 -35.499 -10.5s-26.833 -4.5 -43.5 -4.5c-28 0 -55.167 3 -81.5 9s-53.166 9 -80.499 9c-25.333 0 -50.5 -3.5 -75.5 -10.5s-47.333 -17.667 -67 -32s-35.667 -32.166 -48 -53.499
s-18.5 -46.333 -18.5 -75c0 -31.333 10.5 -57.333 31.5 -78s47.167 -31 78.5 -31c14 0 28 2.33301 42 7s26.667 11.667 38 21l10 -11c-12 -11.333 -26.167 -20.333 -42.5 -27s-32.833 -10 -49.5 -10c-17.333 0 -33.666 3 -48.999 9s-28.833 14.167 -40.5 24.5
s-21 22.833 -28 37.5s-10.5 31 -10.5 49c0 36 8.33301 67.333 25 94s38.167 49 64.5 67s55.666 31.5 87.999 40.5s64.166 13.5 95.499 13.5c17.333 0 34.833 -1.33301 52.5 -4s34.834 -5.66699 51.501 -9l37 -5.5c11.333 -1.66699 21.666 -2.5 30.999 -2.5
c13.333 0 26 1.66699 38 5s24.333 7.33301 37 12l6 -14c-16.667 -9.33301 -31.834 -22.833 -45.501 -40.5s-26.167 -38.167 -37.5 -61.5c-14.667 -30 -27.167 -60.833 -37.5 -92.5s-20.166 -63.5 -29.499 -95.5c5.33301 -2.66699 10.5 -5.5 15.5 -8.5l15.5 -9.5
c14.667 8 28.5 17.333 41.5 28s25.167 21.667 36.5 33l52 54l73.5 74.5c25.667 25 52.667 47.667 81 68s58.5 36.833 90.5 49.5s66.333 19 103 19c9.33301 0 19.833 -1.33301 31.5 -4s22.5 -6.66699 32.5 -12s18.333 -12.166 25 -20.499s10 -18.166 10 -29.499
c0 -8 -2 -15.333 -6 -22l-13 7c2 4.66699 3 9.66699 3 15c0 8.66699 -3 16.167 -9 22.5s-13.333 11.5 -22 15.5s-17.834 7 -27.501 9s-17.834 3 -24.501 3c-24.667 0 -47.834 -4.66699 -69.501 -14s-42.167 -21 -61.5 -35s-37.666 -29.667 -54.999 -47l-50 -50l-50.5 -50
c-17.667 -17.333 -35.834 -34 -54.501 -50s-37.834 -30.833 -57.501 -44.5s-39.834 -25.167 -60.501 -34.5c28 -22.667 53.667 -48.167 77 -76.5l70 -84.5l83 -100.5c29.333 -35 60.166 -67 92.499 -96s66.666 -53 102.999 -72s74.5 -28.5 114.5 -28.5
c15.333 0 30.5 2.5 45.5 7.5s28.5 12.333 40.5 22s21.667 21 29 34s11 27.5 11 43.5c0 21.333 -6.66699 40.166 -20 56.499s-31 24.5 -53 24.5c-3.33301 0 -8.33301 -0.666992 -15 -2l-4 15c3.33301 0.666992 6.5 1.16699 9.5 1.5s6.16699 0.5 9.5 0.5
c12.667 0 24.5 -2.66699 35.5 -8s20.333 -12.5 28 -21.5s13.667 -19.167 18 -30.5s6.5 -23.333 6.5 -36c0 -18.667 -3.66699 -36.334 -11 -53.001s-17.5 -31.167 -30.5 -43.5s-28.667 -22.166 -47 -29.499s-38.833 -11 -61.5 -11z" />
    <glyph glyph-name="L" unicode="L" horiz-adv-x="440" 
d="M95 -6c-22 0 -40.167 -3.66699 -54.5 -11s-21.5 -15.666 -21.5 -24.999c0 -7.33301 4.5 -12.833 13.5 -16.5s17.5 -5.5 25.5 -5.5c18 0 35 4.16699 51 12.5s31.667 20.166 47 35.499c-11.333 3.33301 -22.333 5.83301 -33 7.5s-20 2.5 -28 2.5zM597 589
c18 0 35.5078 -2.49512 52.5078 -7.49512s32.167 -12.167 45.5 -21.5s24 -21.166 32 -35.499s12 -30.833 12 -49.5c0 -12 -2.33301 -23.667 -7 -35s-10.834 -21.5 -18.501 -30.5s-16.834 -16.167 -27.501 -21.5s-22 -8 -34 -8c-14 0 -27.333 3.83301 -40 11.5
s-22.667 17.5 -30 29.5l13 8c5.33301 -10 13.333 -18.167 24 -24.5s21.667 -9.5 33 -9.5c10 0 18.833 2.5 26.5 7.5s14.334 11.5 20.001 19.5s10 16.667 13 26s4.5 18.333 4.5 27c0 16 -3.5 30.167 -10.5 42.5s-16.333 22.666 -28 30.999s-24.5 14.833 -38.5 19.5
s-28 7 -42 7c-29.333 0 -55.833 -7 -79.5 -21s-44.834 -31.833 -63.501 -53.5s-34.834 -45.5 -48.501 -71.5s-24.834 -51 -33.501 -75c-2.66699 -7.33301 -5.16699 -14.666 -7.5 -21.999s-5.16602 -15 -8.49902 -23l-27 -77.5c-10 -27.667 -21 -55.334 -33 -83.001
s-25.333 -54.5 -40 -80.5s-31 -49.333 -49 -70c27.333 -8 54.166 -17.833 80.499 -29.5s52.5 -24.167 78.5 -37.5l77 -41.5l76 -41.5l44.5 -25c15 -8.66699 30.333 -16.667 46 -24s31.5 -13.333 47.5 -18s32 -7 48 -7c15.333 0 30.166 2.33301 44.499 7
s27.166 11.5 38.499 20.5s20.333 20.167 27 33.5s10 28.666 10 45.999c0 10 -1.66699 20.167 -5 30.5s-8.33301 19.666 -15 27.999s-14.5 15.166 -23.5 20.499s-19.167 8 -30.5 8c-6.66699 0 -11.667 -0.333008 -15 -1l-4 15c3.33301 0.666992 6.5 1.16699 9.5 1.5
s6.16699 0.5 9.5 0.5c13.333 0 25.5 -3 36.5 -9s20.333 -13.833 28 -23.5s13.667 -20.667 18 -33s6.5 -24.833 6.5 -37.5c0 -19.333 -3.83301 -36.666 -11.5 -51.999s-17.667 -28.333 -30 -39s-26.666 -18.834 -42.999 -24.501s-33.166 -8.5 -50.499 -8.5
c-29.333 0 -57.666 2.66699 -84.999 8s-53.833 12.833 -79.5 22.5s-50.667 20.667 -75 33s-48.5 25.5 -72.5 39.5c-34 20 -67.833 41.167 -101.5 63.5s-69.167 39.833 -106.5 52.5c-18 -17.333 -37.833 -31 -59.5 -41s-45.167 -15 -70.5 -15
c-5.33301 0 -11.166 0.666992 -17.499 2s-12.333 3.5 -18 6.5s-10.334 6.83301 -14.001 11.5s-5.5 10.334 -5.5 17.001c0 11.333 4.16699 20.833 12.5 28.5s18.166 13.667 29.499 18s23.166 7.5 35.499 9.5s22.5 3 30.5 3c10.667 0 21.667 -0.833008 33 -2.5
s22.666 -3.83398 33.999 -6.50098c24.667 31.333 44 65.166 58 101.499s27 73.166 39 110.499c12.667 41.333 27.167 83.833 43.5 127.5s36.666 83.5 60.999 119.5s54.166 65.5 89.499 88.5s79 34.5 131 34.5z" />
    <glyph glyph-name="M" unicode="M" horiz-adv-x="1054" 
d="M412 91c-18 39.333 -45.499 69.1689 -82.499 89.502s-77.167 30.5 -120.5 30.5c-20 0 -40.833 -3 -62.5 -9s-41.334 -14.833 -59.001 -26.5s-32.167 -26.334 -43.5 -44.001s-17 -38.167 -17 -61.5c0 -20 4 -38.167 12 -54.5s18.833 -30.333 32.5 -42
s29.167 -20.667 46.5 -27s35.333 -9.5 54 -9.5c26.667 0 51.5 4.16699 74.5 12.5s44.333 19.666 64 33.999s38 30.833 55 49.5s32.5 38 46.5 58zM513.001 246.003c-24 -55.333 -49.999 -104.337 -77.999 -147.004c5.33301 -11.333 9.5 -23.5 12.5 -36.5
s4.5 -26.833 4.5 -41.5c0 -40.667 -12.333 -76.334 -37 -107.001s-57.334 -52.667 -98.001 -66l-5 15c36 13.333 64.167 33.5 84.5 60.5s30.5 58.5 30.5 94.5c0 10 -0.833008 19.5 -2.5 28.5s-3.83398 18.167 -6.50098 27.5c-14.667 -20.667 -30.667 -40.167 -48 -58.5
s-36.166 -34.5 -56.499 -48.5s-42.333 -25 -66 -33s-48.834 -12 -75.501 -12c-20 0 -40.167 3.16699 -60.5 9.5s-38.833 15.5 -55.5 27.5s-30.167 26.667 -40.5 44s-15.5 37.333 -15.5 60c0 26.667 6.5 50.334 19.5 71.001s29.833 37.834 50.5 51.501s43.5 24 68.5 31
s49.167 10.5 72.5 10.5c22 0 43.5 -2.16699 64.5 -6.5s41 -11.166 60 -20.499s36.333 -21 52 -35s28.834 -30.667 39.501 -50c13.333 20 25.833 41.5 37.5 64.5s23.167 47.167 34.5 72.5l133 298c-8 -1.33301 -15.833 -2 -23.5 -2h-22.5
c-9.33301 0 -18.833 0.166992 -28.5 0.5s-19.5 0.833008 -29.5 1.5s-19.833 1.16699 -29.5 1.5s-19.5 0.5 -29.5 0.5c-20.667 0 -41.667 -2.83301 -63 -8.5s-40.5 -14.167 -57.5 -25.5s-31 -25.833 -42 -43.5s-16.5 -38.5 -16.5 -62.5c0 -15.333 2.83301 -29.333 8.5 -42
s13.5 -23.5 23.5 -32.5s21.5 -16 34.5 -21s26.833 -7.5 41.5 -7.5c13.333 0 26.666 2.16699 39.999 6.5s26 11.5 38 21.5l10 -12c-15.333 -13.333 -31.5 -23 -48.5 -29s-33.833 -9 -50.5 -9c-35.333 0 -63 11.5 -83 34.5s-30 51.5 -30 85.5c0 32 6.66699 59.333 20 82
s30.833 41.334 52.5 56.001s46.167 25.334 73.5 32.001s54.666 10 81.999 10c21.333 0 42.5 -1.83301 63.5 -5.5s42.167 -5.5 63.5 -5.5c6.66699 0 13.334 0.333008 20.001 1s13.334 1.66699 20.001 3l26 -522l69 128.5c24 45 49.333 89.5 76 133.5s54.667 85.833 84 125.5
s60 74.5 92 104.5c11.333 10.667 22 19.834 32 27.501s19.667 13.167 29 16.5l7 -13c-6.66699 -4.66699 -12 -10.667 -16 -18c-2.66699 -4 -4.66699 -8.33301 -6 -13s-2.66602 -10.334 -3.99902 -17.001l-112 -533c-1.33301 -8 -2.83301 -16.167 -4.5 -24.5
s-2.5 -16.5 -2.5 -24.5c0 -12.667 2.66699 -23.334 8 -32.001s14.666 -13 27.999 -13c8.66699 0 16.834 2 24.501 6s14.5 9.33301 20.5 16s11 13.834 15 21.501s7 15.5 9 23.5l15 -3c-2.66699 -12 -7.66699 -23.667 -15 -35s-16 -21.5 -26 -30.5s-21 -16.167 -33 -21.5
s-24.333 -8 -37 -8c-17.333 0 -31.166 7 -41.499 21s-15.5 30.333 -15.5 49c0 7.33301 0.666992 15 2 23l4 23l106 511c-20.667 -22 -42.334 -48.5 -65.001 -79.5s-45.334 -64.5 -68.001 -100.5l-62.5 -102l-57 -101l-48 -92.5l-36.5 -76.5h-17l-25 546z" />
    <glyph glyph-name="N" unicode="N" horiz-adv-x="977" 
d="M135 -119c32.667 0 62.498 10.335 89.498 31.002s51.5 45.667 73.5 75s41.333 60.333 58 93l42 85l188 393c-8.66699 -4 -17.5 -6.83301 -26.5 -8.5s-18.167 -2.5 -27.5 -2.5c-21.333 0 -42.5 1.33301 -63.5 4s-42.167 4 -63.5 4s-42.166 -3.16699 -62.499 -9.5
s-38.666 -15.833 -54.999 -28.5s-29.5 -28 -39.5 -46s-15 -38.333 -15 -61c0 -14 2.5 -28 7.5 -42s12 -26.5 21 -37.5s19.667 -20 32 -27s26.166 -10.5 41.499 -10.5c21.333 0 41 6 59 18l8 -13c-20 -14 -43 -21 -69 -21c-17.333 0 -33.5 3.33301 -48.5 10
s-28 15.5 -39 26.5s-19.833 24 -26.5 39s-10 31.167 -10 48.5c0 27.333 6.33301 52 19 74s29 40.833 49 56.5s42.667 27.667 68 36s50.666 12.5 75.999 12.5c22.667 0 45.167 -1.16699 67.5 -3.5s44.833 -3.5 67.5 -3.5c10.667 0 20.334 1.5 29.001 4.5
s17.667 6.83301 27 11.5l197 -564l111 331c7.33301 22 15.166 44 23.499 66s17.833 43.167 28.5 63.5s22.834 39.666 36.501 57.999s29.834 35.5 48.501 51.5l20 -18c-20 -14.667 -37.167 -30.5 -51.5 -47.5s-27 -35 -38 -54s-20.667 -38.833 -29 -59.5
s-16.166 -42.334 -23.499 -65.001l-134 -400h-15l-200 571l-184 -393c-12 -25.333 -26.167 -53.666 -42.5 -84.999s-35.166 -60.833 -56.499 -88.5s-45.333 -50.834 -72 -69.501s-56.334 -28 -89.001 -28c-30 0 -56.833 8.5 -80.5 25.5s-44.167 37.167 -61.5 60.5l12 9
c15.333 -20 33.166 -37 53.499 -51s43.5 -21 69.5 -21z" />
    <glyph glyph-name="O" unicode="O" horiz-adv-x="789" 
d="M400 580c-41.333 0 -81.001 -7.00098 -119.001 -21.001s-71.5 -33.667 -100.5 -59s-52 -55.833 -69 -91.5s-25.5 -74.834 -25.5 -117.501c0 -51.333 7.5 -97.166 22.5 -137.499s36.333 -74.666 64 -102.999s60.834 -50 99.501 -65s82 -22.5 130 -22.5
c42 0 81.333 6.83301 118 20.5s68.667 33.167 96 58.5s49 55.833 65 91.5s24 75.5 24 119.5c0 48 -7.33301 92 -22 132s-35.167 74.5 -61.5 103.5s-58.333 51.5 -96 67.5s-79.5 24 -125.5 24zM406.999 597.999c46 0 90.168 -7.33398 132.501 -22.001
s79.666 -35.834 111.999 -63.501s58 -61.167 77 -100.5s28.5 -83.333 28.5 -132c0 -50 -10 -95.667 -30 -137s-46.667 -76.666 -80 -105.999s-71.5 -52.166 -114.5 -68.499s-87.833 -24.5 -134.5 -24.5c-47.333 0 -93 8 -137 24s-83 38.5 -117 67.5
s-61.167 64.167 -81.5 105.5s-30.5 87 -30.5 137c0 48 10.167 91.667 30.5 131s47.833 73 82.5 101s74.5 49.667 119.5 65s92.5 23 142.5 23z" />
    <glyph glyph-name="P" unicode="P" horiz-adv-x="729" 
d="M519 575c-8 -11.333 -14.3301 -23.1641 -18.9971 -35.4971s-8.66699 -25.166 -12 -38.499l-90 -317c-5.33301 -20 -12.166 -41.833 -20.499 -65.5s-18 -47.334 -29 -71.001s-23.5 -46.334 -37.5 -68.001s-29.833 -41 -47.5 -58s-37.334 -30.5 -59.001 -40.5
s-45.5 -15 -71.5 -15c-14 0 -27.5 2.16699 -40.5 6.5s-24.667 10.5 -35 18.5s-18.5 17.833 -24.5 29.5s-9 25.167 -9 40.5c0 20 6.33301 37 19 51s28.667 23.667 48 29l3 -15c-15.333 -4 -28.333 -11.667 -39 -23s-16 -25.333 -16 -42c0 -13.333 2.66699 -24.833 8 -34.5
s12.5 -17.834 21.5 -24.501s19 -11.667 30 -15s22.5 -5 34.5 -5c30 0 55.667 8.5 77 25.5s39.5 38 54.5 63s27.333 51.667 37 80s17.834 54.166 24.501 77.499l107 358c5.33301 16 11.166 31.833 17.499 47.5s14.166 30.834 23.499 45.501h-8
c-42.667 0 -84.5 -6.66699 -125.5 -20s-77.5 -31.666 -109.5 -54.999c-29.333 -22 -52.666 -47.667 -69.999 -77s-26 -61 -26 -95c0 -16 2.16699 -31.167 6.5 -45.5s11 -27 20 -38s19.833 -19.667 32.5 -26s27.667 -9.5 45 -9.5c10 0 20 1.83301 30 5.5
s19.333 8.16699 28 13.5l8 -14c-9.33301 -6 -19.833 -10.833 -31.5 -14.5s-23.167 -5.5 -34.5 -5.5c-20 0 -38.167 3.5 -54.5 10.5s-30.333 16.667 -42 29s-20.834 26.833 -27.501 43.5s-10 34.667 -10 54c0 34.667 10 67.667 30 99s46.667 58.666 80 81.999
c34.667 25.333 73.834 45.166 117.501 59.499s87.834 21.5 132.501 21.5c42 0 78.667 -4.5 110 -13.5s57.666 -21.167 78.999 -36.5c25.333 -18 44.166 -39.167 56.499 -63.5s18.5 -49.5 18.5 -75.5c0 -30 -6.66699 -57.5 -20 -82.5s-31 -46.333 -53 -64
s-46.833 -31.334 -74.5 -41.001s-55.5 -14.5 -83.5 -14.5c-10 0 -20 0.833008 -30 2.5s-19.667 3.83398 -29 6.50098l3 15c7.33301 -1.33301 15 -2.5 23 -3.5s16 -1.5 24 -1.5c24.667 0 48.5 4 71.5 12s43.5 19.5 61.5 34.5s32.333 33.167 43 54.5s16 45 16 71
c0 24 -4.16699 46 -12.5 66s-19.833 37.5 -34.5 52.5s-31.834 27.667 -51.501 38s-40.834 17.5 -63.501 21.5z" />
    <glyph glyph-name="Q" unicode="Q" horiz-adv-x="784" 
d="M214 88c-13.333 0 -25.0029 -1.33105 -35.0029 -3.99805l-4 15c20 6 40.333 9 61 9c24 0 47 -4 69 -12s43.167 -18.333 63.5 -31s39.833 -27.167 58.5 -43.5s36.334 -32.833 53.001 -49.5c32.667 8 62.5 20.5 89.5 37.5s50.167 37.667 69.5 62s34.333 52.166 45 83.499
s16 65.333 16 102c0 44 -7.16699 85.667 -21.5 125s-34.666 73.666 -60.999 102.999s-58.166 52.5 -95.499 69.5s-79 25.5 -125 25.5c-41.333 0 -81 -7.16699 -119 -21.5s-71.333 -34.5 -100 -60.5s-51.5 -56.833 -68.5 -92.5s-25.5 -74.5 -25.5 -116.5
c0 -46 7.66699 -88.833 23 -128.5s36.833 -74.167 64.5 -103.5s61 -52.333 100 -69s82.167 -25 129.5 -25h8l-41.5 45.5c-13.667 15 -28 28.333 -43 40s-31.5 21.167 -49.5 28.5s-38.333 11 -61 11zM404.997 598.002c46 0 90.1631 -7.16602 132.496 -21.499
s79.5 -35.166 111.5 -62.499s57.667 -60.5 77 -99.5s29 -82.833 29 -131.5c0 -41.333 -6.66699 -79.5 -20 -114.5s-31.833 -66.5 -55.5 -94.5s-51.334 -51.833 -83.001 -71.5s-65.5 -34.5 -101.5 -44.5l79 -82c27.333 -28.667 56 -55.5 86 -80.5s61.833 -46.5 95.5 -64.5
s69.834 -29.333 108.501 -34l-1 -15c-32 1.33301 -63.5 6.83301 -94.5 16.5s-61.5 22.5 -91.5 38.5c-49.333 26.667 -94.166 58 -134.499 94s-79.166 74 -116.499 114c-5.33301 0 -10.833 -0.166992 -16.5 -0.5s-11.167 -0.5 -16.5 -0.5
c-47.333 0 -92.666 7.66699 -135.999 23s-81.666 37.166 -114.999 65.499s-60 62.666 -80 102.999s-30 85.5 -30 135.5c0 48.667 10.833 93 32.5 133s50 74.333 85 103s74.833 51 119.5 67s90 24 136 24z" />
    <glyph glyph-name="R" unicode="R" horiz-adv-x="814" 
d="M405 297c2.66699 7.33301 5.16797 14.668 7.50098 22.001s5.16602 14.666 8.49902 21.999c-6 2 -12.333 3 -19 3c-5.33301 0 -10.833 -1.16699 -16.5 -3.5s-8.5 -6.83301 -8.5 -13.5c0 -7.33301 2.66699 -13.333 8 -18s12 -8.66699 20 -12zM458.001 286.002h32l-12 14
c-4 4.66699 -8.33301 9 -13 13zM306.001 373.002c0 10 -1.33789 19 -4.00488 27l15 4c1.33301 -5.33301 2.33301 -10.5 3 -15.5s1 -10.167 1 -15.5c0 -16 -2.83301 -31 -8.5 -45s-13.334 -26.167 -23.001 -36.5s-21.334 -18.5 -35.001 -24.5s-28.5 -9 -44.5 -9
c-17.333 0 -33.666 2.83301 -48.999 8.5s-28.833 13.834 -40.5 24.501s-21 23.167 -28 37.5s-10.5 30.5 -10.5 48.5c0 32 7 61 21 87s33.333 48.667 58 68c25.333 19.333 54.5 34.666 87.5 45.999s68.5 17 106.5 17c29.333 0 58.166 -3.5 86.499 -10.5
s56.833 -10.5 85.5 -10.5c13.333 0 26 1.66699 38 5s24.333 7.33301 37 12l6 -14c-16.667 -9.33301 -31.834 -22.833 -45.501 -40.5s-26.167 -38.167 -37.5 -61.5c-9.33301 -19.333 -18.166 -40.5 -26.499 -63.5s-16.5 -47.167 -24.5 -72.5c10.667 -6 21 -13.167 31 -21.5
s20.333 -17.5 31 -27.5c26 4 52.333 11.833 79 23.5s50.5 26.667 71.5 45s38.167 39.833 51.5 64.5s20 52 20 82c0 12.667 -2.33301 23.5 -7 32.5s-11 16.5 -19 22.5s-17.167 10.5 -27.5 13.5s-20.833 4.5 -31.5 4.5c-18.667 0 -36.667 -4.33301 -54 -13l-6 15
c9.33301 4.66699 19.833 8.33398 31.5 11.001s23.834 4 36.501 4c16 0 31.667 -2 47 -6s29.333 -10.167 42 -18.5s22.834 -18.833 30.501 -31.5s11.5 -28 11.5 -46c0 -32 -8.66699 -60.667 -26 -86s-39 -47.166 -65 -65.499s-54.333 -33 -85 -44
s-59.334 -18.5 -86.001 -22.5c11.333 -12.667 24.333 -28.167 39 -46.5l44 -57.5l43 -58.5l37 -49.5l68 -86c24 -29.333 50.167 -56 78.5 -80s59 -43.5 92 -58.5s69.167 -22.5 108.5 -22.5c14.667 0 30.334 2.5 47.001 7.5s31.667 12.333 45 22s24.5 21.334 33.5 35.001
s13.5 29.167 13.5 46.5s-5 33.666 -15 48.999l13 8c11.333 -16.667 17 -35.667 17 -57c0 -19.333 -4.83301 -37.166 -14.5 -53.499s-22.167 -30.5 -37.5 -42.5s-32.333 -21.333 -51 -28s-37 -10 -55 -10c-56.667 0 -105.5 8.16699 -146.5 24.5s-77.333 37.833 -109 64.5
s-59.834 57 -84.501 91l-74 105l-30.5 44l-38 53l-38.5 52.5l-32 43.5c-4.66699 -0.666992 -9 -1 -13 -1h-14h-12c-4 0 -7.66699 0.333008 -11 1l-10 -32c-10 -34.667 -24.5 -70 -43.5 -106s-42 -68.667 -69 -98s-57.5 -53.333 -91.5 -72s-71.333 -28 -112 -28
c-14.667 0 -29.5 2 -44.5 6s-28.667 10.167 -41 18.5s-22.333 18.666 -30 30.999s-11.5 26.833 -11.5 43.5c0 20.667 7 39.167 21 55.5s31.667 24.5 53 24.5c12 0 23.667 -3.66699 35 -11l-9 -13c-8 6 -16.667 9 -26 9c-17.333 0 -31.5 -6.83301 -42.5 -20.5
s-16.5 -28.5 -16.5 -44.5c0 -14.667 3.33301 -27.167 10 -37.5s15.334 -18.833 26.001 -25.5s22.5 -11.5 35.5 -14.5s25.833 -4.5 38.5 -4.5c30.667 0 59.334 7.83301 86.001 23.5s50.5 35.5 71.5 59.5s39.167 50.167 54.5 78.5s27 55.5 35 81.5l28 87l-5 2
c-23.333 10 -35 24.333 -35 43c0 11.333 4.33301 19.666 13 24.999s18.334 8 29.001 8c8 0 16.667 -1 26 -3c6.66699 16 13.834 32.167 21.501 48.5s15.834 32.166 24.501 47.499c11.333 21.333 23.666 40.833 36.999 58.5s27 32.834 41 45.501
c-11.333 -4 -23.166 -7.5 -35.499 -10.5s-26.833 -4.5 -43.5 -4.5c-28 0 -55.167 3 -81.5 9s-53.166 9 -80.499 9c-30 0 -57.833 -4.33301 -83.5 -13s-48.167 -21 -67.5 -37c-17.333 -15.333 -31.333 -33.333 -42 -54s-16 -43.667 -16 -69c0 -32 10.5 -58.333 31.5 -79
s47.167 -31 78.5 -31c27.333 0 49.833 9.16699 67.5 27.5s26.5 41.166 26.5 68.499z" />
    <glyph glyph-name="S" unicode="S" horiz-adv-x="513" 
d="M516 435c12 10 17.999 22.3369 17.999 37.0039c0 16.667 -4 31.5 -12 44.5s-18.167 24 -30.5 33s-26 16 -41 21s-29.833 7.5 -44.5 7.5c-15.333 0 -30.833 -2.16699 -46.5 -6.5s-29.667 -10.833 -42 -19.5s-22.333 -19.5 -30 -32.5s-11.5 -28.167 -11.5 -45.5
c0 -14 2.5 -27 7.5 -39s11.5 -23.167 19.5 -33.5s16.833 -20 26.5 -29l28.5 -26.5c16 -14 31 -28 45 -42s26.333 -29 37 -45s19 -33.333 25 -52s9 -39.334 9 -62.001c0 -30.667 -6.83301 -58.334 -20.5 -83.001s-31.5 -45.834 -53.5 -63.501s-47 -31.167 -75 -40.5
s-56 -14 -84 -14c-21.333 0 -42.333 2.5 -63 7.5s-40.334 12.5 -59.001 22.5s-35.667 22.333 -51 37s-28 31.667 -38 51l-16 -40l-14 6l61 155l14 -5c-4 -10 -7.16699 -19.833 -9.5 -29.5s-3.5 -19.834 -3.5 -30.501c0 -24 5.16699 -45.667 15.5 -65s23.833 -36 40.5 -50
s35.834 -24.833 57.501 -32.5s43.5 -11.5 65.5 -11.5c24 0 47.5 4.33301 70.5 13s43.167 20.667 60.5 36s31.333 33.5 42 54.5s16 44.167 16 69.5c0 16.667 -2.33301 32.167 -7 46.5s-11 27.666 -19 39.999s-17.333 24 -28 35s-22 21.833 -34 32.5l-37 33
c-12.667 11.333 -24.5 23.5 -35.5 36.5s-20 26.833 -27 41.5s-10.5 31 -10.5 49c0 24 5 45.167 15 63.5s23.333 33.833 40 46.5s35.334 22.334 56.001 29.001s41.667 10 63 10c29.333 0 57.5 -6.33301 84.5 -19s48.833 -31 65.5 -55l13 32l14 -6l-37 -95
c-4 -11.333 -10.667 -21 -20 -29l-10 12v0z" />
    <glyph glyph-name="T" unicode="T" horiz-adv-x="622" 
d="M410 339c9.33301 -18.667 14.002 -37.999 14.002 -57.999c0 -24 -5.66699 -45.5 -17 -64.5s-25.833 -35 -43.5 -48s-37.334 -22.833 -59.001 -29.5s-43.167 -10 -64.5 -10c-28 0 -55 5 -81 15s-49 24 -69 42s-36 39.333 -48 64s-18 51.667 -18 81
c0 40 9.16699 76.5 27.5 109.5s42.166 61.167 71.499 84.5s62.333 41.333 99 54s73.334 19 110.001 19c48 0 88.167 -1.5 120.5 -4.5s61.666 -6.5 87.999 -10.5s51.666 -7.5 75.999 -10.5s52.166 -4.5 83.499 -4.5c6.66699 0 15.834 1.16699 27.501 3.5s20.5 5.5 26.5 9.5
l8 -18c-29.333 -12.667 -54 -30.5 -74 -53.5s-37 -48.5 -51 -76.5s-25.5 -57.333 -34.5 -88l-24.5 -87c-2.66699 -10.667 -5.33398 -20.667 -8.00098 -30l-8 -28c-10 -34 -24.167 -67.167 -42.5 -99.5s-40.333 -61 -66 -86s-54.834 -45 -87.501 -60
s-68.667 -22.5 -108 -22.5c-12 0 -24.5 1.83301 -37.5 5.5s-24.833 9.16699 -35.5 16.5s-19.5 16.333 -26.5 27s-10.5 23 -10.5 37c0 11.333 2.66699 22.333 8 33l14 -8c-4 -7.33301 -6 -15.666 -6 -24.999c0 -11.333 3 -21.333 9 -30s13.667 -15.834 23 -21.501
s19.5 -10 30.5 -13s21.5 -4.5 31.5 -4.5c34 0 63.833 6.16699 89.5 18.5s48 29 67 50s35.333 45.167 49 72.5s25.5 55.666 35.5 84.999c3.33301 9.33301 6.5 18.833 9.5 28.5l9.5 30.5c8.66699 28 18 56.667 28 86s21.667 57.5 35 84.5s28.833 52.333 46.5 76
s38.834 44.167 63.501 61.5c-15.333 -2 -31.666 -3 -48.999 -3c-29.333 0 -60.833 1.83301 -94.5 5.5s-66.5 7.83398 -98.5 12.501c-25.333 3.33301 -49.166 6.33301 -71.499 9s-41.166 4 -56.499 4c-35.333 0 -69 -4.66699 -101 -14s-60.333 -23.333 -85 -42
s-44.334 -42.167 -59.001 -70.5s-22 -61.5 -22 -99.5c0 -28 5.16699 -54.167 15.5 -78.5s24.5 -45.333 42.5 -63s39.167 -31.5 63.5 -41.5s50.5 -15 78.5 -15c18 0 36.167 3.5 54.5 10.5s35 16.5 50 28.5s27.167 26.167 36.5 42.5s14 34.166 14 53.499
c0 18.667 -4.33301 35.667 -13 51l14 7v0z" />
    <glyph glyph-name="U" unicode="U" horiz-adv-x="795" 
d="M434 588c-10 0 -21.333 -3 -34 -9s-23.667 -13 -33 -21c5.33301 -1.33301 10.5 -2.33301 15.5 -3s10.167 -1 15.5 -1c12.667 0 24 2.66699 34 8s15 11.333 15 18c0 5.33301 -4.33301 8 -13 8zM434 604c8 0 15.0039 -2.16797 21.0039 -6.50098s9 -10.166 9 -17.499
c0 -11.333 -6 -21 -18 -29s-28 -12 -48 -12c-16 0 -32.333 1 -49 3c-12.667 -12.667 -24.834 -27.334 -36.501 -44.001s-23.167 -34.667 -34.5 -54c-23.333 -42 -42.5 -88.667 -57.5 -140s-22.5 -101.666 -22.5 -150.999c0 -18 2.16699 -37.667 6.5 -59
s11.5 -41.166 21.5 -59.499s22.833 -33.5 38.5 -45.5s34.834 -18 57.501 -18c34.667 0 65.5 8.83301 92.5 26.5s51 39.834 72 66.501s39.167 55.5 54.5 86.5s29 59.833 41 86.5l157 358h51l-129 -452c-5.33301 -18 -10 -36.667 -14 -56s-6 -38.666 -6 -57.999
c0 -6.66699 0.5 -13.834 1.5 -21.501s3 -14.834 6 -21.501s7.33301 -12.167 13 -16.5s12.834 -6.5 21.501 -6.5c10.667 0 21.167 4.16699 31.5 12.5s19.833 18.5 28.5 30.5s16.167 24.5 22.5 37.5s11.166 23.833 14.499 32.5l15 -6c-4 -12.667 -10 -26.667 -18 -42
s-17.333 -29.5 -28 -42.5s-22.667 -23.833 -36 -32.5s-27.666 -13 -42.999 -13c-28 0 -48.167 9.33301 -60.5 28s-18.5 40.667 -18.5 66c0 22.667 2.5 45.167 7.5 67.5s10.833 44.166 17.5 65.499l104 347l-124 -283c-12.667 -29.333 -27.334 -60.666 -44.001 -93.999
s-36 -64.166 -58 -92.499s-47.5 -52 -76.5 -71s-62.167 -28.5 -99.5 -28.5c-28.667 0 -53.667 5.66699 -75 17s-39.166 26.5 -53.499 45.5s-25 40.667 -32 65s-10.5 49.5 -10.5 75.5c0 22 2.66699 45.667 8 71s12.5 50.833 21.5 76.5s19.667 51.167 32 76.5
s25.833 49.666 40.5 72.999c12 19.333 24.667 37.5 38 54.5s26.666 32.167 39.999 45.5c-15.333 2 -29.5 4.33301 -42.5 7l-38.5 8c-12.667 2.66699 -25.334 5 -38.001 7s-26 3 -40 3c-15.333 0 -30.5 -2.83301 -45.5 -8.5s-28.833 -13.334 -41.5 -23.001
s-22.834 -21 -30.501 -34s-11.5 -27.167 -11.5 -42.5c0 -21.333 7.83301 -39.166 23.5 -53.499s34.167 -21.5 55.5 -21.5c20.667 0 38.834 7.16699 54.501 21.5s23.5 32.166 23.5 53.499h16c0 -12.667 -2.5 -24.5 -7.5 -35.5s-11.833 -20.667 -20.5 -29
s-18.667 -14.833 -30 -19.5s-23.333 -7 -36 -7s-24.667 2.33301 -36 7s-21.333 11.167 -30 19.5s-15.5 18 -20.5 29s-7.5 22.833 -7.5 35.5c0 22 5.33301 41.5 16 58.5s24.167 31.167 40.5 42.5s34.666 19.833 54.999 25.5s40.166 8.5 59.499 8.5c28 0 54 -3.83301 78 -11.5
s48.667 -15.167 74 -22.5c12 10 25.667 19.333 41 28s30.666 13 45.999 13z" />
    <glyph glyph-name="V" unicode="V" horiz-adv-x="643" 
d="M345 566c-13.333 -2 -26.667 -3.00098 -40 -3.00098c-22.667 0 -45 2.66699 -67 8s-44.667 8 -68 8c-14 0 -28 -2.5 -42 -7.5s-26.333 -12.167 -37 -21.5s-19.334 -20.333 -26.001 -33s-10 -26.667 -10 -42c0 -23.333 7.16699 -43.833 21.5 -61.5s33.5 -26.5 57.5 -26.5
c11.333 0 23 2.66699 35 8s22.333 11.666 31 18.999l11 -11c-25.333 -22 -54 -33 -86 -33c-27.333 0 -49.666 9 -66.999 27s-26 40.667 -26 68c0 22 4.83301 41.333 14.5 58s22.334 30.5 38.001 41.5s33.167 19.333 52.5 25s39 8.5 59 8.5c25.333 0 49.666 -2.5 72.999 -7.5
s47.333 -7.5 72 -7.5c8.66699 0 16.5 1 23.5 3s14.167 5 21.5 9l6 -17c-14.667 -6.66699 -27.167 -15.667 -37.5 -27s-18.833 -24 -25.5 -38s-11.5 -28.667 -14.5 -44s-4.5 -30.666 -4.5 -45.999c0 -21.333 1.5 -42.333 4.5 -63s7.16699 -41 12.5 -61
c9.33301 -38.667 16.666 -78 21.999 -118s8 -80 8 -120c0 -11.333 -0.166992 -22.333 -0.5 -33s-0.833008 -21.667 -1.5 -33c54 103.333 110.667 204.5 170 303.5s123.333 196.167 192 291.5l26 -11c-75.333 -99.333 -145.5 -202.166 -210.5 -308.499
s-127.167 -214.833 -186.5 -325.5l-15 4c0 40 -3.16699 76.5 -9.5 109.5s-13.166 65.833 -20.499 98.5c-7.33301 34 -14.333 69 -21 105s-10 76 -10 120c0 32 6.5 65 19.5 99s31.5 62.333 55.5 85z" />
    <glyph glyph-name="W" unicode="W" horiz-adv-x="978" 
d="M866 342c22.667 6 45.3301 16.832 67.9971 32.499s43.334 33.5 62.001 53.5s33.834 41.333 45.501 64s17.5 44.334 17.5 65.001c-0.666992 5.33301 -2.33398 10 -5.00098 14s-6.66699 6 -12 6c-10 0 -20.167 -4 -30.5 -12s-21.166 -18.667 -32.499 -32
c-23.333 -28.667 -43.666 -59.667 -60.999 -93zM636.996 589.999l15.002 -2.99707l35 -527l137 258h-17c-12 0 -24.667 1.5 -38 4.5s-25.5 7.66699 -36.5 14s-20.167 14.5 -27.5 24.5s-11 22.333 -11 37c0 18 6 34.333 18 49s27.667 22 47 22c14.667 0 27.667 -5 39 -15
l-10 -11c-8.66699 7.33301 -18.334 11 -29.001 11c-13.333 0 -24.166 -5 -32.499 -15s-12.5 -21.667 -12.5 -35c0 -11.333 3.16699 -21.333 9.5 -30s14.166 -15.834 23.499 -21.501s19.5 -10 30.5 -13s21.167 -4.5 30.5 -4.5h13c4 0 8.33301 0.333008 13 1l57 111
c19.333 38 43 72 71 102c27.333 29.333 54.666 44 81.999 44c10 0 18.167 -3.83301 24.5 -11.5s9.5 -16.5 9.5 -26.5c0 -24.667 -8.5 -51.834 -25.5 -81.501s-39.5 -57.167 -67.5 -82.5c-18.667 -16 -39 -30 -61 -42s-45 -20.667 -69 -26l-201 -370l-15 3l-37 518l-256 -528
l-15 3c0 36.667 -3.16699 73 -9.5 109s-13.333 71.667 -21 107s-14.667 71 -21 107s-9.5 72.667 -9.5 110c0 32 6.5 65 19.5 99s31.5 62.333 55.5 85c-13.333 -2 -26.666 -3 -39.999 -3c-22.667 0 -45 2.66699 -67 8s-44.667 8 -68 8c-14 0 -28 -2.5 -42 -7.5
s-26.333 -12.167 -37 -21.5s-19.334 -20.333 -26.001 -33s-10 -26.667 -10 -42c0 -23.333 7.16699 -43.833 21.5 -61.5s33.5 -26.5 57.5 -26.5c11.333 0 23 2.66699 35 8s22.333 11.666 31 18.999l11 -11c-25.333 -22 -54 -33 -86 -33c-27.333 0 -49.666 9 -66.999 27
s-26 40.667 -26 68c0 22 4.83301 41.333 14.5 58s22.334 30.5 38.001 41.5s33.167 19.333 52.5 25s39 8.5 59 8.5c25.333 0 49.666 -2.5 72.999 -7.5s47.333 -7.5 72 -7.5c8.66699 0 16.5 1 23.5 3s14.167 5 21.5 9l6 -17c-14 -6 -26 -14.5 -36 -25.5
s-18.5 -23.5 -25.5 -37.5s-12.167 -29 -15.5 -45s-5 -31.667 -5 -47c0 -21.333 1.5 -42.333 4.5 -63s7.16699 -41 12.5 -61c9.33301 -38.667 16.666 -78 21.999 -118s8 -80 8 -120c0 -9.33301 -0.166992 -18.333 -0.5 -27s-0.833008 -17.667 -1.5 -27z" />
    <glyph glyph-name="X" unicode="X" horiz-adv-x="772" 
d="M487 361l58.001 78.998c20.667 27.333 42.834 52.5 66.501 75.5s49.167 41.833 76.5 56.5s56.333 22 87 22c35.333 0 67.666 -11 96.999 -33l-9 -13c-12 8 -24.667 14.333 -38 19s-27.333 7 -42 7c-30.667 0 -59.667 -7.83301 -87 -23.5s-53.333 -35.334 -78 -59.001
s-47.667 -49.667 -69 -78l-59 -80.5l-18 -26l45 -163c4 -15.333 9.5 -33.833 16.5 -55.5s16 -42.5 27 -62.5s24.167 -37 39.5 -51s33.333 -21 54 -21c22.667 0 42.167 6.83301 58.5 20.5s30.166 30.5 41.499 50.5l14 -8c-12 -21.333 -27.833 -39.833 -47.5 -55.5
s-44.5 -23.5 -74.5 -23.5c-26 0 -48.667 5.16699 -68 15.5s-36 23.833 -50 40.5s-25.667 35.667 -35 57s-17 43 -23 65l-38 134l-26 -36l-65.5 -89.5c-23.667 -31.667 -48.834 -61.167 -75.501 -88.5s-54.334 -50 -83.001 -68s-57.334 -27 -86.001 -27
c-12 0 -23.833 2 -35.5 6s-22 9.83301 -31 17.5s-16.167 16.667 -21.5 27s-8 22.166 -8 35.499c0 16.667 4.83301 31.334 14.5 44.001s21.5 22.667 35.5 30l7 -14c-11.333 -5.33301 -21.166 -13.333 -29.499 -24s-12.5 -22.667 -12.5 -36c0 -10.667 2.5 -20.167 7.5 -28.5
s11.5 -15.166 19.5 -20.499s16.833 -9.5 26.5 -12.5s19.167 -4.5 28.5 -4.5c26.667 0 53.5 9 80.5 27s53.5 40.667 79.5 68s50.833 57 74.5 89l65.5 90l28 39l-28 102c-6.66699 22.667 -14.667 45.834 -24 69.501s-21 45.334 -35 65.001s-31 35.667 -51 48
s-44 18.5 -72 18.5c-20 0 -39 -4 -57 -12s-33.667 -19.667 -47 -35l-12 9c14.667 19.333 33 34 55 44s45 15 69 15c33.333 0 62.833 -6.83301 88.5 -20.5s47.834 -31.5 66.501 -53.5s34.334 -47 47.001 -75s23 -56.333 31 -85l9 -34z" />
    <glyph glyph-name="Y" unicode="Y" horiz-adv-x="617" 
d="M401 22c-1.33301 -6.66699 -2.00195 -12 -2.00195 -16c0 -13.333 4 -23.333 12 -30s18.333 -10 31 -10h28l-5 -15h-226l5 15h11c22.667 0 41.5 4.33301 56.5 13s25.5 24.334 31.5 47.001l71 261c0 37.333 -4 72 -12 104s-21 62.667 -39 92
c-8 12.667 -17.333 24.834 -28 36.501s-22.334 21.834 -35.001 30.501s-26.167 15.667 -40.5 21s-29.5 8 -45.5 8c-19.333 0 -38 -3.16699 -56 -9.5s-34 -15.166 -48 -26.499s-25.167 -25.333 -33.5 -42s-12.5 -35.334 -12.5 -56.001c0 -27.333 9 -50.5 27 -69.5
s41 -28.5 69 -28.5c9.33301 0 18.666 0.833008 27.999 2.5s18 5.16699 26 10.5l8 -13c-9.33301 -6.66699 -19.5 -11.334 -30.5 -14.001s-22.167 -4 -33.5 -4c-16 0 -31.5 2.66699 -46.5 8s-28.333 12.833 -40 22.5s-21.167 21.334 -28.5 35.001s-11 29.167 -11 46.5
c0 25.333 6.16699 47.833 18.5 67.5s28.333 36.167 48 49.5s41.334 23.333 65.001 30s46.5 10 68.5 10c33.333 0 63.833 -6.5 91.5 -19.5s51.334 -30.5 71.001 -52.5s35 -47.5 46 -76.5s16.5 -59.5 16.5 -91.5c0 -18.667 -1 -37 -3 -55l39 54l68 89.5
c22.667 29 45.834 54.667 69.501 77s47.667 40.166 72 53.499s49.5 20 75.5 20c24.667 0 45.667 -5.16699 63 -15.5s26 -27.833 26 -52.5c0 -9.33301 -2.66699 -17.833 -8 -25.5s-11.666 -14.167 -18.999 -19.5l-9 13c5.33301 3.33301 9.83301 7.66602 13.5 12.999
s5.5 11.666 5.5 18.999c0 15.333 -6.16699 26.833 -18.5 34.5s-26.833 11.5 -43.5 11.5c-18 0 -36.167 -5 -54.5 -15s-36 -22.333 -53 -37s-32.833 -30 -47.5 -46l-38 -43l-121 -145z" />
    <glyph glyph-name="Z" unicode="Z" horiz-adv-x="626" 
d="M555 435c19.333 21.333 40.6699 41.9961 64.0029 61.9961s47.333 38 72 54c-2.66699 0 -5.33398 -0.166992 -8.00098 -0.5s-6.5 -0.5 -11.5 -0.5h-18.5h-29c-27.333 0 -54.666 1.16699 -81.999 3.5l-82.5 7l-82.5 7c-27.333 2.33301 -55 3.5 -83 3.5
s-55.833 -4.16699 -83.5 -12.5s-52.834 -20.666 -75.501 -36.999s-41 -36.5 -55 -60.5s-21 -51.667 -21 -83c0 -18 3.5 -35.167 10.5 -51.5s16.5 -30.5 28.5 -42.5s26 -21.667 42 -29s33.333 -11 52 -11c28 0 52.833 6.83301 74.5 20.5s37.5 33.167 47.5 58.5l15 -5
c-12.667 -32 -32.167 -55.667 -58.5 -71s-54.5 -23 -84.5 -23c-19.333 0 -38.166 3.16699 -56.499 9.5s-34.833 15.666 -49.5 27.999s-26.334 27.666 -35.001 45.999s-13 39.5 -13 63.5c0 37.333 9.16699 70.5 27.5 99.5s42 53.333 71 73s60.833 34.667 95.5 45
s68.667 15.5 102 15.5c42 0 82.333 -2.33301 121 -7s75.334 -9.66699 110.001 -15c26.667 -4 51.667 -7.5 75 -10.5s44.666 -4.5 63.999 -4.5c12 0 23.333 1 34 3s21.667 4.66699 33 8l5 -14c-16 -4.66699 -30.333 -11.334 -43 -20.001s-24.667 -18.5 -36 -29.5
s-22.333 -23 -33 -36l-33 -38.5l-303 -337c-20.667 -23.333 -42.667 -45.666 -66 -66.999s-49 -39.333 -77 -54c10.667 1.33301 20.834 2.5 30.501 3.5s19.5 1.5 29.5 1.5c40.667 0 78.5 -6.16699 113.5 -18.5s68 -27.666 99 -45.999s60.167 -38.333 87.5 -60l77.5 -60
c24.333 -18.333 47.333 -33.666 69 -45.999s42.834 -18.5 63.501 -18.5c24 0 45 3.33301 63 10s33.167 15.667 45.5 27s21.666 24.333 27.999 39s9.5 30.334 9.5 47.001c0 30.667 -7.5 55.667 -22.5 75s-36.5 29 -64.5 29c-6 0 -12 -1 -18 -3l-4 15
c4 1.33301 8 2.33301 12 3s8 1 12 1c18 0 34.167 -3.5 48.5 -10.5s26.5 -16.167 36.5 -27.5s17.667 -24.166 23 -38.499s8 -29.166 8 -44.499c0 -17.333 -3.66699 -34.333 -11 -51s-18.5 -31.5 -33.5 -44.5s-33.833 -23.333 -56.5 -31s-49.334 -11.5 -80.001 -11.5
c-28.667 0 -56.667 5.83301 -84 17.5s-54.666 26.167 -81.999 43.5s-55.5 36.333 -84.5 57s-59.333 39.667 -91 57s-65.5 31.833 -101.5 43.5s-74.667 17.5 -116 17.5c-20.667 0 -41.834 -1.5 -63.501 -4.5s-44.5 -8.16699 -68.5 -15.5l-4 15
c43.333 11.333 80.666 30 111.999 56s61.666 55.667 90.999 89z" />
    <glyph glyph-name="bracketleft" unicode="[" horiz-adv-x="325" 
d="M52 -165h40l-5 -15h-87l238 784h87l-5 -15h-39z" />
    <glyph glyph-name="backslash" unicode="\" horiz-adv-x="306" 
d="M252 -81l-252 601h22l284 -601h-54z" />
    <glyph glyph-name="bracketright" unicode="]" horiz-adv-x="325" 
d="M273 589h-40l5 15h87l-238 -784h-87l5 15h39z" />
    <glyph glyph-name="asciicircum" unicode="^" horiz-adv-x="298" 
d="M121 520h56l121 -276h-56l-93 212l-93 -212h-56z" />
    <glyph glyph-name="underscore" unicode="_" horiz-adv-x="500" 
d="M0 -24h500v-29h-500v29z" />
    <glyph glyph-name="grave" unicode="`" horiz-adv-x="208" 
d="M208 360h-27.999l-156 80c-8.66699 4 -14.834 9.16699 -18.501 15.5s-5.5 12.5 -5.5 18.5c0 10 3 17.333 9 22s13 7 21 7c12 0 23.333 -4.66699 34 -14z" />
    <glyph glyph-name="a" unicode="a" horiz-adv-x="442" 
d="M442 94c-4 -11.333 -8.83398 -22.6689 -14.501 -34.002s-12.5 -21.5 -20.5 -30.5s-17.333 -16.5 -28 -22.5s-22.334 -9 -35.001 -9c-10.667 0 -20 2.5 -28 7.5s-14.5 11.333 -19.5 19s-8.83301 16.334 -11.5 26.001s-4 19.5 -4 29.5
c-13.333 -24.667 -31.333 -44.667 -54 -60s-48.334 -23 -77.001 -23c-19.333 0 -36.333 3.5 -51 10.5s-27 16.5 -37 28.5s-17.5 26 -22.5 42s-7.5 33 -7.5 51c0 28 5.16699 55.333 15.5 82s24.666 50.5 42.999 71.5s39.833 37.833 64.5 50.5s51.667 19 81 19
c21.333 0 41 -6.33301 59 -19s30.667 -29.334 38 -50.001l18 61h44l-61 -201c-3.33301 -10 -5.83301 -21 -7.5 -33s-2.5 -23.333 -2.5 -34c0 -5.33301 0.666992 -11.166 2 -17.499s3.33301 -12.166 6 -17.499s6.33398 -9.83301 11.001 -13.5s10.334 -5.5 17.001 -5.5
c8.66699 0 16.834 2.66699 24.501 8s14.334 12 20.001 20s10.5 16.333 14.5 25s7.33301 16.667 10 24l13 -5v0zM323.999 253.997c-4 20 -13.5029 38.333 -28.5029 55s-33.5 25 -55.5 25c-25.333 0 -47.666 -6.5 -66.999 -19.5s-35.666 -29.5 -48.999 -49.5
s-23.5 -42 -30.5 -66s-10.5 -47 -10.5 -69c0 -12 1.16699 -24.667 3.5 -38s6.33301 -25.833 12 -37.5s13.334 -21.167 23.001 -28.5s22.167 -11 37.5 -11c27.333 0 50.333 9 69 27s34.167 39.5 46.5 64.5s22.333 51.167 30 78.5z" />
    <glyph glyph-name="b" unicode="b" horiz-adv-x="393" 
d="M132 295c16 17.333 34.8359 31.499 56.5029 42.499s44.167 16.5 67.5 16.5c19.333 0 36.666 -3.83301 51.999 -11.5s28.5 -18 39.5 -31s19.333 -27.833 25 -44.5s8.5 -34 8.5 -52c0 -30 -5.83301 -58.5 -17.5 -85.5s-27.5 -50.5 -47.5 -70.5s-43.5 -35.833 -70.5 -47.5
s-55.5 -17.5 -85.5 -17.5c-16.667 0 -32.667 2.16699 -48 6.5s-29 11 -41 20s-21.5 20.167 -28.5 33.5s-10.5 29 -10.5 47c0 14 2 28 6 42l90 296c1.33301 2.66699 2.16602 5.5 2.49902 8.5s0.5 5.5 0.5 7.5c0 8.66699 -5.33301 13.834 -16 15.501s-23.334 2.5 -38.001 2.5
v15c20.667 0 41.167 0.833008 61.5 2.5s39.833 7.16699 58.5 16.5l7 -13l-13 -6zM160.003 8.99902c26 0 49.8311 6.00098 71.498 18.001s40.334 27.667 56.001 47s27.667 41.166 36 65.499s12.5 48.833 12.5 73.5c0 14 -2.33301 27.833 -7 41.5s-11.167 26 -19.5 37
s-18.666 19.833 -30.999 26.5s-25.833 10 -40.5 10c-12 0 -24.5 -2.5 -37.5 -7.5s-25.167 -11.5 -36.5 -19.5s-21.333 -17.333 -30 -28s-15 -22 -19 -34c-6 -18 -11.667 -36.167 -17 -54.5l-16 -54.5c-4 -14 -6 -28 -6 -42c0 -22.667 8.5 -41.5 25.5 -56.5
s36.5 -22.5 58.5 -22.5z" />
    <glyph glyph-name="c" unicode="c" horiz-adv-x="363" 
d="M334 69c-14.667 -26 -35.1699 -46.499 -61.5029 -61.499s-54.5 -22.5 -84.5 -22.5c-20.667 0 -40.5 3.5 -59.5 10.5s-35.667 17 -50 30s-25.666 28.5 -33.999 46.5s-12.5 37.667 -12.5 59c0 30 6.33301 58 19 84s29.334 48.667 50.001 68s44.5 34.666 71.5 45.999
s55.167 17 84.5 17c10.667 0 22.167 -1.16699 34.5 -3.5s23.833 -6.33301 34.5 -12s19.5 -13 26.5 -22s10.5 -19.833 10.5 -32.5c0 -8.66699 -2.5 -16.5 -7.5 -23.5s-12.167 -10.5 -21.5 -10.5c-6 0 -11.167 2 -15.5 6s-6.5 9.33301 -6.5 16
c0 7.33301 2.16699 12.833 6.5 16.5s6.5 8.16699 6.5 13.5c0 7.33301 -2.5 13.5 -7.5 18.5s-11 8.83301 -18 11.5s-14.5 4.5 -22.5 5.5s-14.667 1.5 -20 1.5c-26 0 -49.5 -5 -70.5 -15s-39.167 -23.667 -54.5 -41s-27.166 -37.333 -35.499 -60s-12.5 -46.334 -12.5 -71.001
c0 -19.333 2.66699 -37.166 8 -53.499s13.333 -30.833 24 -43.5s23.667 -22.5 39 -29.5s33 -10.5 53 -10.5c23.333 0 45 6.83301 65 20.5s35.667 30.167 47 49.5z" />
    <glyph glyph-name="d" unicode="d" horiz-adv-x="398" 
d="M319 488c20.667 0 41.1709 0.834961 61.5039 2.50195s39.833 7.16699 58.5 16.5l7 -13l-13 -6l-120 -394c-4.66699 -15.333 -11.834 -29 -21.501 -41s-20.834 -22.5 -33.501 -31.5s-26.334 -15.833 -41.001 -20.5s-29.667 -7 -45 -7c-20.667 0 -39.667 4.33301 -57 13
s-32.166 20 -44.499 34s-21.833 30.167 -28.5 48.5s-10 37.166 -10 56.499c0 26 4.33301 51.667 13 77s21 48.166 37 68.499s35.333 36.666 58 48.999s48 18.5 76 18.5c25.333 0 47.166 -7 65.499 -21s31.833 -32.667 40.5 -56l12.5 37l17 52c5.66699 18 10.667 35 15 51
s6.5 27 6.5 33c0 8.66699 -5.83301 13.834 -17.5 15.501s-23.834 2.5 -36.501 2.5v15zM314.004 253.002c-5.33301 22 -15.5 42.168 -30.5 60.501s-34.833 27.5 -59.5 27.5c-25.333 0 -46.833 -6.5 -64.5 -19.5s-32.334 -29.333 -44.001 -49s-20.167 -41.334 -25.5 -65.001
s-8 -45.834 -8 -66.501c0 -13.333 1.33301 -27.5 4 -42.5s7.33398 -29 14.001 -42s15.5 -23.667 26.5 -32s24.5 -12.5 40.5 -12.5c22 0 42 7.33301 60 22s30 32.334 36 53.001l51 166v0z" />
    <glyph glyph-name="e" unicode="e" horiz-adv-x="378" 
d="M85 237c-6.66699 -18 -9.99902 -37.668 -9.99902 -59.001c0 -19.333 3.16699 -38.333 9.5 -57s15.5 -35.334 27.5 -50.001s26.5 -26.5 43.5 -35.5s35.833 -13.5 56.5 -13.5c26 0 50.5 5.83301 73.5 17.5s41.167 28.834 54.5 51.501l14 -8
c-15.333 -26 -36.833 -47 -64.5 -63s-56.5 -24 -86.5 -24c-23.333 0 -45.333 3.83301 -66 11.5s-38.834 18.5 -54.501 32.5s-28 30.833 -37 50.5s-13.5 41.5 -13.5 65.5c0 26.667 4.83301 52.167 14.5 76.5s23 45.833 40 64.5s37 33.667 60 45s48.167 17 75.5 17
c16 0 31.833 -2.33301 47.5 -7s30 -11.167 43 -19.5s24.5 -18.666 34.5 -30.999s17.667 -26.5 23 -42.5l8 1v-16l-293 -7v0zM326.001 257.999c-2 13.333 -6.66699 25.167 -14 35.5s-16 19 -26 26s-21.167 12.333 -33.5 16s-24.833 5.5 -37.5 5.5
c-28 0 -52.833 -8.5 -74.5 -25.5s-38.167 -37.833 -49.5 -62.5l235 5v0z" />
    <glyph glyph-name="f" unicode="f" horiz-adv-x="321" 
d="M285 295c6 0 10.3252 1.67188 12.9922 5.00488l9 11l13 -8l-23 -35l-7 5h-139l-82 -268c-6 -18.667 -14.167 -40 -24.5 -64s-23 -46.833 -38 -68.5s-32.333 -39.834 -52 -54.501s-41.5 -22 -65.5 -22h-9l1 15c20 0 37.833 7.5 53.5 22.5s29.334 33 41.001 54
s21.334 42.667 29.001 65s13.834 41.166 18.501 56.499l81 264c-9.33301 -0.666992 -18.833 -1.66699 -28.5 -3s-18.167 -4 -25.5 -8l-8 14c10 5.33301 20.833 8.66602 32.5 9.99902s22.834 2.33301 33.501 3l17 56c6.66699 22 16 42.5 28 61.5s26 35.5 42 49.5
s33.833 25 53.5 33s40.5 12 62.5 12c12.667 0 25.5 -1.83301 38.5 -5.5s24.833 -9 35.5 -16s19.334 -15.833 26.001 -26.5s10 -23 10 -37c0 -18.667 -6.5 -34.834 -19.5 -48.501s-28.833 -20.5 -47.5 -20.5c-17.333 0 -33 6.33301 -47 19l11 11
c11.333 -10 23.333 -15 36 -15c14 0 24.833 5.66699 32.5 17s11.5 23.666 11.5 36.999c0 11.333 -2.66699 21.333 -8 30s-12.166 16 -20.499 22s-17.666 10.5 -27.999 13.5s-20.5 4.5 -30.5 4.5c-20 0 -37.667 -4.33301 -53 -13s-28.5 -20 -39.5 -34
s-20.167 -29.667 -27.5 -47s-13.666 -34.333 -18.999 -51l-15 -51l128 5v0z" />
    <glyph glyph-name="g" unicode="g" horiz-adv-x="416" 
d="M187 -192c-26 14 -51.999 26.001 -77.999 36.001s-50.667 15 -74 15c-35.333 0 -61.5 -6.83301 -78.5 -20.5s-25.5 -28.5 -25.5 -44.5s8.83301 -31.167 26.5 -45.5s44.167 -21.5 79.5 -21.5c30 0 57.667 7.16699 83 21.5s47.666 34.166 66.999 59.499zM349.001 266.001
c-7.33301 23.333 -20.167 42.667 -38.5 58s-41.166 23 -68.499 23c-25.333 0 -47.5 -5.66699 -66.5 -17s-35.167 -26 -48.5 -44s-23.333 -38.167 -30 -60.5s-10 -44.833 -10 -67.5c0 -18 2.16699 -35 6.5 -51s11 -29.833 20 -41.5s20.5 -21 34.5 -28s30.667 -10.5 50 -10.5
c17.333 0 33.666 3.66699 48.999 11s29 17 41 29zM297 -57.998c-7.33301 -25.333 -16.665 -48.8301 -27.998 -70.4971s-23.666 -41.167 -36.999 -58.5c32 -17.333 62.833 -35.833 92.5 -55.5l91.5 -58.5c26.667 -16 56.334 -30.833 89.001 -44.5s65 -20.5 97 -20.5
c13.333 0 26.5 2.33301 39.5 7s24.667 11.167 35 19.5s18.666 18.5 24.999 30.5s9.5 25.333 9.5 40c0 24 -8.33301 44 -25 60s-36.667 24 -60 24c-16 0 -31.333 -3.83301 -46 -11.5s-26.334 -18.5 -35.001 -32.5l-13 8c9.33301 16.667 22.666 29.5 39.999 38.5
s35.666 13.5 54.999 13.5c14 0 27.5 -2.5 40.5 -7.5s24.5 -12 34.5 -21s18.167 -19.5 24.5 -31.5s9.5 -25.333 9.5 -40c0 -17.333 -4 -33 -12 -47s-18.5 -25.833 -31.5 -35.5s-27.5 -17 -43.5 -22s-32 -7.5 -48 -7.5c-24 0 -47.333 3.16699 -70 9.5
s-45.334 14.666 -68.001 24.999s-45.667 22.166 -69 35.499l-72 41l-53.5 31l-53.5 32c-23.333 -25.333 -50.333 -45.166 -81 -59.499s-63.334 -21.5 -98.001 -21.5c-46 0 -80.167 8.5 -102.5 25.5s-33.5 36.167 -33.5 57.5s11.333 40.333 34 57s56.667 25 102 25
c26.667 0 53.834 -4.5 81.501 -13.5s55.5 -20.5 83.5 -34.5c18.667 28.667 35 66.667 49 114l29 95c-12 -8.66699 -25 -15.5 -39 -20.5s-28.667 -7.5 -44 -7.5c-23.333 0 -44.5 3.66699 -63.5 11s-35.333 17.666 -49 30.999s-24.334 29.5 -32.001 48.5
s-11.5 40.167 -11.5 63.5c0 27.333 4.83301 53.166 14.5 77.499s23.334 45.833 41.001 64.5s38.334 33.334 62.001 44.001s49.5 16 77.5 16c28.667 0 53.667 -7.16699 75 -21.5s37.333 -33.166 48 -56.499c10.667 21.333 25 39.666 43 54.999s39.333 24.666 64 27.999l3 -15
c-19.333 -3.33301 -33.833 -12 -43.5 -26s-17.167 -29.667 -22.5 -47z" />
    <glyph glyph-name="h" unicode="h" horiz-adv-x="555" 
d="M149 473l0.00195312 15.0039c20 0 40 0.833008 60 2.5s40 7.16699 60 16.5l7 -13c-4 -3.33301 -8.33301 -5.33301 -13 -6l-62 -205c15.333 21.333 33.5 39.166 54.5 53.499s45.167 21.5 72.5 21.5c14.667 0 28.5 -2.66699 41.5 -8s24.5 -12.666 34.5 -21.999
s18 -20.333 24 -33s9 -26.334 9 -41.001c0 -16.667 -2 -33 -6 -49s-8.33301 -31.667 -13 -47c-5.33301 -16 -10 -31.5 -14 -46.5s-6 -30.833 -6 -47.5c0 -13.333 3.33301 -25 10 -35s16.334 -15 29.001 -15c24.667 0 46.167 8 64.5 24s31.166 35.667 38.499 59l15 -5
c-8 -26 -22.667 -48 -44 -66s-46 -27 -74 -27c-23.333 0 -43.333 6.83301 -60 20.5s-25 32.167 -25 55.5c0 15.333 1.66699 30.166 5 44.499s7.66602 29.166 12.999 44.499c4.66699 15.333 8.83398 30.666 12.501 45.999s5.5 31 5.5 47c0 24 -4.66699 43.333 -14 58
s-26 22 -50 22c-21.333 0 -40.166 -4.5 -56.499 -13.5s-30.833 -20.667 -43.5 -35s-23.334 -30.333 -32.001 -48s-15.667 -35.167 -21 -52.5l-37 -122c-1.33301 -3.33301 -2.33301 -7 -3 -11s-1 -7.66699 -1 -11c0 -9.33301 3.16699 -16.333 9.5 -21s14.166 -7 23.499 -7h17
l-5 -16h-175l5 16h10c19.333 0 34.666 3.33301 45.999 10s20 19.667 26 39l112 371c0.666992 2 1.5 4.66699 2.5 8s1.5 6 1.5 8c0 14 -8.66699 21 -26 21h-28z" />
    <glyph glyph-name="i" unicode="i" horiz-adv-x="240" 
d="M100 98l-4.5 -16.499c-1.66699 -6.33301 -2.5 -12.833 -2.5 -19.5c0 -8.66699 2 -16.334 6 -23.001s11.667 -10 23 -10c17.333 0 31.666 6.83301 42.999 20.5s20 27.5 26 41.5l15 -6c-4 -10 -9.33301 -19.833 -16 -29.5s-14.167 -18.5 -22.5 -26.5
s-17.5 -14.5 -27.5 -19.5s-20.333 -7.5 -31 -7.5c-21.333 0 -36.833 6.33301 -46.5 19s-14.5 27.334 -14.5 44.001c0 9.33301 1.66699 19.666 5 30.999l59 196c1.33301 3.33301 2.33301 7 3 11s1 7.66699 1 11c0 8 -2.16699 14.667 -6.5 20s-11.5 8 -21.5 8h-22v16
c20 0 40.333 0.833008 61 2.5s40.334 7.16699 59.001 16.5l7 -14l-13 -6zM180 464.001c7.33301 0 13.833 -2.66699 19.5 -8s8.5 -12 8.5 -20c0 -7.33301 -2.83301 -13.833 -8.5 -19.5s-12.167 -8.5 -19.5 -8.5c-8 0 -14.667 2.83301 -20 8.5s-8 12.167 -8 19.5
c0 8 2.66699 14.667 8 20s12 8 20 8z" />
    <glyph glyph-name="j" unicode="j" horiz-adv-x="210" 
d="M145 292c1.33301 4 2.33008 8 2.99707 12s1 8 1 12c0 7.33301 -2.16699 13.5 -6.5 18.5s-11.5 7.5 -21.5 7.5h-22v16c20 0 40.333 0.833008 61 2.5s40.334 7.16699 59.001 16.5l7 -14l-13 -6l-121 -395c-7.33301 -23.333 -17.5 -47 -30.5 -71s-28.5 -45.5 -46.5 -64.5
s-38.5 -34.5 -61.5 -46.5s-48.167 -18 -75.5 -18c-8 0 -17.667 0.833008 -29 2.5s-22 4.5 -32 8.5s-18.667 9.5 -26 16.5s-11 15.833 -11 26.5c0 6 1.83301 11.667 5.5 17s8.83398 8 15.501 8c8 0 14 -3.5 18 -10.5s6 -14.167 6 -21.5
c0 -4.66699 -0.333008 -8.33398 -1 -11.001c6.66699 -7.33301 15.334 -12.666 26.001 -15.999s20.667 -5 30 -5c21.333 0 40.833 5.83301 58.5 17.5s33.167 26.334 46.5 44.001s24.833 36.667 34.5 57s17.167 39.166 22.5 56.499l103 340v0zM211.997 464
c8 0 14.667 -2.66699 20 -8s8 -12 8 -20c0 -7.33301 -2.66699 -13.833 -8 -19.5s-12 -8.5 -20 -8.5c-7.33301 0 -13.833 2.83301 -19.5 8.5s-8.5 12.167 -8.5 19.5c0 8 2.83301 14.667 8.5 20s12.167 8 19.5 8z" />
    <glyph glyph-name="k" unicode="k" horiz-adv-x="488" 
d="M149 473l0.000976562 15.001c21.333 0 41.833 0.833008 61.5 2.5s39.167 7.16699 58.5 16.5l7 -13c-4 -3.33301 -8.33301 -5.33301 -13 -6l-91 -299l165 129c29.333 23.333 62 35 98 35c30.667 0 58.667 -10 84 -30l-9 -13c-19.333 13.333 -39.333 20 -60 20
c-18.667 0 -36.834 -4.33301 -54.501 -13s-35.167 -19 -52.5 -31l-128 -89l36 -42l68.5 -79.5c25.667 -29 51.834 -56.333 78.501 -82s52.334 -47.167 77.001 -64.5s46.334 -26 65.001 -26c7.33301 0 14.333 1.16699 21 3.5l21 7.5l6 -14
c-10.667 -4.66699 -21.334 -8.33398 -32.001 -11.001s-22 -4 -34 -4c-33.333 0 -64.833 8.66699 -94.5 26s-57.667 39 -84 65s-51 54.5 -74 85.5l-62.5 87.5l-20 28l-24 -17l-29 -94c-1.33301 -3.33301 -2.33301 -7 -3 -11s-1 -7.66699 -1 -11
c0 -9.33301 3.16699 -16.333 9.5 -21s14.166 -7 23.499 -7h17l-5 -16h-175l5 16h10c19.333 0 34.666 3.33301 45.999 10s20 19.667 26 39l113 374c2 4.66699 3 9 3 13c0 14 -8.66699 21 -26 21h-28z" />
    <glyph glyph-name="l" unicode="l" horiz-adv-x="273" 
d="M307 422c2 -0.666992 5.00195 -0.999023 9.00195 -0.999023c11.333 0 20.333 4.33301 27 13s10 18.334 10 29.001c0 17.333 -6.83301 29.666 -20.5 36.999s-28.167 11 -43.5 11c-14.667 0 -27.834 -3 -39.501 -9s-22 -13.833 -31 -23.5s-16.833 -20.834 -23.5 -33.501
s-12 -25.667 -16 -39l-94 -308l-4.5 -18.5c-1.66699 -7 -2.5 -13.167 -2.5 -18.5c0 -8 2.16699 -15.5 6.5 -22.5s11.833 -10.5 22.5 -10.5c17.333 0 31.666 7 42.999 21s20 28 26 42l14 -6c-4 -9.33301 -9.33301 -18.833 -16 -28.5s-14.334 -18.5 -23.001 -26.5
s-18 -14.667 -28 -20s-20 -8 -30 -8c-18 0 -32.667 5 -44 15s-17 24 -17 42c0 11.333 1.66699 23.666 5 36.999l91 299c11.333 38 30.5 69.5 57.5 94.5s61.5 37.5 103.5 37.5c10 0 20 -1.33301 30 -4s19 -6.66699 27 -12s14.5 -12.166 19.5 -20.499s7.5 -17.833 7.5 -28.5
c0 -15.333 -5.66699 -28.5 -17 -39.5s-24.666 -16.5 -39.999 -16.5h-6.5c-2.33301 0 -4.5 0.333008 -6.5 1l4 15v0z" />
    <glyph glyph-name="m" unicode="m" horiz-adv-x="778" 
d="M159 292c2.66699 6 4.00586 13.6631 4.00586 22.9961c0 7.33301 -1.83301 13.666 -5.5 18.999s-10.834 8 -21.501 8h-23v16c20 0 40.5 0.833008 61.5 2.5s40.5 7.16699 58.5 16.5l7 -14l-13 -6l-22 -72c16 21.333 36.833 39 62.5 53s50.167 21 73.5 21
c27.333 0 46.666 -9.5 57.999 -28.5s16.666 -41.833 15.999 -68.5c6.66699 14.667 15.334 27.834 26.001 39.501s22.5 21.834 35.5 30.501s26.333 15.334 40 20.001s27.167 7 40.5 7c24 0 44.833 -8 62.5 -24s26.5 -42.667 26.5 -80c0 -15.333 -2 -31 -6 -47
s-8.66699 -32 -14 -48s-10 -32.167 -14 -48.5s-6 -33.166 -6 -50.499c0 -12 2.83301 -22.833 8.5 -32.5s15.167 -14.5 28.5 -14.5c14.667 0 28.334 3.66699 41.001 11s24.334 16.833 35.001 28.5s19.667 24.334 27 38.001s13 26.5 17 38.5l15 -4
c-4 -14 -10.333 -28.5 -19 -43.5s-18.834 -28.667 -30.501 -41s-24.834 -22.5 -39.501 -30.5s-30.334 -12 -47.001 -12c-22 0 -41.333 6.33301 -58 19s-25 30.667 -25 54c0 14.667 1.66699 30.5 5 47.5s7.66602 34.167 12.999 51.5s10 34.333 14 51s6 32 6 46
c0 19.333 -3.16699 35.333 -9.5 48s-19.166 19 -38.499 19c-20 0 -37.833 -4.66699 -53.5 -14s-29.667 -21.5 -42 -36.5s-22.833 -32.333 -31.5 -52s-16 -39.834 -22 -60.501l-34 -118c0 -1.33301 -0.166992 -3 -0.5 -5s-0.5 -3.66699 -0.5 -5
c0 -9.33301 3.33301 -16.333 10 -21s14.334 -7 23.001 -7h19l-5 -16h-165l5 16c18.667 0 33.667 3.5 45 10.5s19.666 19.833 24.999 38.5l33 113c4 12.667 7.33301 26.334 10 41.001s4 27.334 4 38.001c0 29.333 -4.83301 49.666 -14.5 60.999s-21.167 17 -34.5 17
c-12.667 0 -26 -3.66699 -40 -11s-27.5 -17 -40.5 -29s-24.833 -25.667 -35.5 -41s-18.334 -31.333 -23.001 -48l-43 -140c-1.33301 -3.33301 -2.33301 -7 -3 -11s-1 -7.66699 -1 -11c0 -9.33301 3.16699 -16.333 9.5 -21s14.166 -7 23.499 -7h18l-5 -16h-180l5 16h14
c19.333 0 34.666 3.33301 45.999 10s20 19.667 26 39l68 227v0z" />
    <glyph glyph-name="n" unicode="n" horiz-adv-x="575" 
d="M159 292c2.66699 6 4.00391 13.668 4.00391 23.001c0 7.33301 -1.83301 13.666 -5.5 18.999s-10.834 8 -21.501 8h-23v16c20 0 40.5 0.833008 61.5 2.5s40.5 7.16699 58.5 16.5l7 -14l-13 -6l-22 -74c15.333 21.333 33.5 39.166 54.5 53.499s45.167 21.5 72.5 21.5
c14.667 0 28.667 -2.66699 42 -8s25.166 -12.666 35.499 -21.999s18.5 -20.333 24.5 -33s9 -26.334 9 -41.001c0 -15.333 -1.83301 -30.833 -5.5 -46.5s-8.16699 -31.5 -13.5 -47.5c-4.66699 -16 -9 -32.167 -13 -48.5s-6 -33.166 -6 -50.499c0 -12 3 -22.833 9 -32.5
s16 -14.5 30 -14.5s27.333 3.66699 40 11s24 16.833 34 28.5s18.667 24.334 26 38.001s13 26.5 17 38.5l14 -4c-4 -14 -9.83301 -28.5 -17.5 -43.5s-17.167 -28.667 -28.5 -41s-24.333 -22.5 -39 -30.5s-31 -12 -49 -12c-22 0 -41.833 6.33301 -59.5 19
s-26.5 30.667 -26.5 54c0 14.667 1.83301 29.334 5.5 44.001s7.83398 29.667 12.501 45c4.66699 16 9 32 13 48s6 32 6 48c0 21.333 -4.83301 39.833 -14.5 55.5s-26.5 23.5 -50.5 23.5c-21.333 0 -40.333 -4.83301 -57 -14.5s-31.167 -21.834 -43.5 -36.501
s-22.833 -30.834 -31.5 -48.501s-15.334 -34.5 -20.001 -50.5l-37 -120c-1.33301 -3.33301 -2.33301 -7 -3 -11s-1 -7.66699 -1 -11c0 -9.33301 3.16699 -16.333 9.5 -21s14.166 -7 23.499 -7h18l-5 -16h-180l5 16h14c19.333 0 34.666 3.33301 45.999 10s20 19.667 26 39
l68 227v0z" />
    <glyph glyph-name="o" unicode="o" horiz-adv-x="457" 
d="M223 -7c-24.667 0 -47.668 4.66797 -69.001 14.001s-39.833 22 -55.5 38s-28 34.667 -37 56s-13.5 44 -13.5 68c0 26.667 5.16699 51.5 15.5 74.5s24.5 43 42.5 60s38.833 30.5 62.5 40.5s48.5 15 74.5 15c24.667 0 47.834 -4.66699 69.501 -14s40.5 -22 56.5 -38
s28.667 -34.833 38 -56.5s14 -44.834 14 -69.501c0 -27.333 -5.33301 -52.333 -16 -75s-25.167 -42.5 -43.5 -59.5s-39.5 -30.167 -63.5 -39.5s-49 -14 -75 -14zM244.999 344.001c-25.333 0 -47.333 -6.16797 -66 -18.501s-34 -28.166 -46 -47.499s-21 -40.666 -27 -63.999
s-9 -46 -9 -68c0 -38.667 11.333 -70.834 34 -96.501s53.667 -38.5 93 -38.5c22.667 0 43 6 61 18s33.333 27.333 46 46s22.334 39 29.001 61s10 43 10 63c0 18.667 -2.83301 36.667 -8.5 54s-13.834 32.833 -24.501 46.5s-23.667 24.5 -39 32.5s-33 12 -53 12z" />
    <glyph glyph-name="p" unicode="p" horiz-adv-x="453" 
d="M141 128c2.66699 -14 6.83203 -27.332 12.499 -39.999s12.834 -23.834 21.501 -33.501s19.167 -17.5 31.5 -23.5s26.5 -9 42.5 -9c19.333 0 37.333 4.83301 54 14.5s31.334 22.5 44.001 38.5c13.333 17.333 23.666 37 30.999 59s11 45.667 11 71c0 14.667 -2 30 -6 46
s-10.167 30.333 -18.5 43s-18.666 23.167 -30.999 31.5s-26.833 12.5 -43.5 12.5c-22.667 0 -42.834 -6 -60.501 -18s-32.167 -27 -43.5 -45zM211.998 357.001l-12.0049 -36.999c13.333 14 29 25.5 47 34.5s36.667 13.5 56 13.5c20 0 37.833 -4 53.5 -12
s28.834 -18.833 39.501 -32.5s18.834 -29.167 24.501 -46.5s8.5 -35.333 8.5 -54c0 -29.333 -5.16699 -57 -15.5 -83s-24.166 -49 -41.499 -69c-17.333 -21.333 -37.5 -38 -60.5 -50s-47.167 -18 -72.5 -18c-26 0 -49.167 7.16699 -69.5 21.5s-34.5 33.166 -42.5 56.499
l-44 -142c-6.66699 -22 -16 -43 -28 -63s-26.5 -37.5 -43.5 -52.5s-36 -27 -57 -36s-43.833 -13.5 -68.5 -13.5c-14 0 -27.333 2.33301 -40 7s-23.834 11.334 -33.501 20.001s-17.5 19 -23.5 31s-9 25.333 -9 40c0 22 7.16699 41.667 21.5 59s32.5 28 54.5 32l2 -16
c-16.667 -3.33301 -30.167 -11.333 -40.5 -24s-15.5 -27.667 -15.5 -45c0 -24 8.33301 -44.5 25 -61.5s37.334 -25.5 62.001 -25.5c21.333 0 40 4 56 12s29.833 18.667 41.5 32s21.334 28.5 29.001 45.5s14.167 34.5 19.5 52.5l109 359c1.33301 4 2.33301 8.16699 3 12.5
s1 8.16602 1 11.499c0 7.33301 -2 13.5 -6 18.5s-11.333 7.5 -22 7.5h-22v16c20 0 40.333 0.833008 61 2.5s40.334 7.16699 59.001 16.5l7 -14z" />
    <glyph glyph-name="q" unicode="q" horiz-adv-x="388" 
d="M185 -159c-6.66699 0 -13.999 -1 -21.999 -3s-15.5 -4.83301 -22.5 -8.5s-12.833 -8.5 -17.5 -14.5s-7 -13 -7 -21c0 -3.33301 1.5 -6.33301 4.5 -9s6.5 -4 10.5 -4c7.33301 0 13.833 2.16699 19.5 6.5s10.667 9.5 15 15.5s8.16602 12.333 11.499 19s6 13 8 19z
M313.001 255c-2 11.333 -4.83301 22.668 -8.5 34.001s-8.5 21.5 -14.5 30.5s-13.5 16.333 -22.5 22s-19.5 8.5 -31.5 8.5c-26 0 -48.833 -8 -68.5 -24s-36 -35.667 -49 -59s-22.667 -48.333 -29 -75s-9.5 -50.334 -9.5 -71.001c0 -12 1.33301 -24 4 -36s7 -22.833 13 -32.5
s13.833 -17.334 23.5 -23.001s21.834 -8.5 36.501 -8.5c10 0 20.333 2.33301 31 7s20.667 10.834 30 18.501s18.166 16.167 26.499 25.5s15.5 19 21.5 29zM255.001 -88.998c-5.33301 -19.333 -12.3369 -38.0029 -21.0039 -56.0029c18 -4 35.667 -9.5 53 -16.5
s34 -15.167 50 -24.5c7.33301 -4 15.833 -7.16699 25.5 -9.5s18.834 -3.5 27.501 -3.5c9.33301 0 18 1.5 26 4.5s15.667 7.16699 23 12.5l9 -13c-10.667 -7.33301 -22.167 -12.666 -34.5 -15.999s-25.166 -5 -38.499 -5c-17.333 0 -34 3 -50 9s-32 12.667 -48 20l-26 12
c-8.66699 4 -17.667 7.33301 -27 10c-10 -17.333 -22.833 -33.166 -38.5 -47.499s-34.167 -21.5 -55.5 -21.5c-9.33301 0 -16.5 2.66699 -21.5 8s-7.5 12 -7.5 20c0 11.333 3 21.166 9 29.499s13.5 15.166 22.5 20.499s18.833 9.33301 29.5 12s21 4 31 4l58 193
c-14 -15.333 -29.833 -27.833 -47.5 -37.5s-37.167 -14.5 -58.5 -14.5c-19.333 0 -36.166 3.83301 -50.499 11.5s-26.166 17.834 -35.499 30.501s-16.166 27.334 -20.499 44.001s-6.5 33.667 -6.5 51c0 26 4.66699 52.833 14 80.5s22.5 52.667 39.5 75
s37.333 40.833 61 55.5s49.834 22 78.501 22c29.333 0 51.666 -8.66699 66.999 -26s26 -37.666 32 -60.999c10.667 22.667 25.167 42 43.5 58s40.166 25.667 65.499 29l2 -15c-19.333 -3.33301 -33.833 -12 -43.5 -26s-17.167 -29.667 -22.5 -47z" />
    <glyph glyph-name="r" unicode="r" horiz-adv-x="411" 
d="M159 292c2.66699 6 4.00293 13.667 4.00293 23c0 7.33301 -1.83301 13.666 -5.5 18.999s-10.834 8 -21.501 8h-23v16c20 0 40.5 0.833008 61.5 2.5s40.5 7.16699 58.5 16.5l7 -14l-13 -6l-20 -65c17.333 22.667 37.333 41.834 60 57.501s48 23.5 76 23.5
c16.667 0 32.167 -4.83301 46.5 -14.5s21.5 -23.834 21.5 -42.501c0 -12.667 -4 -24.167 -12 -34.5s-17.667 -18.166 -29 -23.499l-7 14c6 2.66699 11 6.5 15 11.5s6 11.5 6 19.5c0 12 -4.83301 22.167 -14.5 30.5s-21.167 12.5 -34.5 12.5c-16 0 -31.167 -3 -45.5 -9
s-27.5 -14 -39.5 -24s-22.833 -21.5 -32.5 -34.5s-18.5 -26.5 -26.5 -40.5l-53 -172c-1.33301 -3.33301 -2.33301 -7 -3 -11s-1 -7.66699 -1 -11c0 -9.33301 3.16699 -16.333 9.5 -21s14.166 -7 23.499 -7h18l-5 -16h-180l5 16h14c19.333 0 34.666 3.33301 45.999 10
s20 19.667 26 39l68 227v0z" />
    <glyph glyph-name="s" unicode="s" horiz-adv-x="307" 
d="M24 85c0 7.33301 2.33105 14.498 6.99805 21.498s11.334 10.5 20.001 10.5c6 0 10.833 -2.33301 14.5 -7s5.5 -9.66699 5.5 -15s-2.33301 -11 -7 -17c-4.66699 -3.33301 -7 -7.66602 -7 -12.999c0 -10 2.83301 -18.667 8.5 -26s12.667 -13.5 21 -18.5
s17.333 -8.66699 27 -11s18.834 -3.5 27.501 -3.5c10.667 0 22 1.66699 34 5s22.833 8.5 32.5 15.5s17.667 15.667 24 26s9.5 22.5 9.5 36.5c0 10 -2 19 -6 27s-9.16699 15.333 -15.5 22s-13.333 12.667 -21 18s-15.5 10.333 -23.5 15l-29.5 18.5
c-9.66699 6.33301 -18.167 13.5 -25.5 21.5s-13.166 17.333 -17.499 28s-6.5 23 -6.5 37c0 14.667 3.5 28 10.5 40s16 22.167 27 30.5s23.5 14.666 37.5 18.999s27.667 6.5 41 6.5c10 0 20.5 -1.5 31.5 -4.5s21.333 -7.5 31 -13.5s17.5 -13.333 23.5 -22s9 -19 9 -31
c0 -5.33301 -1.16699 -10.166 -3.5 -14.499s-6.16602 -6.5 -11.499 -6.5s-9.5 2.33301 -12.5 7s-4.5 9.66699 -4.5 15s0.666992 9.33301 2 12c-5.33301 12.667 -13.833 22.667 -25.5 30s-25.167 11 -40.5 11c-10 0 -20 -1.5 -30 -4.5s-18.833 -7.33301 -26.5 -13
s-14 -12.667 -19 -21s-7.5 -18.166 -7.5 -29.499c0 -15.333 5.66699 -27.5 17 -36.5s22.666 -16.833 33.999 -23.5l33 -22.5c11.333 -7.66699 21.666 -16.167 30.999 -25.5s17 -19.833 23 -31.5s9 -24.5 9 -38.5c0 -18 -3.83301 -34.333 -11.5 -49s-18 -27.167 -31 -37.5
s-27.667 -18.333 -44 -24s-32.833 -8.5 -49.5 -8.5c-13.333 0 -26.833 2.16699 -40.5 6.5s-26 10.5 -37 18.5s-20 17.833 -27 29.5s-10.5 25.167 -10.5 40.5z" />
    <glyph glyph-name="t" unicode="t" horiz-adv-x="501" 
d="M248 358l75.501 9.49902c25 3 50.167 4.5 75.5 4.5c10.667 0 22 -1 34 -3s23 -5.5 33 -10.5s18.333 -12.167 25 -21.5s10 -21 10 -35c0 -17.333 -6.83301 -31.166 -20.5 -41.499s-28.834 -15.5 -45.501 -15.5v15c12 0 23 3.66699 33 11s15.667 18 17 32
c0 10.667 -3.66699 19.167 -11 25.5s-16 11.166 -26 14.499s-20.667 5.33301 -32 6s-21 1 -29 1c-23.333 0 -46.666 -1.33301 -69.999 -4l-75 -9l-48 -176l-12 -43.5c-4 -15 -6 -30.167 -6 -45.5c0 -21.333 5.33301 -37.833 16 -49.5s27.667 -17.5 51 -17.5
c32 0 61.5 8.5 88.5 25.5s46.167 41.5 57.5 73.5l14 -5c-6 -17.333 -14.833 -33 -26.5 -47s-25 -25.833 -40 -35.5s-31.167 -17.167 -48.5 -22.5s-35 -8 -53 -8c-12.667 0 -25.167 2 -37.5 6s-23.5 9.66699 -33.5 17s-18 16.333 -24 27s-9 23 -9 37
c0 16.667 1.66699 32.834 5 48.501s7.33301 31.5 12 47.5l47 163c-36 -4.66699 -72.333 -11.667 -109 -21c-8.66699 -2.66699 -17.334 -4.66699 -26.001 -6l-27 -4l-1 16c22 1.33301 45 6 69 14s46.833 18.5 68.5 31.5s41.5 27.833 59.5 44.5s32.667 34.667 44 54l14 -7
c-8.66699 -15.333 -16.167 -30.833 -22.5 -46.5s-11.833 -32.167 -16.5 -49.5z" />
    <glyph glyph-name="u" unicode="u" horiz-adv-x="511" 
d="M47 257c0 -9.33301 2.33105 -19.332 6.99805 -29.999l-13 -7c-6 12 -9 24.333 -9 37c0 14 2.5 27 7.5 39s11.833 22.5 20.5 31.5s19.167 16.167 31.5 21.5s26.166 8 41.499 8c21.333 0 38.833 -7 52.5 -21s20.5 -32 20.5 -54c0 -17.333 -2.66699 -34.166 -8 -50.499
s-11.333 -33.166 -18 -50.499c-6 -16.667 -11.833 -34 -17.5 -52s-8.5 -35.667 -8.5 -53c0 -20.667 5 -36.5 15 -47.5s23 -16.5 39 -16.5c14.667 0 28.667 4.83301 42 14.5s25.666 21.5 36.999 35.5s21.5 29.167 30.5 45.5s16.5 31.166 22.5 44.499l93 199h50l-77 -253
c-1.33301 -5.33301 -2.83301 -11 -4.5 -17s-2.5 -11.667 -2.5 -17c0 -9.33301 1.83301 -17.666 5.5 -24.999s10.834 -11 21.501 -11c17.333 0 32 7 44 21s21 28 27 42l14 -6c-4 -9.33301 -9.33301 -18.833 -16 -28.5s-14.5 -18.5 -23.5 -26.5s-18.667 -14.5 -29 -19.5
s-20.833 -7.5 -31.5 -7.5c-18 0 -32.167 4.83301 -42.5 14.5s-15.5 23.5 -15.5 41.5c0 11.333 1.66699 23.666 5 36.999l52 170l-55 -119c-7.33301 -16 -16.166 -33 -26.499 -51s-21.833 -34.5 -34.5 -49.5s-26.5 -27.333 -41.5 -37s-30.833 -14.5 -47.5 -14.5
c-27.333 0 -50 8.16699 -68 24.5s-27 37.833 -27 64.5c0 17.333 2.66699 35.333 8 54s11.333 36.667 18 54s12.834 34.333 18.501 51s8.5 33.334 8.5 50.001c0 15.333 -4.16699 26.666 -12.5 33.999s-18.166 11 -29.499 11c-10 0 -19.5 -2.33301 -28.5 -7
s-16.833 -10.834 -23.5 -18.501s-12 -16.334 -16 -26.001s-6 -19.5 -6 -29.5z" />
    <glyph glyph-name="v" unicode="v" horiz-adv-x="539" 
d="M202 80l22.5029 36.502l30 46c11 16.333 23 33 36 50s26.5 33.5 40.5 49.5c23.333 25.333 47.5 47 72.5 65s49.167 27 72.5 27c17.333 0 32.166 -4.83301 44.499 -14.5s18.5 -23.834 18.5 -42.501c0 -12.667 -4.33301 -24.334 -13 -35.001l-13 9c4 6.66699 6 14 6 22
c0 14 -3.83301 23.5 -11.5 28.5s-17.167 7.5 -28.5 7.5c-10.667 0 -22.167 -2.83301 -34.5 -8.5s-25.333 -13.5 -39 -23.5s-27.334 -21.833 -41.001 -35.5s-27.5 -28.5 -41.5 -44.5c-16 -18 -31.333 -36.833 -46 -56.5s-28.5 -39.167 -41.5 -58.5
s-24.833 -37.833 -35.5 -55.5s-19.334 -33.167 -26.001 -46.5h-15v136c0 26.667 -1 52 -3 76s-5.33301 45.167 -10 63.5s-11 32.833 -19 43.5s-18 16 -30 16c-14.667 0 -26.5 -6.16699 -35.5 -18.5s-13.5 -26.166 -13.5 -41.499c0 -10.667 2 -20.334 6 -29.001l-14 -6
c-5.33301 12 -8 23.667 -8 35c0 23.333 7.33301 43 22 59s33.667 24 57 24c18 0 32.833 -6.16699 44.5 -18.5s21 -28.333 28 -48s11.833 -41.5 14.5 -65.5s4 -47.667 4 -71v-75v0z" />
    <glyph glyph-name="w" unicode="w" horiz-adv-x="758" 
d="M201 82l71.002 111.5c24.667 37 52 71.5 82 103.5c-3.33301 11.333 -8.66602 22.166 -15.999 32.499s-17.666 15.5 -30.999 15.5c-8 0 -16.333 -2.66699 -25 -8l-8 14c14.667 9.33301 30.667 14 48 14c13.333 0 25.166 -3.33301 35.499 -10s19.166 -15.667 26.499 -27
c8.66699 8.66699 18.5 16.5 29.5 23.5s24.167 10.5 39.5 10.5c8.66699 0 18.667 -1.66699 30 -5l-5 -15c-6 2 -12.333 3 -19 3c-13.333 0 -25.166 -3.5 -35.499 -10.5s-20.5 -15.167 -30.5 -24.5c6 -16 9.66699 -31.667 11 -47l12 -183l29.5 48.5
c11.667 19 24.5 38.667 38.5 59s29.167 40.5 45.5 60.5s33.5 37.833 51.5 53.5s36.167 28.334 54.5 38.001s36.833 14.5 55.5 14.5s34.5 -4.83301 47.5 -14.5s19.5 -23.834 19.5 -42.501c0 -12.667 -4.66699 -24.334 -14 -35.001l-12 9c4 6.66699 6 14 6 22
c0 14 -4.83301 23.667 -14.5 29s-20.5 8 -32.5 8c-13.333 0 -27.833 -4.33301 -43.5 -13s-32 -20.167 -49 -34.5s-33.833 -30.666 -50.5 -48.999s-32.667 -37.5 -48 -57.5c-12.667 -16.667 -24.667 -33.5 -36 -50.5s-21.666 -33.5 -30.999 -49.5l-24.5 -43.5l-17.5 -32.5
h-16l-18 271c-34.667 -40 -66.834 -83.667 -96.501 -131l-85.5 -140h-16l-13 273c-0.666992 14 -4 27.5 -10 40.5s-17.333 19.5 -34 19.5s-30 -6 -40 -18s-15 -25.667 -15 -41c0 -5.33301 0.666992 -10.166 2 -14.499s3 -8.83301 5 -13.5l-14 -6
c-5.33301 10.667 -8 22 -8 34s2.16699 23 6.5 33s10.333 18.667 18 26s16.667 13.166 27 17.499s21.166 6.5 32.499 6.5c13.333 0 24.666 -2.66699 33.999 -8s17.166 -12.5 23.499 -21.5s11 -19.167 14 -30.5s4.83301 -22.666 5.5 -33.999l8 -181v0z" />
    <glyph glyph-name="x" unicode="x" horiz-adv-x="570" 
d="M459 1c-21.333 0 -41.0059 5.16895 -59.0059 15.502s-32.667 24.166 -44 41.499l-76 119l-18 -24c-13.333 -18.667 -27.666 -37.5 -42.999 -56.5s-31.166 -36.333 -47.499 -52s-33 -28.5 -50 -38.5s-34.5 -15 -52.5 -15c-17.333 0 -33.166 5.5 -47.499 16.5
s-21.5 26.167 -21.5 45.5c0 11.333 3.5 21.666 10.5 30.999s15.5 16.666 25.5 21.999l7 -14c-7.33301 -4 -13.5 -9.33301 -18.5 -16s-7.5 -14.334 -7.5 -23.001c0 -14 5.5 -24.333 16.5 -31s22.833 -10 35.5 -10c17.333 0 35.333 6.33301 54 19s37.334 28.667 56.001 48
c17.333 17.333 33.5 35.333 48.5 54s29.5 37.667 43.5 57l-31 49c-5.33301 8 -11.166 17.333 -17.499 28s-13.666 21 -21.999 31s-17.333 18.333 -27 25s-20.5 10 -32.5 10c-12.667 0 -24.167 -4.5 -34.5 -13.5s-17.166 -19.167 -20.499 -30.5l-15 5
c5.33301 18.667 15.833 34 31.5 46s33.167 18 52.5 18c13.333 0 25.833 -2.5 37.5 -7.5s22.5 -11.5 32.5 -19.5s19 -17 27 -27s15.333 -20 22 -30l32 -51c10.667 13.333 23.167 28.166 37.5 44.499s29.666 31.833 45.999 46.5s33.5 26.834 51.5 36.501s36.333 14.5 55 14.5
c8.66699 0 17.334 -1.33301 26.001 -4s16.5 -6.66699 23.5 -12s12.667 -11.833 17 -19.5s6.5 -16.5 6.5 -26.5c0 -11.333 -3.5 -21.666 -10.5 -30.999s-15.5 -16.666 -25.5 -21.999l-7 14c7.33301 4 13.666 9.33301 18.999 16s8 14.667 8 24
c0 14 -5.83301 24.167 -17.5 30.5s-25.167 9.5 -40.5 9.5c-16 0 -32.667 -5 -50 -15s-34.166 -22 -50.499 -36s-31.333 -28.667 -45 -44l-34.5 -40l68 -109c5.33301 -8.66699 11.166 -17.5 17.499 -26.5s13.166 -17.333 20.499 -25s15.5 -14 24.5 -19s19.167 -7.5 30.5 -7.5
c18.667 0 35 7.16699 49 21.5s24 29.5 30 45.5l15 -5c-9.33301 -24 -23.666 -43.833 -42.999 -59.5s-42 -23.5 -68 -23.5z" />
    <glyph glyph-name="y" unicode="y" horiz-adv-x="674" 
d="M653 287c0 20 -6.66797 35.334 -20.001 46.001s-29.666 16 -48.999 16c-20 0 -38.333 -4.5 -55 -13.5s-34 -23.167 -52 -42.5c-34 -36 -64.667 -75 -92 -117l-83 -128l-38.5 -59c-14.333 -22 -30.166 -44.333 -47.499 -67s-36 -44.834 -56 -66.501s-41 -41 -63 -58
s-45 -30.667 -69 -41s-48.667 -15.5 -74 -15.5c-17.333 0 -34.166 2.83301 -50.499 8.5s-30.666 13.834 -42.999 24.501s-22.166 23.5 -29.499 38.5s-11 31.833 -11 50.5c0 16.667 3.16699 32.5 9.5 47.5s15.166 28.167 26.499 39.5s24.333 20.5 39 27.5
s30.667 10.5 48 10.5c15.333 0 29.333 -3.33301 42 -10s23.667 -16 33 -28l-13 -9c-14.667 21.333 -35.334 32 -62.001 32c-29.333 0 -53 -10 -71 -30s-27 -44 -27 -72c0 -16 3.16699 -30.833 9.5 -44.5s14.833 -25.667 25.5 -36s23.167 -18.333 37.5 -24
s29.166 -8.5 44.499 -8.5c28 0 55.5 8.66699 82.5 26s52 37.833 75 61.5s43.5 48.167 61.5 73.5l44 62l39 57l-91 226c-8 19.333 -16.167 35 -24.5 47s-20.166 18 -35.499 18c-14 0 -24.833 -6.5 -32.5 -19.5s-11.5 -25.5 -11.5 -37.5c0 -18 6.33301 -33.333 19 -46l-11 -11
c-16 16 -24 35 -24 57s6.83301 40.833 20.5 56.5s32.167 23.5 55.5 23.5c22 0 40.5 -8.16699 55.5 -24.5s26.5 -34.166 34.5 -53.499l74 -188l60.5 92c21.667 32.667 44.667 63 69 91s50.166 51.167 77.499 69.5s56.333 27.5 87 27.5c10.667 0 21.167 -1.66699 31.5 -5
s19.666 -8 27.999 -14s15 -13.5 20 -22.5s7.5 -19.167 7.5 -30.5c0 -18.667 -5.83301 -35.334 -17.5 -50.001s-27.167 -22.334 -46.5 -23.001c-12.667 1.33301 -24 5.33301 -34 12l9 13c8 -6 16.667 -9 26 -9c14 0 24.5 5 31.5 15s10.5 21.667 10.5 35z" />
    <glyph glyph-name="z" unicode="z" horiz-adv-x="541" 
d="M116 41c-3.33301 0.666992 -7 1.16797 -11 1.50098s-10 0.5 -18 0.5c-3.33301 0 -8.5 -0.333008 -15.5 -1s-14.167 -2 -21.5 -4s-13.833 -4.66699 -19.5 -8s-8.5 -7.33301 -8.5 -12c0 -4 2.5 -7.16699 7.5 -9.5s9.83301 -3.5 14.5 -3.5c14 0 26.5 3.16699 37.5 9.5
s22.5 15.166 34.5 26.499zM191 58.001l-3.50293 -3.50391l-3.5 -3.5c34 -5.33301 67.833 -11.833 101.5 -19.5s67.5 -11.5 101.5 -11.5c10.667 0 22.5 1.5 35.5 4.5s25.167 7.83301 36.5 14.5s20.666 15 27.999 25s11 21.667 11 35c0 10.667 -3.5 19.334 -10.5 26.001
s-15.833 10 -26.5 10c-12.667 0 -22.667 -4.66699 -30 -14l-12 10c10.667 12.667 25 19 43 19c14 0 26.667 -4.16699 38 -12.5s17 -20.166 17 -35.499c0 -20 -5 -36.667 -15 -50s-22.667 -23.833 -38 -31.5s-32 -13.167 -50 -16.5s-35.333 -5 -52 -5
c-24 0 -48.333 2.16699 -73 6.5s-48.667 9.5 -72 15.5c-16 4 -33.333 8 -52 12c-17.333 -13.333 -36.166 -24 -56.499 -32s-42.166 -12 -65.499 -12c-8.66699 0 -18 2.33301 -28 7s-15 12 -15 22c0 8.66699 3 15.667 9 21s13.333 9.5 22 12.5s17.834 5 27.501 6
s17.834 1.5 24.501 1.5c8 0 15.833 -0.166992 23.5 -0.5s15.5 -0.833008 23.5 -1.5l232 264c-18 0 -34.833 0.666992 -50.5 2s-31 3 -46 5s-30 3.66699 -45 5s-31.167 2 -48.5 2c-10 0 -21.167 -1.16699 -33.5 -3.5s-23.666 -6.16602 -33.999 -11.499
s-19.166 -12.333 -26.499 -21s-11 -19.667 -11 -33c0 -12.667 4.5 -23.167 13.5 -31.5s19.5 -12.5 31.5 -12.5c16 0 28.333 6.33301 37 19l13 -9c-12 -17.333 -28.667 -26 -50 -26c-16.667 0 -30.834 5.83301 -42.501 17.5s-17.5 25.834 -17.5 42.501
c0 16 3.66699 29.833 11 41.5s17 21.5 29 29.5s25.5 13.833 40.5 17.5s29.833 5.5 44.5 5.5c30.667 0 61.167 -3.5 91.5 -10.5s61.166 -10.5 92.499 -10.5c13.333 0 27 1.33301 41 4s26.667 7.66699 38 15l9 -12z" />
    <glyph glyph-name="braceleft" unicode="{" horiz-adv-x="343" 
d="M187 -48c0 -18 -6.33398 -31.835 -19.001 -41.502s-27.667 -14.5 -45 -14.5c-18 0 -34.667 3.33301 -50 10s-28.333 15.834 -39 27.501s-19 25.334 -25 41.001s-9 32.5 -9 50.5c0 24 3.66699 48 11 72l33 104c1.33301 5.33301 2 10 2 14
c0 9.33301 -2.16699 18.333 -6.5 27s-10.833 14 -19.5 16l5 14c26.667 0 43.667 11.667 51 35l28 91c5.33301 16.667 13.166 32.167 23.499 46.5s22.5 26.5 36.5 36.5s29.333 17.833 46 23.5s34 8.5 52 8.5c9.33301 0 18.833 -1.33301 28.5 -4s18.334 -6.66699 26.001 -12
s14 -12 19 -20s7.5 -17.333 7.5 -28c0 -16 -5.66699 -29.167 -17 -39.5s-24.333 -15.5 -39 -15.5h-6.5c-2.33301 0 -4.5 0.333008 -6.5 1l4 15c1.33301 0 2.83301 -0.166992 4.5 -0.5s3.16699 -0.5 4.5 -0.5c10 0 18.667 4 26 12s11 17.667 11 29
c0 16.667 -7 28.834 -21 36.501s-28.333 11.5 -43 11.5s-27.834 -3.16699 -39.501 -9.5s-22 -14.5 -31 -24.5s-16.833 -21.167 -23.5 -33.5s-12 -24.833 -16 -37.5l-26 -85c-4.66699 -14.667 -12.5 -26.834 -23.5 -36.501s-23.833 -15.834 -38.5 -18.501
c16 -16 24 -35 24 -57c0 -9.33301 -1.33301 -18 -4 -26l-29 -94c-3.33301 -10.667 -6.16602 -22 -8.49902 -34s-3.5 -24 -3.5 -36c0 -26 6.66699 -48.167 20 -66.5s35 -27.5 65 -27.5c13.333 0 24.333 4 33 12s13 17.667 13 29c0 7.33301 -2 14.333 -6 21s-10 11.667 -18 15
l6 14c10.667 -4 18.834 -10.667 24.501 -20s8.5 -19.666 8.5 -30.999z" />
    <glyph glyph-name="bar" unicode="|" horiz-adv-x="68" 
d="M12 617h44v-1006h-44v1006z" />
    <glyph glyph-name="braceright" unicode="}" horiz-adv-x="343" 
d="M156 457c0 18.667 6.33398 32.665 19.001 41.998s27.667 14 45 14c18 0 34.667 -3.33301 50 -10s28.333 -15.834 39 -27.501s19 -25.334 25 -41.001s9 -32.5 9 -50.5c0 -24 -3.66699 -48 -11 -72l-33 -104c-1.33301 -5.33301 -2 -9.66602 -2 -12.999
c0 -9.33301 2.16699 -18.5 6.5 -27.5s10.833 -14.5 19.5 -16.5l-5 -14c-26.667 0 -43.667 -11.667 -51 -35l-28 -91c-5.33301 -17.333 -13.166 -33 -23.499 -47s-22.5 -26 -36.5 -36s-29.333 -17.833 -46 -23.5s-34 -8.5 -52 -8.5c-9.33301 0 -18.833 1.33301 -28.5 4
s-18.334 6.83398 -26.001 12.501s-14 12.5 -19 20.5s-7.5 17.333 -7.5 28c0 16 5.66699 29 17 39s24.333 15 39 15h6.5c2.33301 0 4.5 -0.333008 6.5 -1l-4 -15c-2 0.666992 -5 1 -9 1c-10.667 0 -19.5 -4 -26.5 -12s-10.5 -17.667 -10.5 -29c0 -8.66699 2 -16 6 -22
s9 -11 15 -15s12.833 -6.83301 20.5 -8.5s15.167 -2.5 22.5 -2.5c14.667 0 27.834 3.16699 39.501 9.5s22 14.5 31 24.5s16.667 21.333 23 34s11.5 25.334 15.5 38.001l27 84c4.66699 14.667 12.5 26.834 23.5 36.501s23.833 15.834 38.5 18.501c-16 16 -24 35 -24 57
c0 9.33301 1.33301 18 4 26l29 94c3.33301 10.667 6.16602 22 8.49902 34s3.5 24 3.5 36c0 26.667 -6.83301 49.167 -20.5 67.5s-35.167 27.5 -64.5 27.5c-13.333 0 -24.333 -4 -33 -12s-13 -18 -13 -30c0 -7.33301 2 -14.333 6 -21s10 -11.667 18 -15l-6 -14
c-10.667 4 -18.834 10.667 -24.501 20s-8.5 19.666 -8.5 30.999z" />
    <glyph glyph-name="asciitilde" unicode="~" horiz-adv-x="427" 
d="M427 266c-18 -18 -36 -30.8311 -54 -38.498s-37 -11.5 -57 -11.5c-17.333 0 -34.833 2.66699 -52.5 8s-35.167 11.166 -52.5 17.499s-34.166 12.166 -50.499 17.499s-31.833 8 -46.5 8c-13.333 0 -26.333 -2.66699 -39 -8s-25.667 -14.333 -39 -27l-36 37
c18 18 36.5 30.667 55.5 38s38.5 11 58.5 11c16.667 0 33.667 -2.66699 51 -8s34.666 -11 51.999 -17l50.5 -17c16.333 -5.33301 31.833 -8 46.5 -8c13.333 0 26 2.33301 38 7s24.667 13.667 38 27l37 -36v0z" />
    <glyph glyph-name="nonbreakingspace" unicode="&#xa0;" horiz-adv-x="300" 
 />
    <glyph glyph-name="exclamdown" unicode="&#xa1;" horiz-adv-x="210" 
d="M171 248c-10 0 -19 3.33301 -27 10s-12 15.334 -12 26.001c0 11.333 4 20.333 12 27s17 10 27 10s19 -3.33301 27 -10s12 -15.667 12 -27c0 -10.667 -4 -19.334 -12 -26.001s-17 -10 -27 -10zM0 -204l145 432h31l-120 -434z" />
    <glyph glyph-name="cent" unicode="&#xa2;" horiz-adv-x="309" 
d="M203 389c-20 -2 -38.166 -7.50098 -54.499 -16.501s-30.333 -20.5 -42 -34.5s-20.667 -30.167 -27 -48.5s-9.5 -37.5 -9.5 -57.5c0 -22.667 4.66699 -43.167 14 -61.5s22.666 -32.166 39.999 -41.499zM224.001 404.999
c8.66699 -0.666992 18.0049 -2.16797 28.0049 -4.50098s19.167 -5.83301 27.5 -10.5s15.333 -10.667 21 -18s8.5 -16.333 8.5 -27c0 -7.33301 -2.33301 -14.333 -7 -21s-11.334 -10 -20.001 -10c-6 0 -10.833 2.33301 -14.5 7s-5.5 9.66699 -5.5 15
c0 3.33301 0.666992 7 2 11c1.33301 2.66699 3.16602 5 5.49902 7s3.5 4 3.5 6c0 4.66699 -2.16699 9 -6.5 13s-9.5 7.16699 -15.5 9.5s-12 4.16602 -18 5.49902s-10.667 2 -14 2l-81 -268c10.667 -4 23 -6 37 -6c19.333 0 37.666 5.83301 54.999 17.5
s30.666 25.5 39.999 41.5l13 -8c-12.667 -22.667 -30.334 -40.167 -53.001 -52.5s-46.667 -18.5 -72 -18.5c-4.66699 0 -9.16699 0.166992 -13.5 0.5s-8.83301 0.833008 -13.5 1.5l-30 -98h-16l31 102c-26 8 -47.833 22.333 -65.5 43s-26.5 46 -26.5 76
c0 24.667 5 47.834 15 69.501s23.5 40.834 40.5 57.501s36.667 30 59 40s45.5 15.667 69.5 17l28 92h16z" />
    <glyph glyph-name="sterling" unicode="&#xa3;" horiz-adv-x="525" 
d="M161 195l4.99805 14.9951h89c10 22 19.167 44.333 27.5 67s17.166 45.334 26.499 68.001c6.66699 17.333 15.167 36.166 25.5 56.499s22.333 39.166 36 56.499s29.334 31.833 47.001 43.5s37.5 17.5 59.5 17.5c9.33301 0 19.333 -2.5 30 -7.5s16 -13.167 16 -24.5
c0 -9.33301 -3.16699 -16.833 -9.5 -22.5s-13.833 -8.5 -22.5 -8.5c-5.33301 0 -10.333 1.66699 -15 5s-8.66699 7.33301 -12 12c-3.33301 4 -7.66602 7 -12.999 9s-10.666 3 -15.999 3c-8 0 -15.5 -2.66699 -22.5 -8s-13 -11.666 -18 -18.999s-9.33301 -15.166 -13 -23.499
s-6.5 -15.833 -8.5 -22.5c-6 -21.333 -12.667 -42.166 -20 -62.499s-14.333 -41.166 -21 -62.499l-14 -39.5c-4.66699 -13 -9.66699 -25.5 -15 -37.5h91l-4 -15h-94c-5.33301 -11.333 -11 -22 -17 -32s-12.333 -19.667 -19 -29c-24.667 -33.333 -52.667 -59 -84 -77
c17.333 -2 35 -5.66699 53 -11l56 -17l77.5 -21.5c26.333 -7 53.5 -10.5 81.5 -10.5c10.667 0 19.834 3.16699 27.501 9.5s11.5 13.5 11.5 21.5c0 5.33301 -1.66699 10 -5 14s-5 10 -5 18c0 6.66699 2.16699 12.667 6.5 18s10.166 8 17.499 8
c8.66699 0 15.5 -3.33301 20.5 -10s7.5 -13.667 7.5 -21c0 -17.333 -5 -31.5 -15 -42.5s-22.5 -19.5 -37.5 -25.5s-31.333 -10.167 -49 -12.5s-33.834 -3.5 -48.501 -3.5c-51.333 0 -101.333 10.333 -150 31c-10.667 4.66699 -23.667 10.834 -39 18.501
s-31.333 11.5 -48 11.5c-11.333 -13.333 -24.333 -24.5 -39 -33.5s-31 -13.5 -49 -13.5c-5.33301 0 -11 1.33301 -17 4s-9 7.33398 -9 14.001c0 11.333 5 20.5 15 27.5s21.833 12.667 35.5 17s27.334 7.33301 41.001 9s24.5 2.5 32.5 2.5c22.667 16 42 36.333 58 61
s30 49.667 42 75h-87z" />
    <glyph glyph-name="currency" unicode="&#xa4;" horiz-adv-x="584" 
d="M522 333c6.66699 14.667 9.99414 28.333 9.99414 41c0 20.667 -5.5 39 -16.5 55s-25 29.333 -42 40s-36 18.834 -57 24.501s-41.5 8.5 -61.5 8.5c-33.333 0 -63.666 -5.83301 -90.999 -17.5s-51 -27.667 -71 -48s-36.167 -44 -48.5 -71s-20.166 -55.833 -23.499 -86.5
h395l-7 -16h-389c0 -3.33301 -0.166992 -6.66602 -0.5 -9.99902s-0.5 -6.66602 -0.5 -9.99902c0 -2.66699 0.166992 -5.33398 0.5 -8.00098s0.5 -5.33398 0.5 -8.00098h372l-7 -16h-364c2.66699 -28 9.66699 -54.167 21 -78.5s26 -45.333 44 -63s39.333 -31.5 64 -41.5
s52.334 -15 83.001 -15c24.667 0 49.334 3.5 74.001 10.5s46.667 18.167 66 33.5v-20c-21.333 -15.333 -44.666 -26.333 -69.999 -33s-50.666 -10 -75.999 -10c-34.667 0 -67 5 -97 15s-56.333 24.167 -79 42.5s-41.167 41 -55.5 68s-22.833 57.5 -25.5 91.5h-46l5 16h40v10
v13.5c0 4.33301 0.333008 8.5 1 12.5h-46l5 16h43c4.66699 34.667 15.334 66.667 32.001 96s37.667 54.666 63 75.999s54 38 86 50s66 18 102 18c20 0 40.167 -1.83301 60.5 -5.5s39.666 -9.5 57.999 -17.5s35 -18.5 50 -31.5s27.167 -28.833 36.5 -47.5l10 20l14 -6
l-45 -98h-17v0z" />
    <glyph glyph-name="yen" unicode="&#xa5;" horiz-adv-x="557" 
d="M240 301c5.33301 23.333 15.499 48.168 30.499 74.501s33.333 50.5 55 72.5s46 40.333 73 55s55.167 22 84.5 22c8 0 16.333 -0.833008 25 -2.5s16.667 -4.66699 24 -9s13.333 -9.83301 18 -16.5s7 -15 7 -25c0 -7.33301 -2 -14.333 -6 -21s-9.33301 -12 -16 -16l-9 12
c4 3.33301 7.5 7 10.5 11s4.5 9 4.5 15c0 11.333 -5.66699 19.666 -17 24.999s-22.666 8 -33.999 8c-16 0 -32.5 -4 -49.5 -12s-33.667 -18.667 -50 -32s-31.833 -28 -46.5 -44s-28 -32.333 -40 -49s-22.167 -32.334 -30.5 -47.001s-14.166 -27 -17.499 -37h181l-5 -16h-178
l-10 -36h177l-5 -16h-176l-43 -158c-1.33301 -5.33301 -2 -9.33301 -2 -12c0 -10.667 3.16699 -18.5 9.5 -23.5s14.5 -7.5 24.5 -7.5h22l-5 -16h-177l4 16c18 0 33.5 2.83301 46.5 8.5s22.167 18.834 27.5 39.501l42 153h-165l5 16h164l10 36h-163l5 16h159
c0 21.333 -3.16699 45 -9.5 71s-15.833 50.333 -28.5 73s-28.5 41.667 -47.5 57s-41.5 23.333 -67.5 24v15h4c33.333 0 61.666 -6.16699 84.999 -18.5s42.5 -28.833 57.5 -49.5s25.833 -44.5 32.5 -71.5s10 -55.167 10 -84.5z" />
    <glyph glyph-name="brokenbar" unicode="&#xa6;" horiz-adv-x="68" 
d="M12 617h44v-483h-44v483zM12 94h44v-483h-44v483z" />
    <glyph glyph-name="section" unicode="&#xa7;" horiz-adv-x="752" 
d="M126 156c0.666992 -14.667 5.5 -27.334 14.5 -38.001s19.833 -19.667 32.5 -27s26.334 -12.833 41.001 -16.5s28 -5.5 40 -5.5c22.667 0 45.667 6.33301 69 19s46 28.667 68 48s43.167 40.5 63.5 63.5l56.5 64.5l16 19.5l16 18.5
c7.33301 8.66699 13.166 17.334 17.499 26.001s6.5 19 6.5 31c0 19.333 -7.16699 35.833 -21.5 49.5s-31.166 20.5 -50.499 20.5c-14 0 -27.333 -3.16699 -40 -9.5s-24.834 -15 -36.501 -26s-23.167 -23.5 -34.5 -37.5l-34 -44c-14 -18.667 -28.667 -37.167 -44 -55.5
s-32 -34.833 -50 -49.5s-37.667 -26.667 -59 -36s-45 -14.333 -71 -15zM582 359c0 -7.33301 -0.665039 -14.3242 -1.99805 -20.9912s-3.66602 -13.334 -6.99902 -20.001c10.667 14 24 24.833 40 32.5s32.667 11.5 50 11.5c11.333 0 22.333 -1.83301 33 -5.5
s20.167 -8.83398 28.5 -15.501s15 -14.834 20 -24.501s7.5 -20.5 7.5 -32.5c0 -19.333 -6.33301 -36.5 -19 -51.5s-29.667 -22.5 -51 -22.5c-2 0 -4 0.166992 -6 0.5s-4.33301 0.5 -7 0.5l3 16c2 -0.666992 4.66699 -1 8 -1c15.333 0 28.666 5.5 39.999 16.5
s17.333 24.833 18 41.5c-0.666992 15.333 -6.5 28.5 -17.5 39.5s-24.5 16.5 -40.5 16.5c-15.333 0 -30.5 -5.33301 -45.5 -16s-27.167 -21.667 -36.5 -33l-22 -25.5l-22 -25.5l-60.5 -70c-20.333 -22.667 -42.333 -42.834 -66 -60.501s-49.5 -32 -77.5 -43
s-60 -16.5 -96 -16.5c-14.667 0 -30.334 2.5 -47.001 7.5s-32 12.167 -46 21.5s-25.667 20.666 -35 33.999s-14.333 28 -15 44c-16 2 -30.667 6.5 -44 13.5s-25 16 -35 27s-17.833 23.667 -23.5 38s-8.5 29.5 -8.5 45.5c0 14 2.66699 27 8 39s12.666 22.667 21.999 32
s20 16.666 32 21.999s25 8 39 8c19.333 0 37 -5.83301 53 -17.5s26 -27.167 30 -46.5l-15 -3c-3.33301 16 -11.666 28.5 -24.999 37.5s-28 13.5 -44 13.5c-12 0 -23.167 -2.33301 -33.5 -7s-19.333 -10.834 -27 -18.501s-13.667 -16.834 -18 -27.501s-6.5 -22 -6.5 -34
c0 -14 2.83301 -27 8.5 -39s13.5 -22.333 23.5 -31s21.333 -15.5 34 -20.5s26 -7.5 40 -7.5c20 0 38.5 4.16699 55.5 12.5s32.833 19.166 47.5 32.499s28.5 28.5 41.5 45.5l38.5 51.5l36.5 49c12.333 16 25.333 30.333 39 43s28.167 22.667 43.5 30s32 11 50 11
c13.333 0 26.5 -2.33301 39.5 -7s24.667 -11.167 35 -19.5s18.666 -18.5 24.999 -30.5s9.5 -25.333 9.5 -40z" />
    <glyph glyph-name="dieresis" unicode="&#xa8;" horiz-adv-x="165" 
d="M36 450c10 0 18.5 -3.5 25.5 -10.5s10.5 -15.5 10.5 -25.5c0 -9.33301 -3.5 -17.666 -10.5 -24.999s-15.5 -11 -25.5 -11s-18.5 3.66699 -25.5 11s-10.5 15.666 -10.5 24.999c0 10 3.5 18.5 10.5 25.5s15.5 10.5 25.5 10.5zM129 450c10 0 18.5 -3.5 25.5 -10.5
s10.5 -15.5 10.5 -25.5c0 -9.33301 -3.5 -17.666 -10.5 -24.999s-15.5 -11 -25.5 -11s-18.5 3.66699 -25.5 11s-10.5 15.666 -10.5 24.999c0 10 3.5 18.5 10.5 25.5s15.5 10.5 25.5 10.5z" />
    <glyph glyph-name="copyright" unicode="&#xa9;" horiz-adv-x="525" 
d="M250 440c26 0 50.6641 -6.66992 73.9971 -20.0029v14c0 7.33301 3.33301 11 10 11c2.66699 0 5.83398 -1.5 9.50098 -4.5s7.33398 -6.66699 11.001 -11s6.83398 -8.66602 9.50098 -12.999s4.66699 -7.83301 6 -10.5c5.33301 -8 10 -16.667 14 -26s7.33301 -18.333 10 -27
l-14 -7c-15.333 22 -33.833 40.667 -55.5 56s-46.5 23 -74.5 23c-19.333 0 -36.166 -5 -50.499 -15s-26.166 -22.667 -35.499 -38s-16.5 -32.166 -21.5 -50.499s-7.5 -35.5 -7.5 -51.5c0 -22 3.33301 -43.5 10 -64.5s16.5 -40 29.5 -57s29 -30.667 48 -41
s40.5 -15.5 64.5 -15.5c37.333 0 70.666 11.667 99.999 35l10 -12c-36 -28.667 -77.667 -43 -125 -43c-25.333 0 -48.833 5 -70.5 15s-40.5 23.333 -56.5 40s-28.667 36.167 -38 58.5s-14 45.833 -14 70.5c0 22 3.66699 44 11 66s17.666 41.833 30.999 59.5
s29.833 31.834 49.5 42.501s41.5 16 65.5 16zM262.997 503.997c-34 0 -66.167 -6.5 -96.5 -19.5s-56.666 -30.667 -78.999 -53s-40 -48.5 -53 -78.5s-19.5 -62 -19.5 -96s6.5 -66 19.5 -96s30.667 -56.167 53 -78.5s48.666 -40 78.999 -53s62.5 -19.5 96.5 -19.5
s66 6.5 96 19.5s56.167 30.667 78.5 53s40 48.5 53 78.5s19.5 62 19.5 96s-6.5 66 -19.5 96s-30.667 56.167 -53 78.5s-48.5 40 -78.5 53s-62 19.5 -96 19.5zM262.997 518.997c36 0 69.833 -6.83301 101.5 -20.5s59.5 -32.5 83.5 -56.5s42.833 -51.833 56.5 -83.5
s20.5 -65.5 20.5 -101.5s-6.83301 -70 -20.5 -102s-32.5 -60 -56.5 -84s-51.833 -42.833 -83.5 -56.5s-65.5 -20.5 -101.5 -20.5s-70 6.83301 -102 20.5s-60 32.5 -84 56.5s-42.833 52 -56.5 84s-20.5 66 -20.5 102s6.83301 69.833 20.5 101.5s32.5 59.5 56.5 83.5
s52 42.833 84 56.5s66 20.5 102 20.5z" />
    <glyph glyph-name="ordfeminine" unicode="&#xaa;" horiz-adv-x="272" 
d="M198 462c-3.33301 16 -10.334 28.3311 -21.001 36.998s-21.667 13 -33 13c-15.333 0 -29.166 -4 -41.499 -12s-22.666 -18.167 -30.999 -30.5s-14.666 -26.166 -18.999 -41.499s-6.5 -30 -6.5 -44c0 -25.333 4.66699 -43.666 14 -54.999s20.333 -17 33 -17
c15.333 0 31.166 7.16699 47.499 21.5s28.166 33.5 35.499 57.5zM271.999 360.998c-2.66699 -6.66699 -5.83789 -13.5029 -9.50488 -20.5029s-8 -13.5 -13 -19.5s-10.833 -10.833 -17.5 -14.5s-14 -5.5 -22 -5.5c-13.333 0 -23.333 5.33301 -30 16s-10 22.334 -10 35.001
c-10 -17.333 -22.333 -30.333 -37 -39s-29.667 -13 -45 -13c-19.333 0 -36.666 6.83301 -51.999 20.5s-23 34.834 -23 63.501c0 16 3 32.333 9 49s14.667 31.667 26 45s25 24.333 41 33s33.667 13 53 13c12.667 0 24.834 -3.83301 36.501 -11.5s19.834 -18.167 24.501 -31.5
l12 38h27l-38 -126c-2 -6 -3.66699 -13 -5 -21s-2 -15.333 -2 -22c0 -6 1.5 -13.167 4.5 -21.5s9.16699 -12.5 18.5 -12.5c5.33301 0 10.333 1.66699 15 5s8.83398 7.5 12.501 12.5s6.83398 10.333 9.50098 16s4.66699 10.834 6 15.501l9 -4v0zM244.995 282.995l-5 -17h-240
l5 17h240z" />
    <glyph glyph-name="guillemotleft" unicode="&#xab;" horiz-adv-x="231" 
d="M0 213l110 144h21l-70 -144l69 -143h-20zM100 213l110 144h21l-70 -144l69 -143h-20z" />
    <glyph glyph-name="logicalnot" unicode="&#xac;" horiz-adv-x="367" 
d="M316 247h-316v52h367v-165h-51v113z" />
    <glyph glyph-name="registered" unicode="&#xae;" horiz-adv-x="292" 
d="M128 444c-5.33301 0 -8 -2.66699 -8 -8v-74c6.66699 -2.66699 12.667 -4 18 -4c11.333 0 21.333 4.16699 30 12.5s13 18.5 13 30.5s-4.33301 22.167 -13 30.5s-18.667 12.5 -30 12.5h-10v0zM143 459c17.333 0 33.001 -5.33203 47.001 -15.999s21 -25 21 -43
c0 -12.667 -4 -23.667 -12 -33s-17.667 -16.333 -29 -21l15.5 -29c5.66699 -10.667 14.167 -16 25.5 -16h4l3 -15c-5.33301 -2 -10.333 -3 -15 -3c-14.667 0 -25.334 3.66699 -32.001 11s-12.667 15.666 -18 24.999c-2.66699 4.66699 -5.5 9 -8.5 13
s-6.16699 7.33301 -9.5 10c-5.33301 0 -10.333 1 -15 3v-32c0 -8.66699 4.33301 -13 13 -13v-16h-52v16c8 0 12 4.33301 12 13v123c0 5.33301 -2.66699 8 -8 8h-4v15h62zM146.001 504.001c-18 0 -35 -3.5 -51 -10.5s-29.833 -16.333 -41.5 -28s-21 -25.5 -28 -41.5
s-10.5 -33 -10.5 -51s3.5 -34.833 10.5 -50.5s16.333 -29.5 28 -41.5s25.5 -21.333 41.5 -28s33 -10 51 -10s34.833 3.33301 50.5 10s29.5 16 41.5 28s21.333 25.833 28 41.5s10 32.5 10 50.5s-3.33301 35 -10 51s-16 29.833 -28 41.5s-25.833 21 -41.5 28
s-32.5 10.5 -50.5 10.5zM146.001 519.001c20 0 38.833 -3.83301 56.5 -11.5s33.167 -18 46.5 -31s23.833 -28.5 31.5 -46.5s11.5 -37 11.5 -57s-3.83301 -38.833 -11.5 -56.5s-18.167 -33.167 -31.5 -46.5s-28.833 -23.833 -46.5 -31.5s-36.5 -11.5 -56.5 -11.5
s-38.833 3.83301 -56.5 11.5s-33.167 18.167 -46.5 31.5s-23.833 28.833 -31.5 46.5s-11.5 36.5 -11.5 56.5s3.83301 39 11.5 57s18.167 33.5 31.5 46.5s28.833 23.333 46.5 31s36.5 11.5 56.5 11.5z" />
    <glyph glyph-name="macron" unicode="&#xaf;" horiz-adv-x="297" 
d="M297 409v-42h-297v42h297z" />
    <glyph glyph-name="degree" unicode="&#xb0;" horiz-adv-x="219" 
d="M110 518c-16 0 -29.833 -5.66699 -41.5 -17s-17.5 -25 -17.5 -41s5.83301 -29.667 17.5 -41s25.5 -17 41.5 -17s29.667 5.66699 41 17s17 25 17 41s-5.66699 29.667 -17 41s-25 17 -41 17zM110 569c14.667 0 28.667 -2.83301 42 -8.5s25 -13.5 35 -23.5
s17.833 -21.667 23.5 -35s8.5 -27.333 8.5 -42c0 -15.333 -2.83301 -29.666 -8.5 -42.999s-13.5 -25 -23.5 -35s-21.667 -17.833 -35 -23.5s-27.333 -8.5 -42 -8.5c-15.333 0 -29.666 2.83301 -42.999 8.5s-25 13.5 -35 23.5s-17.833 21.667 -23.5 35
s-8.5 27.666 -8.5 42.999c0 14.667 2.83301 28.667 8.5 42s13.5 25 23.5 35s21.667 17.833 35 23.5s27.666 8.5 42.999 8.5z" />
    <glyph glyph-name="plusminus" unicode="&#xb1;" horiz-adv-x="367" 
d="M367 51v-52h-367v52h367zM158 299v158h51v-158h158v-52h-158v-158h-51v158h-158v52h158z" />
    <glyph glyph-name="twosuperior" unicode="&#xb2;" horiz-adv-x="0" 
 />
    <glyph glyph-name="threesuperior" unicode="&#xb3;" horiz-adv-x="0" 
 />
    <glyph glyph-name="acute" unicode="&#xb4;" horiz-adv-x="208" 
d="M144 489c10.667 9.33301 22.001 14 34.001 14c8 0 15 -2.33301 21 -7s9 -12 9 -22c0 -6 -1.83301 -12.167 -5.5 -18.5s-9.83398 -11.5 -18.501 -15.5l-156 -80h-28z" />
    <glyph glyph-name="mu" unicode="&#xb5;" horiz-adv-x="481" 
d="M15 248c0 -10 2.33301 -20.335 7 -31.002l-13 -7c-6 12 -9 24.667 -9 38s2.83301 25.833 8.5 37.5s13.167 21.667 22.5 30s20.166 14.833 32.499 19.5s25.166 7 38.499 7c21.333 0 38.833 -6.16699 52.5 -18.5s20.5 -29.5 20.5 -51.5c0 -11.333 -1.33301 -21 -4 -29
l-40 -134c-2 -6 -3.33301 -12.5 -4 -19.5s-1 -13.833 -1 -20.5c0 -7.33301 1.16699 -15.166 3.5 -23.499s5.66602 -15.833 9.99902 -22.5s9.83301 -12.167 16.5 -16.5s14.334 -6.5 23.001 -6.5c17.333 0 32.833 5 46.5 15s26 22.333 37 37s20.5 30.167 28.5 46.5l21 44.5
l89 198h53l-78 -253l-4 -16c-1.33301 -5.33301 -2 -11 -2 -17c0 -9.33301 1.83301 -17.666 5.5 -24.999s10.834 -11 21.501 -11c16.667 0 31 6.66699 43 20s21 27 27 41l14 -6c-4 -9.33301 -9.5 -18.833 -16.5 -28.5s-14.833 -18.5 -23.5 -26.5s-18.167 -14.5 -28.5 -19.5
s-20.833 -7.5 -31.5 -7.5c-17.333 0 -31.333 5 -42 15s-16 24 -16 42c0 12.667 2 25 6 37l52 173l-55 -122c-6.66699 -15.333 -14.5 -31.833 -23.5 -49.5s-19.333 -34 -31 -49s-25.167 -27.667 -40.5 -38s-32.666 -15.5 -51.999 -15.5c-30.667 0 -55.667 11.667 -75 35
l-38 -124h-47l109 360c3.33301 10 5 19 5 27c0 12.667 -4.5 22.5 -13.5 29.5s-19.167 10.5 -30.5 10.5c-20 0 -37.333 -7.5 -52 -22.5s-22 -32.5 -22 -52.5z" />
    <glyph glyph-name="mu" unicode="&#x3bc;" horiz-adv-x="481" 
d="M15 248c0 -10 2.33301 -20.335 7 -31.002l-13 -7c-6 12 -9 24.667 -9 38s2.83301 25.833 8.5 37.5s13.167 21.667 22.5 30s20.166 14.833 32.499 19.5s25.166 7 38.499 7c21.333 0 38.833 -6.16699 52.5 -18.5s20.5 -29.5 20.5 -51.5c0 -11.333 -1.33301 -21 -4 -29
l-40 -134c-2 -6 -3.33301 -12.5 -4 -19.5s-1 -13.833 -1 -20.5c0 -7.33301 1.16699 -15.166 3.5 -23.499s5.66602 -15.833 9.99902 -22.5s9.83301 -12.167 16.5 -16.5s14.334 -6.5 23.001 -6.5c17.333 0 32.833 5 46.5 15s26 22.333 37 37s20.5 30.167 28.5 46.5l21 44.5
l89 198h53l-78 -253l-4 -16c-1.33301 -5.33301 -2 -11 -2 -17c0 -9.33301 1.83301 -17.666 5.5 -24.999s10.834 -11 21.501 -11c16.667 0 31 6.66699 43 20s21 27 27 41l14 -6c-4 -9.33301 -9.5 -18.833 -16.5 -28.5s-14.833 -18.5 -23.5 -26.5s-18.167 -14.5 -28.5 -19.5
s-20.833 -7.5 -31.5 -7.5c-17.333 0 -31.333 5 -42 15s-16 24 -16 42c0 12.667 2 25 6 37l52 173l-55 -122c-6.66699 -15.333 -14.5 -31.833 -23.5 -49.5s-19.333 -34 -31 -49s-25.167 -27.667 -40.5 -38s-32.666 -15.5 -51.999 -15.5c-30.667 0 -55.667 11.667 -75 35
l-38 -124h-47l109 360c3.33301 10 5 19 5 27c0 12.667 -4.5 22.5 -13.5 29.5s-19.167 10.5 -30.5 10.5c-20 0 -37.333 -7.5 -52 -22.5s-22 -32.5 -22 -52.5z" />
    <glyph glyph-name="paragraph" unicode="&#xb6;" horiz-adv-x="484" 
d="M322 84c16 0 28.499 6.99902 37.499 20.999s15.667 30.333 20 49s7.16602 37.5 8.49902 56.5s2 33.5 2 43.5v194c0 6.66699 -2.33301 12.334 -7 17.001s-10.667 7 -18 7c-12.667 0 -24.667 -6.5 -36 -19.5s-21.666 -30.5 -30.999 -52.5
c-9.33301 -23.333 -16.666 -50.666 -21.999 -81.999s-8 -65 -8 -101c0 -8 0.5 -19.333 1.5 -34s3.33301 -29.334 7 -44.001s9 -27.5 16 -38.5s16.833 -16.5 29.5 -16.5zM278.999 -179.001c22.667 0 41.167 6.82422 55.5 20.4912s25.666 30.834 33.999 51.501
s14 43.334 17 68.001s4.5 47.667 4.5 69v93c-8.66699 -22 -20.334 -42 -35.001 -60s-31.5 -33.5 -50.5 -46.5s-39.5 -23 -61.5 -30s-45 -10.5 -69 -10.5c-22 0 -43.5 4 -64.5 12s-39.667 19.167 -56 33.5s-29.333 31.333 -39 51s-14.5 41.167 -14.5 64.5
c0 54.667 12.333 105.167 37 151.5s59 86.5 103 120.5c48.667 38 103 65.833 163 83.5s120.333 26.5 181 26.5v-15c-11.333 0 -21.333 -2.16699 -30 -6.5s-13 -13.166 -13 -26.499v-422c0 -24.667 -3.16699 -51.167 -9.5 -79.5s-16.166 -54.666 -29.499 -78.999
s-30.166 -44.666 -50.499 -60.999s-44.5 -24.5 -72.5 -24.5c-8 0 -15.833 1.16699 -23.5 3.5s-14.667 5.83301 -21 10.5s-11.5 10.334 -15.5 17.001s-6 14.334 -6 23.001c0 10 3.16699 19 9.5 27s13.833 14.333 22.5 19l7 -14c-6 -3.33301 -11.333 -7.66602 -16 -12.999
s-7 -11.666 -7 -18.999c0 -12.667 5.5 -22.167 16.5 -28.5s22.167 -9.5 33.5 -9.5z" />
    <glyph glyph-name="periodcentered" unicode="&#xb7;" horiz-adv-x="79" 
d="M39 227c10 0 19.167 -3.33301 27.5 -10s12.5 -15.334 12.5 -26.001c0 -11.333 -4.16699 -20.333 -12.5 -27s-17.5 -10 -27.5 -10s-19 3.33301 -27 10s-12 15.667 -12 27c0 10.667 4 19.334 12 26.001s17 10 27 10z" />
    <glyph glyph-name="cedilla" unicode="&#xb8;" horiz-adv-x="149" 
d="M77 -26c19.333 -4.66699 36.166 -14.668 50.499 -30.001s21.5 -33.666 21.5 -54.999c0 -12.667 -2.66699 -24.167 -8 -34.5s-12.166 -19.166 -20.499 -26.499s-18.166 -13 -29.499 -17s-23 -6 -35 -6c-4.66699 0 -10.167 0.333008 -16.5 1s-12.5 2.16699 -18.5 4.5
s-11 5.5 -15 9.5s-6 9.33301 -6 16c0 7.33301 2.66699 13 8 17s11.666 6 18.999 6c6 0 11 -1 15 -3s7.66699 -4.66699 11 -8c3.33301 -2.66699 6.83301 -5 10.5 -7s8.5 -3 14.5 -3c9.33301 0 17.833 3.5 25.5 10.5s11.5 15.167 11.5 24.5s-2.5 17.666 -7.5 24.999
s-11.5 13.333 -19.5 18s-16.5 8.16699 -25.5 10.5s-17.5 3.5 -25.5 3.5h-17l88 104l11 -10l-42 -50v0z" />
    <glyph glyph-name="onesuperior" unicode="&#xb9;" horiz-adv-x="0" 
 />
    <glyph glyph-name="ordmasculine" unicode="&#xba;" horiz-adv-x="268" 
d="M158 515c-16 0 -29.832 -4.00293 -41.499 -12.0029s-21.5 -18 -29.5 -30s-13.833 -25.333 -17.5 -40s-5.5 -29 -5.5 -43c0 -24 7.16699 -44.167 21.5 -60.5s33.833 -24.5 58.5 -24.5c14.667 0 27.667 3.83301 39 11.5s21 17.334 29 29.001s14 24.334 18 38.001
s6 26.834 6 39.501c0 24 -6.83301 45.333 -20.5 64s-32.834 28 -57.501 28zM245.001 282.997l-5 -17h-240l5 17h240zM144.001 293.997c-15.333 0 -29.668 2.99902 -43.001 8.99902s-25 14 -35 24s-17.833 21.667 -23.5 35s-8.5 27.666 -8.5 42.999
c0 17.333 3.33301 33.333 10 48s15.5 27.167 26.5 37.5s23.833 18.5 38.5 24.5s30.334 9 47.001 9c15.333 0 29.833 -3 43.5 -9s25.5 -14 35.5 -24s18 -21.833 24 -35.5s9 -28.167 9 -43.5c0 -17.333 -3.33301 -33.166 -10 -47.499s-15.667 -26.666 -27 -36.999
s-24.5 -18.5 -39.5 -24.5s-30.833 -9 -47.5 -9z" />
    <glyph glyph-name="guillemotright" unicode="&#xbb;" horiz-adv-x="231" 
d="M120 70h-19l69 143l-70 144h20l111 -144zM20 70h-19l69 143l-70 144h20l111 -144z" />
    <glyph glyph-name="onequarter" unicode="&#xbc;" horiz-adv-x="502" 
d="M367 117l55 179l-190 -179h135zM95 212c-2 -5.33301 -3 -10.333 -3 -15c0 -6 2.16699 -10.333 6.5 -13s9.16602 -4 14.499 -4h16l-4 -15h-125l5 15c12 0 22.667 2 32 6s16 13 20 27l79 258c0.666992 2 1.33398 4.33301 2.00098 7s1 4.66699 1 6
c0 4 -1.83301 6.66699 -5.5 8s-7.16699 2 -10.5 2h-20v15h19c11.333 0 22.333 0.833008 33 2.5s21 5.16699 31 10.5l7 -13l-8 -4zM438 524l-348 -525h-55l383 525h20zM429 117c12.667 0 24.166 3.33301 34.499 10s19.833 13.667 28.5 21l10 -11l-76 -72
c-4 6 -8.16699 10.833 -12.5 14.5s-10.166 6.16699 -17.499 7.5l-13 -40c-1.33301 -6.66699 -2 -11.667 -2 -15c0 -6 2 -10.333 6 -13s8.66699 -4 14 -4h12l-5 -16h-123l5 16c14 0 25.5 1.5 34.5 4.5s16.167 12.5 21.5 28.5l12 40h-152l-1 25l276 261l10 -12
c-11.333 -11.333 -19.333 -25.333 -24 -42l-62 -203h24z" />
    <glyph glyph-name="onehalf" unicode="&#xbd;" horiz-adv-x="554" 
d="M95 212c-2 -5.33301 -3 -10.333 -3 -15c0 -6 2.16699 -10.333 6.5 -13s9.16602 -4 14.499 -4h16l-4 -15h-125l5 15c12 0 22.667 2 32 6s16 13 20 27l79 258c0.666992 2 1.33398 4.33301 2.00098 7s1 4.66699 1 6c0 4 -1.83301 6.66699 -5.5 8s-7.16699 2 -10.5 2h-20v15
h19c11.333 0 22.333 0.833008 33 2.5s21 5.16699 31 10.5l7 -13l-8 -4zM438 524l-348 -525h-55l383 525h20zM444 -23c-5.33301 7.33301 -10.668 12.833 -16.001 16.5s-12.666 5.5 -21.999 5.5h-136l-4 14l126 89c12 8 24.5 17.5 37.5 28.5s25.167 23 36.5 36
s20.666 26.833 27.999 41.5s11 30 11 46c0 19.333 -7 34.333 -21 45s-29.667 16 -47 16c-14.667 0 -28.667 -2.33301 -42 -7s-25 -11 -35 -19s-18 -17.5 -24 -28.5s-9 -23.167 -9 -36.5c0 -11.333 3.33301 -21.833 10 -31.5s15.667 -17.167 27 -22.5l-5 -15
c-17.333 5.33301 -31 14.166 -41 26.499s-15 27.166 -15 44.499c0 18 4.16699 34.5 12.5 49.5s19.5 28 33.5 39s29.833 19.667 47.5 26s35.5 9.5 53.5 9.5c12.667 0 25.334 -2 38.001 -6s23.834 -9.66699 33.501 -17s17.5 -16.666 23.5 -27.999s9 -24 9 -38
c0 -16 -3.83301 -31.667 -11.5 -47s-17.667 -30.166 -30 -44.499s-26.333 -28 -42 -41s-31.834 -24.833 -48.501 -35.5l-95 -61h121c12 0 22.833 2.5 32.5 7.5s19.167 11.5 28.5 19.5l10 -12z" />
    <glyph glyph-name="threequarters" unicode="&#xbe;" horiz-adv-x="591" 
d="M456 117l54 179l-189 -179h135zM158 527c5.33301 -7.33301 10.667 -12.8301 16 -16.4971s12.666 -5.5 21.999 -5.5h125l5 -14l-121 -96l4 -1c22.667 -4.66699 40.667 -14.167 54 -28.5s20 -32.166 20 -53.499c0 -22.667 -5.5 -43.334 -16.5 -62.001
s-25 -34.834 -42 -48.501s-36.167 -24.334 -57.5 -32.001s-42.333 -11.5 -63 -11.5s-39.667 3.16699 -57 9.5s-33 17.166 -47 32.499l39 36c4.66699 -18.667 13.334 -33.334 26.001 -44.001s29.667 -16 51 -16c16.667 0 32.834 3.33301 48.501 10s29.667 15.5 42 26.5
s22.166 24 29.499 39s11 30.833 11 47.5c0 19.333 -6.5 34 -19.5 44s-30.167 15 -51.5 15c-4.66699 0 -9.16699 -0.333008 -13.5 -1s-8.5 -1.66699 -12.5 -3l-7 13l131 105h-121c-12 0 -22.833 -2.66699 -32.5 -8s-19.167 -11.666 -28.5 -18.999l-10 12zM526.001 525.003
l-348 -526h-54l383 526h19zM518.001 117.003c12 0 23.1709 3.33398 33.5039 10.001s20.166 13.667 29.499 21l10 -11l-76 -72c-4.66699 6 -9 10.833 -13 14.5s-9.66699 6.16699 -17 7.5l-13 -40c-1.33301 -6.66699 -2 -11.667 -2 -15c0 -6 2 -10.333 6 -13s8.66699 -4 14 -4
h11l-4 -16h-123l4 16c14 0 25.667 1.5 35 4.5s16.666 12.5 21.999 28.5l12 40h-152l-1 25l276 261l10 -12c-6.66699 -6 -11.834 -12.333 -15.501 -19s-6.83398 -14.334 -9.50098 -23.001l-61 -203h24z" />
    <glyph glyph-name="questiondown" unicode="&#xbf;" horiz-adv-x="329" 
d="M229 227c-3.33301 -28.667 -9.99805 -53.8311 -19.998 -75.498s-21.333 -41 -34 -58s-26 -32.333 -40 -46s-26.667 -27 -38 -40s-20.833 -26.167 -28.5 -39.5s-11.5 -28 -11.5 -44c0 -15.333 3.16699 -28.333 9.5 -39s14.5 -19.5 24.5 -26.5s21.333 -12.167 34 -15.5
s25.667 -5 39 -5c15.333 0 30.666 1.66699 45.999 5s29.666 8.5 42.999 15.5s25.333 16 36 27s19 24.167 25 39.5l15 -14c-7.33301 -18 -17.333 -34.167 -30 -48.5s-27 -26.5 -43 -36.5s-33.167 -17.833 -51.5 -23.5s-36.833 -8.5 -55.5 -8.5c-18 0 -35.833 2.5 -53.5 7.5
s-33.667 12.5 -48 22.5s-25.833 22.5 -34.5 37.5s-13 32.5 -13 52.5c0 24 4.5 44.667 13.5 62s20.5 33 34.5 47s29.333 27.333 46 40s32.834 26.667 48.501 42s29.667 32.666 42 51.999s21.166 42.666 26.499 69.999h18v0zM230.002 247.003c-10 0 -19 3.33301 -27 10
s-12 15.334 -12 26.001s4 19.334 12 26.001s17 10 27 10s19 -3.33301 27 -10s12 -15.334 12 -26.001s-4 -19.334 -12 -26.001s-17 -10 -27 -10z" />
    <glyph glyph-name="Agrave" unicode="&#xc0;" 
d="M685 222l63.5 -14.5c21 -5 42.167 -7.5 63.5 -7.5c12 0 23 2 33 6v283zM845 189c-8 -2.66699 -16.3291 -4.49609 -24.9961 -5.49609s-17.334 -1.5 -26.001 -1.5c-23.333 0 -45.333 2.16699 -66 6.5l-60 12.5c-24.667 -33.333 -52.334 -65.333 -83.001 -96
s-63.5 -57.667 -98.5 -81s-72.167 -41.833 -111.5 -55.5s-80 -20.5 -122 -20.5c-26.667 0 -54.167 3.83301 -82.5 11.5s-54.333 19.167 -78 34.5s-43 34.5 -58 57.5s-22.5 49.833 -22.5 80.5c0 36 7.83301 68.667 23.5 98s36.167 54.333 61.5 75s54.333 36.5 87 47.5
s66 16.5 100 16.5c16.667 0 34.5 -2.33301 53.5 -7s36.167 -12 51.5 -22s28.166 -22.333 38.499 -37s15.5 -32 15.5 -52c0 -24.667 -5.33301 -46.5 -16 -65.5s-24.5 -35.167 -41.5 -48.5s-36.667 -23.666 -59 -30.999s-44.833 -11 -67.5 -11v15c20 0 39.5 3 58.5 9
s35.833 14.667 50.5 26s26.5 25.166 35.5 41.499s13.5 35.5 13.5 57.5c0 18 -4.16699 33.833 -12.5 47.5s-19.166 25 -32.499 34s-28 15.667 -44 20s-32 6.5 -48 6.5c-30 0 -59.5 -5 -88.5 -15s-54.667 -24.333 -77 -43s-40.5 -41 -54.5 -67s-21 -55 -21 -87
c0 -28.667 6.33301 -54 19 -76s29.334 -40.5 50.001 -55.5s43.667 -26.333 69 -34s50.666 -11.5 75.999 -11.5c40 0 78.833 6.66699 116.5 20s73.5 31 107.5 53s65.667 47.5 95 76.5s56 59.5 80 91.5l-29 4c-10 1.33301 -20 2 -30 2c-22.667 0 -45.334 -5.33301 -68.001 -16
l-7 14c15.333 8 31.833 13.667 49.5 17s34.834 5 51.501 5c8.66699 0 17.167 -0.333008 25.5 -1s16.5 -1.66699 24.5 -3l210 351l14 -4v-349c0 -33.333 -4.16699 -66.833 -12.5 -100.5s-21 -65.167 -38 -94.5s-38 -54.833 -63 -76.5s-53.833 -36.5 -86.5 -44.5
c38.667 -7.33301 75.667 -19 111 -35l105 -49c34.667 -16.667 69.334 -31.334 104.001 -44.001s71 -19 109 -19c20 0 39.667 2.5 59 7.5s36.333 12.667 51 23s26.5 23.166 35.5 38.499s13.5 33 13.5 53c0 24.667 -7.5 45.834 -22.5 63.501s-35.167 26.5 -60.5 26.5
c-18.667 0 -35.334 -6.33301 -50.001 -19l-10 12c8.66699 7.33301 18 13 28 17s20.667 6 32 6c14.667 0 28 -2.83301 40 -8.5s22.5 -13.334 31.5 -23.001s16 -21 21 -34s7.5 -26.833 7.5 -41.5c0 -24.667 -6 -46.334 -18 -65.001s-27.167 -34.334 -45.5 -47.001
s-38.833 -22.167 -61.5 -28.5s-44.667 -9.5 -66 -9.5c-30.667 0 -59.834 3.83301 -87.501 11.5s-54.667 17.5 -81 29.5s-52 25 -77 39l-75 40c-25 12.667 -50.333 23.5 -76 32.5s-51.834 14.5 -78.501 16.5v14c32.667 0 62 8.33301 88 25s48.167 38.167 66.5 64.5
s32.5 55.833 42.5 88.5s15.333 64.667 16 96zM874.004 600.004h-27.999l-156 80c-8.66699 4 -14.834 9.16699 -18.501 15.5s-5.5 12.5 -5.5 18.5c0 10 3 17.333 9 22s13 7 21 7c12 0 23.333 -4.66699 34 -14z" />
    <glyph glyph-name="Aacute" unicode="&#xc1;" 
d="M685 222l63.5 -14.5c21 -5 42.167 -7.5 63.5 -7.5c12 0 23 2 33 6v283zM845 189c-8 -2.66699 -16.3291 -4.49609 -24.9961 -5.49609s-17.334 -1.5 -26.001 -1.5c-23.333 0 -45.333 2.16699 -66 6.5l-60 12.5c-24.667 -33.333 -52.334 -65.333 -83.001 -96
s-63.5 -57.667 -98.5 -81s-72.167 -41.833 -111.5 -55.5s-80 -20.5 -122 -20.5c-26.667 0 -54.167 3.83301 -82.5 11.5s-54.333 19.167 -78 34.5s-43 34.5 -58 57.5s-22.5 49.833 -22.5 80.5c0 36 7.83301 68.667 23.5 98s36.167 54.333 61.5 75s54.333 36.5 87 47.5
s66 16.5 100 16.5c16.667 0 34.5 -2.33301 53.5 -7s36.167 -12 51.5 -22s28.166 -22.333 38.499 -37s15.5 -32 15.5 -52c0 -24.667 -5.33301 -46.5 -16 -65.5s-24.5 -35.167 -41.5 -48.5s-36.667 -23.666 -59 -30.999s-44.833 -11 -67.5 -11v15c20 0 39.5 3 58.5 9
s35.833 14.667 50.5 26s26.5 25.166 35.5 41.499s13.5 35.5 13.5 57.5c0 18 -4.16699 33.833 -12.5 47.5s-19.166 25 -32.499 34s-28 15.667 -44 20s-32 6.5 -48 6.5c-30 0 -59.5 -5 -88.5 -15s-54.667 -24.333 -77 -43s-40.5 -41 -54.5 -67s-21 -55 -21 -87
c0 -28.667 6.33301 -54 19 -76s29.334 -40.5 50.001 -55.5s43.667 -26.333 69 -34s50.666 -11.5 75.999 -11.5c40 0 78.833 6.66699 116.5 20s73.5 31 107.5 53s65.667 47.5 95 76.5s56 59.5 80 91.5l-29 4c-10 1.33301 -20 2 -30 2c-22.667 0 -45.334 -5.33301 -68.001 -16
l-7 14c15.333 8 31.833 13.667 49.5 17s34.834 5 51.501 5c8.66699 0 17.167 -0.333008 25.5 -1s16.5 -1.66699 24.5 -3l210 351l14 -4v-349c0 -33.333 -4.16699 -66.833 -12.5 -100.5s-21 -65.167 -38 -94.5s-38 -54.833 -63 -76.5s-53.833 -36.5 -86.5 -44.5
c38.667 -7.33301 75.667 -19 111 -35l105 -49c34.667 -16.667 69.334 -31.334 104.001 -44.001s71 -19 109 -19c20 0 39.667 2.5 59 7.5s36.333 12.667 51 23s26.5 23.166 35.5 38.499s13.5 33 13.5 53c0 24.667 -7.5 45.834 -22.5 63.501s-35.167 26.5 -60.5 26.5
c-18.667 0 -35.334 -6.33301 -50.001 -19l-10 12c8.66699 7.33301 18 13 28 17s20.667 6 32 6c14.667 0 28 -2.83301 40 -8.5s22.5 -13.334 31.5 -23.001s16 -21 21 -34s7.5 -26.833 7.5 -41.5c0 -24.667 -6 -46.334 -18 -65.001s-27.167 -34.334 -45.5 -47.001
s-38.833 -22.167 -61.5 -28.5s-44.667 -9.5 -66 -9.5c-30.667 0 -59.834 3.83301 -87.501 11.5s-54.667 17.5 -81 29.5s-52 25 -77 39l-75 40c-25 12.667 -50.333 23.5 -76 32.5s-51.834 14.5 -78.501 16.5v14c32.667 0 62 8.33301 88 25s48.167 38.167 66.5 64.5
s32.5 55.833 42.5 88.5s15.333 64.667 16 96zM927.004 727.004c10.667 9.33301 22.001 14 34.001 14c8 0 15 -2.33301 21 -7s9 -12 9 -22c0 -6 -1.83301 -12.167 -5.5 -18.5s-9.83398 -11.5 -18.501 -15.5l-156 -80h-28z" />
    <glyph glyph-name="Acircumflex" unicode="&#xc2;" 
d="M685 222l63.5 -14.5c21 -5 42.167 -7.5 63.5 -7.5c12 0 23 2 33 6v283zM845 189c-8 -2.66699 -16.3291 -4.49609 -24.9961 -5.49609s-17.334 -1.5 -26.001 -1.5c-23.333 0 -45.333 2.16699 -66 6.5l-60 12.5c-24.667 -33.333 -52.334 -65.333 -83.001 -96
s-63.5 -57.667 -98.5 -81s-72.167 -41.833 -111.5 -55.5s-80 -20.5 -122 -20.5c-26.667 0 -54.167 3.83301 -82.5 11.5s-54.333 19.167 -78 34.5s-43 34.5 -58 57.5s-22.5 49.833 -22.5 80.5c0 36 7.83301 68.667 23.5 98s36.167 54.333 61.5 75s54.333 36.5 87 47.5
s66 16.5 100 16.5c16.667 0 34.5 -2.33301 53.5 -7s36.167 -12 51.5 -22s28.166 -22.333 38.499 -37s15.5 -32 15.5 -52c0 -24.667 -5.33301 -46.5 -16 -65.5s-24.5 -35.167 -41.5 -48.5s-36.667 -23.666 -59 -30.999s-44.833 -11 -67.5 -11v15c20 0 39.5 3 58.5 9
s35.833 14.667 50.5 26s26.5 25.166 35.5 41.499s13.5 35.5 13.5 57.5c0 18 -4.16699 33.833 -12.5 47.5s-19.166 25 -32.499 34s-28 15.667 -44 20s-32 6.5 -48 6.5c-30 0 -59.5 -5 -88.5 -15s-54.667 -24.333 -77 -43s-40.5 -41 -54.5 -67s-21 -55 -21 -87
c0 -28.667 6.33301 -54 19 -76s29.334 -40.5 50.001 -55.5s43.667 -26.333 69 -34s50.666 -11.5 75.999 -11.5c40 0 78.833 6.66699 116.5 20s73.5 31 107.5 53s65.667 47.5 95 76.5s56 59.5 80 91.5l-29 4c-10 1.33301 -20 2 -30 2c-22.667 0 -45.334 -5.33301 -68.001 -16
l-7 14c15.333 8 31.833 13.667 49.5 17s34.834 5 51.501 5c8.66699 0 17.167 -0.333008 25.5 -1s16.5 -1.66699 24.5 -3l210 351l14 -4v-349c0 -33.333 -4.16699 -66.833 -12.5 -100.5s-21 -65.167 -38 -94.5s-38 -54.833 -63 -76.5s-53.833 -36.5 -86.5 -44.5
c38.667 -7.33301 75.667 -19 111 -35l105 -49c34.667 -16.667 69.334 -31.334 104.001 -44.001s71 -19 109 -19c20 0 39.667 2.5 59 7.5s36.333 12.667 51 23s26.5 23.166 35.5 38.499s13.5 33 13.5 53c0 24.667 -7.5 45.834 -22.5 63.501s-35.167 26.5 -60.5 26.5
c-18.667 0 -35.334 -6.33301 -50.001 -19l-10 12c8.66699 7.33301 18 13 28 17s20.667 6 32 6c14.667 0 28 -2.83301 40 -8.5s22.5 -13.334 31.5 -23.001s16 -21 21 -34s7.5 -26.833 7.5 -41.5c0 -24.667 -6 -46.334 -18 -65.001s-27.167 -34.334 -45.5 -47.001
s-38.833 -22.167 -61.5 -28.5s-44.667 -9.5 -66 -9.5c-30.667 0 -59.834 3.83301 -87.501 11.5s-54.667 17.5 -81 29.5s-52 25 -77 39l-75 40c-25 12.667 -50.333 23.5 -76 32.5s-51.834 14.5 -78.501 16.5v14c32.667 0 62 8.33301 88 25s48.167 38.167 66.5 64.5
s32.5 55.833 42.5 88.5s15.333 64.667 16 96zM849.004 697.004h24l134 -121h-31l-115 60l-115 -60h-30z" />
    <glyph glyph-name="Atilde" unicode="&#xc3;" 
d="M685 222l63.5 -14.5c21 -5 42.167 -7.5 63.5 -7.5c12 0 23 2 33 6v283zM845 189c-8 -2.66699 -16.3291 -4.49609 -24.9961 -5.49609s-17.334 -1.5 -26.001 -1.5c-23.333 0 -45.333 2.16699 -66 6.5l-60 12.5c-24.667 -33.333 -52.334 -65.333 -83.001 -96
s-63.5 -57.667 -98.5 -81s-72.167 -41.833 -111.5 -55.5s-80 -20.5 -122 -20.5c-26.667 0 -54.167 3.83301 -82.5 11.5s-54.333 19.167 -78 34.5s-43 34.5 -58 57.5s-22.5 49.833 -22.5 80.5c0 36 7.83301 68.667 23.5 98s36.167 54.333 61.5 75s54.333 36.5 87 47.5
s66 16.5 100 16.5c16.667 0 34.5 -2.33301 53.5 -7s36.167 -12 51.5 -22s28.166 -22.333 38.499 -37s15.5 -32 15.5 -52c0 -24.667 -5.33301 -46.5 -16 -65.5s-24.5 -35.167 -41.5 -48.5s-36.667 -23.666 -59 -30.999s-44.833 -11 -67.5 -11v15c20 0 39.5 3 58.5 9
s35.833 14.667 50.5 26s26.5 25.166 35.5 41.499s13.5 35.5 13.5 57.5c0 18 -4.16699 33.833 -12.5 47.5s-19.166 25 -32.499 34s-28 15.667 -44 20s-32 6.5 -48 6.5c-30 0 -59.5 -5 -88.5 -15s-54.667 -24.333 -77 -43s-40.5 -41 -54.5 -67s-21 -55 -21 -87
c0 -28.667 6.33301 -54 19 -76s29.334 -40.5 50.001 -55.5s43.667 -26.333 69 -34s50.666 -11.5 75.999 -11.5c40 0 78.833 6.66699 116.5 20s73.5 31 107.5 53s65.667 47.5 95 76.5s56 59.5 80 91.5l-29 4c-10 1.33301 -20 2 -30 2c-22.667 0 -45.334 -5.33301 -68.001 -16
l-7 14c15.333 8 31.833 13.667 49.5 17s34.834 5 51.501 5c8.66699 0 17.167 -0.333008 25.5 -1s16.5 -1.66699 24.5 -3l210 351l14 -4v-349c0 -33.333 -4.16699 -66.833 -12.5 -100.5s-21 -65.167 -38 -94.5s-38 -54.833 -63 -76.5s-53.833 -36.5 -86.5 -44.5
c38.667 -7.33301 75.667 -19 111 -35l105 -49c34.667 -16.667 69.334 -31.334 104.001 -44.001s71 -19 109 -19c20 0 39.667 2.5 59 7.5s36.333 12.667 51 23s26.5 23.166 35.5 38.499s13.5 33 13.5 53c0 24.667 -7.5 45.834 -22.5 63.501s-35.167 26.5 -60.5 26.5
c-18.667 0 -35.334 -6.33301 -50.001 -19l-10 12c8.66699 7.33301 18 13 28 17s20.667 6 32 6c14.667 0 28 -2.83301 40 -8.5s22.5 -13.334 31.5 -23.001s16 -21 21 -34s7.5 -26.833 7.5 -41.5c0 -24.667 -6 -46.334 -18 -65.001s-27.167 -34.334 -45.5 -47.001
s-38.833 -22.167 -61.5 -28.5s-44.667 -9.5 -66 -9.5c-30.667 0 -59.834 3.83301 -87.501 11.5s-54.667 17.5 -81 29.5s-52 25 -77 39l-75 40c-25 12.667 -50.333 23.5 -76 32.5s-51.834 14.5 -78.501 16.5v14c32.667 0 62 8.33301 88 25s48.167 38.167 66.5 64.5
s32.5 55.833 42.5 88.5s15.333 64.667 16 96zM798.004 686.004c12 0 23.998 -2.16504 35.998 -6.49805s23.667 -9.33301 35 -15s22.5 -10.667 33.5 -15s22.167 -6.5 33.5 -6.5s22 3.5 32 10.5s15 16.833 15 29.5h18c0 -22.667 -7.16699 -42.667 -21.5 -60
s-33.166 -26 -56.499 -26c-12 0 -24 2.16699 -36 6.5s-24 9.16602 -36 14.499s-23.833 10.166 -35.5 14.499s-22.834 6.5 -33.501 6.5c-11.333 0 -21.666 -3.33301 -30.999 -10s-14.666 -16 -15.999 -28h-17c0 24.667 7 45 21 61s33.667 24 59 24z" />
    <glyph glyph-name="Adieresis" unicode="&#xc4;" 
d="M685 222l63.5 -14.5c21 -5 42.167 -7.5 63.5 -7.5c12 0 23 2 33 6v283zM845 189c-8 -2.66699 -16.3291 -4.49609 -24.9961 -5.49609s-17.334 -1.5 -26.001 -1.5c-23.333 0 -45.333 2.16699 -66 6.5l-60 12.5c-24.667 -33.333 -52.334 -65.333 -83.001 -96
s-63.5 -57.667 -98.5 -81s-72.167 -41.833 -111.5 -55.5s-80 -20.5 -122 -20.5c-26.667 0 -54.167 3.83301 -82.5 11.5s-54.333 19.167 -78 34.5s-43 34.5 -58 57.5s-22.5 49.833 -22.5 80.5c0 36 7.83301 68.667 23.5 98s36.167 54.333 61.5 75s54.333 36.5 87 47.5
s66 16.5 100 16.5c16.667 0 34.5 -2.33301 53.5 -7s36.167 -12 51.5 -22s28.166 -22.333 38.499 -37s15.5 -32 15.5 -52c0 -24.667 -5.33301 -46.5 -16 -65.5s-24.5 -35.167 -41.5 -48.5s-36.667 -23.666 -59 -30.999s-44.833 -11 -67.5 -11v15c20 0 39.5 3 58.5 9
s35.833 14.667 50.5 26s26.5 25.166 35.5 41.499s13.5 35.5 13.5 57.5c0 18 -4.16699 33.833 -12.5 47.5s-19.166 25 -32.499 34s-28 15.667 -44 20s-32 6.5 -48 6.5c-30 0 -59.5 -5 -88.5 -15s-54.667 -24.333 -77 -43s-40.5 -41 -54.5 -67s-21 -55 -21 -87
c0 -28.667 6.33301 -54 19 -76s29.334 -40.5 50.001 -55.5s43.667 -26.333 69 -34s50.666 -11.5 75.999 -11.5c40 0 78.833 6.66699 116.5 20s73.5 31 107.5 53s65.667 47.5 95 76.5s56 59.5 80 91.5l-29 4c-10 1.33301 -20 2 -30 2c-22.667 0 -45.334 -5.33301 -68.001 -16
l-7 14c15.333 8 31.833 13.667 49.5 17s34.834 5 51.501 5c8.66699 0 17.167 -0.333008 25.5 -1s16.5 -1.66699 24.5 -3l210 351l14 -4v-349c0 -33.333 -4.16699 -66.833 -12.5 -100.5s-21 -65.167 -38 -94.5s-38 -54.833 -63 -76.5s-53.833 -36.5 -86.5 -44.5
c38.667 -7.33301 75.667 -19 111 -35l105 -49c34.667 -16.667 69.334 -31.334 104.001 -44.001s71 -19 109 -19c20 0 39.667 2.5 59 7.5s36.333 12.667 51 23s26.5 23.166 35.5 38.499s13.5 33 13.5 53c0 24.667 -7.5 45.834 -22.5 63.501s-35.167 26.5 -60.5 26.5
c-18.667 0 -35.334 -6.33301 -50.001 -19l-10 12c8.66699 7.33301 18 13 28 17s20.667 6 32 6c14.667 0 28 -2.83301 40 -8.5s22.5 -13.334 31.5 -23.001s16 -21 21 -34s7.5 -26.833 7.5 -41.5c0 -24.667 -6 -46.334 -18 -65.001s-27.167 -34.334 -45.5 -47.001
s-38.833 -22.167 -61.5 -28.5s-44.667 -9.5 -66 -9.5c-30.667 0 -59.834 3.83301 -87.501 11.5s-54.667 17.5 -81 29.5s-52 25 -77 39l-75 40c-25 12.667 -50.333 23.5 -76 32.5s-51.834 14.5 -78.501 16.5v14c32.667 0 62 8.33301 88 25s48.167 38.167 66.5 64.5
s32.5 55.833 42.5 88.5s15.333 64.667 16 96zM822.004 669.004c10 0 18.5 -3.5 25.5 -10.5s10.5 -15.5 10.5 -25.5c0 -9.33301 -3.5 -17.666 -10.5 -24.999s-15.5 -11 -25.5 -11s-18.5 3.66699 -25.5 11s-10.5 15.666 -10.5 24.999c0 10 3.5 18.5 10.5 25.5
s15.5 10.5 25.5 10.5zM915.004 669.004c10 0 18.5 -3.5 25.5 -10.5s10.5 -15.5 10.5 -25.5c0 -9.33301 -3.5 -17.666 -10.5 -24.999s-15.5 -11 -25.5 -11s-18.5 3.66699 -25.5 11s-10.5 15.666 -10.5 24.999c0 10 3.5 18.5 10.5 25.5s15.5 10.5 25.5 10.5z" />
    <glyph glyph-name="Aring" unicode="&#xc5;" 
d="M685 222l63.5 -14.5c21 -5 42.167 -7.5 63.5 -7.5c12 0 23 2 33 6v283zM845 189c-8 -2.66699 -16.3291 -4.49609 -24.9961 -5.49609s-17.334 -1.5 -26.001 -1.5c-23.333 0 -45.333 2.16699 -66 6.5l-60 12.5c-24.667 -33.333 -52.334 -65.333 -83.001 -96
s-63.5 -57.667 -98.5 -81s-72.167 -41.833 -111.5 -55.5s-80 -20.5 -122 -20.5c-26.667 0 -54.167 3.83301 -82.5 11.5s-54.333 19.167 -78 34.5s-43 34.5 -58 57.5s-22.5 49.833 -22.5 80.5c0 36 7.83301 68.667 23.5 98s36.167 54.333 61.5 75s54.333 36.5 87 47.5
s66 16.5 100 16.5c16.667 0 34.5 -2.33301 53.5 -7s36.167 -12 51.5 -22s28.166 -22.333 38.499 -37s15.5 -32 15.5 -52c0 -24.667 -5.33301 -46.5 -16 -65.5s-24.5 -35.167 -41.5 -48.5s-36.667 -23.666 -59 -30.999s-44.833 -11 -67.5 -11v15c20 0 39.5 3 58.5 9
s35.833 14.667 50.5 26s26.5 25.166 35.5 41.499s13.5 35.5 13.5 57.5c0 18 -4.16699 33.833 -12.5 47.5s-19.166 25 -32.499 34s-28 15.667 -44 20s-32 6.5 -48 6.5c-30 0 -59.5 -5 -88.5 -15s-54.667 -24.333 -77 -43s-40.5 -41 -54.5 -67s-21 -55 -21 -87
c0 -28.667 6.33301 -54 19 -76s29.334 -40.5 50.001 -55.5s43.667 -26.333 69 -34s50.666 -11.5 75.999 -11.5c40 0 78.833 6.66699 116.5 20s73.5 31 107.5 53s65.667 47.5 95 76.5s56 59.5 80 91.5l-29 4c-10 1.33301 -20 2 -30 2c-22.667 0 -45.334 -5.33301 -68.001 -16
l-7 14c15.333 8 31.833 13.667 49.5 17s34.834 5 51.501 5c8.66699 0 17.167 -0.333008 25.5 -1s16.5 -1.66699 24.5 -3l210 351l14 -4v-349c0 -33.333 -4.16699 -66.833 -12.5 -100.5s-21 -65.167 -38 -94.5s-38 -54.833 -63 -76.5s-53.833 -36.5 -86.5 -44.5
c38.667 -7.33301 75.667 -19 111 -35l105 -49c34.667 -16.667 69.334 -31.334 104.001 -44.001s71 -19 109 -19c20 0 39.667 2.5 59 7.5s36.333 12.667 51 23s26.5 23.166 35.5 38.499s13.5 33 13.5 53c0 24.667 -7.5 45.834 -22.5 63.501s-35.167 26.5 -60.5 26.5
c-18.667 0 -35.334 -6.33301 -50.001 -19l-10 12c8.66699 7.33301 18 13 28 17s20.667 6 32 6c14.667 0 28 -2.83301 40 -8.5s22.5 -13.334 31.5 -23.001s16 -21 21 -34s7.5 -26.833 7.5 -41.5c0 -24.667 -6 -46.334 -18 -65.001s-27.167 -34.334 -45.5 -47.001
s-38.833 -22.167 -61.5 -28.5s-44.667 -9.5 -66 -9.5c-30.667 0 -59.834 3.83301 -87.501 11.5s-54.667 17.5 -81 29.5s-52 25 -77 39l-75 40c-25 12.667 -50.333 23.5 -76 32.5s-51.834 14.5 -78.501 16.5v14c32.667 0 62 8.33301 88 25s48.167 38.167 66.5 64.5
s32.5 55.833 42.5 88.5s15.333 64.667 16 96zM888.004 722.004c-14 0 -25.833 -5 -35.5 -15s-14.5 -21.667 -14.5 -35c0 -14 4.83301 -25.833 14.5 -35.5s21.5 -14.5 35.5 -14.5c13.333 0 25 4.83301 35 14.5s15 21.5 15 35.5c0 13.333 -5 25 -15 35s-21.667 15 -35 15z
M888.004 597.004c-20.667 0 -38.334 7.33301 -53.001 22s-22 32.334 -22 53.001s7.33301 38.334 22 53.001s32.334 22 53.001 22s38.334 -7.33301 53.001 -22s22 -32.334 22 -53.001s-7.33301 -38.334 -22 -53.001s-32.334 -22 -53.001 -22z" />
    <glyph glyph-name="AE" unicode="&#xc6;" horiz-adv-x="1286" 
d="M673 221c21.333 -4.66699 42.5 -9.66699 63.5 -15s42.167 -8 63.5 -8c12 0 23 2 33 6v284zM1133 261c-2.66699 12.667 -7.5 24.168 -14.5 34.501s-15.5 19.166 -25.5 26.499s-21.167 12.833 -33.5 16.5s-24.833 5.5 -37.5 5.5c-28 0 -53 -8.5 -75 -25.5
s-38.667 -38.167 -50 -63.5l236 6v0zM891 240.001c-3.33301 -9.33301 -5.83008 -18.998 -7.49707 -28.998s-2.5 -20.333 -2.5 -31c0 -19.333 3.33301 -38.333 10 -57s16 -35.334 28 -50.001s26.5 -26.5 43.5 -35.5s35.833 -13.5 56.5 -13.5c26 0 50.5 5.83301 73.5 17.5
s41.167 28.834 54.5 51.501l13 -7c-15.333 -26.667 -36.666 -47.834 -63.999 -63.501s-56.333 -23.5 -87 -23.5c-33.333 0 -63.5 7.5 -90.5 22.5s-47.5 35.5 -61.5 61.5c-15.333 -42 -37.666 -79.167 -66.999 -111.5s-65.666 -53.833 -108.999 -64.5
c38.667 -7.33301 75.667 -19.166 111 -35.499l105 -49.5c34.667 -16.667 69.334 -31.334 104.001 -44.001s71 -19 109 -19c20 0 39.667 2.66699 59 8s36.333 13.166 51 23.499s26.5 23.166 35.5 38.499s13.5 33 13.5 53c0 24 -7.5 45 -22.5 63s-35.167 27 -60.5 27
c-18.667 0 -35.334 -6.33301 -50.001 -19l-10 12c18 14.667 38 22 60 22c29.333 0 53.333 -10.333 72 -31s28 -45.667 28 -75c0 -24.667 -6 -46.334 -18 -65.001s-27.167 -34.334 -45.5 -47.001s-38.833 -22.167 -61.5 -28.5s-44.667 -9.5 -66 -9.5
c-30.667 0 -59.834 3.83301 -87.501 11.5s-54.667 17.5 -81 29.5s-52 25 -77 39l-75 40c-25 12.667 -50.333 23.5 -76 32.5s-51.834 14.5 -78.501 16.5v14c32.667 0 62 8.33301 88 25s48.167 38.167 66.5 64.5s32.5 55.666 42.5 87.999s15.333 64.5 16 96.5
c-8 -2.66699 -16.333 -4.5 -25 -5.5s-17.334 -1.5 -26.001 -1.5c-23.333 0 -45.333 2 -66 6l-60 12c-24.667 -33.333 -52.334 -65.333 -83.001 -96s-63.5 -57.667 -98.5 -81s-72.167 -41.833 -111.5 -55.5s-80 -20.5 -122 -20.5c-26.667 0 -54.167 3.83301 -82.5 11.5
s-54.333 19.334 -78 35.001s-43 35 -58 58s-22.5 49.833 -22.5 80.5c0 36 7.83301 68.667 23.5 98s36.167 54.166 61.5 74.499s54.333 36 87 47s66 16.5 100 16.5c16.667 0 34.5 -2.33301 53.5 -7s36.167 -12 51.5 -22s28.166 -22.333 38.499 -37s15.5 -32 15.5 -52
c0 -24.667 -5.33301 -46.5 -16 -65.5s-24.5 -35.167 -41.5 -48.5s-36.667 -23.666 -59 -30.999s-44.833 -11 -67.5 -11v16c20 0 39.5 3 58.5 9s35.833 14.5 50.5 25.5s26.5 24.833 35.5 41.5s13.5 36 13.5 58c0 18 -4.16699 33.833 -12.5 47.5
s-19.166 24.834 -32.499 33.501s-28 15.167 -44 19.5s-32 6.5 -48 6.5c-30 0 -59.5 -5 -88.5 -15s-54.667 -24.333 -77 -43s-40.5 -40.834 -54.5 -66.501s-21 -54.5 -21 -86.5c0 -28.667 6.33301 -54 19 -76s29.334 -40.5 50.001 -55.5s43.667 -26.333 69 -34
s50.666 -11.5 75.999 -11.5c40 0 78.833 6.5 116.5 19.5s73.5 30.5 107.5 52.5s65.667 47.5 95 76.5s56 59.5 80 91.5c-19.333 4 -39 6 -59 6c-24.667 0 -47.334 -5 -68.001 -15l-7 13c15.333 8.66699 31.833 14.667 49.5 18s34.834 5 51.501 5
c8.66699 0 17.167 -0.5 25.5 -1.5s16.5 -2.16699 24.5 -3.5l210 351l14 -4v-285c17.333 22.667 38.666 40.834 63.999 54.501s53.333 20.5 84 20.5c16 0 31.667 -2.33301 47 -7s29.666 -11.167 42.999 -19.5s25 -18.666 35 -30.999s17.667 -26.166 23 -41.499h8v-16l-294 -6
v0z" />
    <glyph glyph-name="Ccedilla" unicode="&#xc7;" horiz-adv-x="654" 
d="M604 372c3.33301 8 6.49707 16.1689 9.49707 24.502s4.5 17.166 4.5 26.499c0 26.667 -7.66699 50.167 -23 70.5s-34.333 37.5 -57 51.5s-47.334 24.5 -74.001 31.5s-51 10.5 -73 10.5c-50 0 -94.5 -9.5 -133.5 -28.5s-71.667 -44 -98 -75s-46.5 -66.333 -60.5 -106
s-21 -79.834 -21 -120.501c0 -38.667 6.33301 -76.834 19 -114.501s31.167 -71.5 55.5 -101.5s54.333 -54.167 90 -72.5s76.5 -27.5 122.5 -27.5c27.333 0 54.833 4.66699 82.5 14s52.5 22.333 74.5 39s40 36.667 54 60s21 49.333 21 78c0 11.333 -2.16699 23.5 -6.5 36.5
s-10.5 23.833 -18.5 32.5l9 12c11.333 -7.33301 21.666 -19 30.999 -35s14 -31.333 14 -46c0 -33.333 -7.83301 -62.833 -23.5 -88.5s-36.167 -47.334 -61.5 -65.001s-53.666 -31.167 -84.999 -40.5s-62.666 -14 -93.999 -14c-55.333 0 -104.166 9.83301 -146.499 29.5
s-77.666 45.334 -105.999 77.001s-49.666 67.667 -63.999 108s-21.5 81.166 -21.5 122.499c0 42.667 8 84.5 24 125.5s39.5 77.667 70.5 110s69.333 58.5 115 78.5s98.167 30 157.5 30c24 0 48.667 -2.83301 74 -8.5s49.5 -14.167 72.5 -25.5s43.833 -25.166 62.5 -41.499
s34 -35.166 46 -56.499l15 38h17l-56 -139h-18v0zM298.997 -119.998c19.333 -4.66699 36.166 -14.668 50.499 -30.001s21.5 -33.666 21.5 -54.999c0 -12.667 -2.66699 -24.167 -8 -34.5s-12.166 -19.166 -20.499 -26.499s-18.166 -13 -29.499 -17s-23 -6 -35 -6
c-4.66699 0 -10.167 0.333008 -16.5 1s-12.5 2.16699 -18.5 4.5s-11 5.5 -15 9.5s-6 9.33301 -6 16c0 7.33301 2.66699 13 8 17s11.666 6 18.999 6c6 0 11 -1 15 -3s7.66699 -4.66699 11 -8c3.33301 -2.66699 6.83301 -5 10.5 -7s8.5 -3 14.5 -3
c9.33301 0 17.833 3.5 25.5 10.5s11.5 15.167 11.5 24.5s-2.5 17.666 -7.5 24.999s-11.5 13.333 -19.5 18s-16.5 8.16699 -25.5 10.5s-17.5 3.5 -25.5 3.5h-17l88 104l11 -10l-42 -50v0z" />
    <glyph glyph-name="Egrave" unicode="&#xc8;" horiz-adv-x="613" 
d="M423 285c-18.667 0 -34.168 -6.83398 -46.501 -20.501s-18.5 -29.5 -18.5 -47.5s4 -34.5 12 -49.5s19 -28.833 33 -41.5s30.167 -24.667 48.5 -36s37.833 -22 58.5 -32c7.33301 13.333 12.666 27.5 15.999 42.5s5 30.833 5 47.5c0 18 -2.33301 35.167 -7 51.5
s-11.667 30.833 -21 43.5s-20.666 22.834 -33.999 30.501s-28.666 11.5 -45.999 11.5zM236.999 386.999c12 -13.333 23.667 -22.666 35 -27.999s21.666 -8 30.999 -8c8 0 14.5 1.5 19.5 4.5s7.5 6.83301 7.5 11.5c0 5.33301 -4.16699 10.166 -12.5 14.499
s-22.166 6.83301 -41.499 7.5h-4c-6 0 -12 -0.166992 -18 -0.5s-11.667 -0.833008 -17 -1.5zM322.999 476.999c10 -8.66699 21.002 -13.0098 33.002 -13.0098c13.333 0 24.5 5.33301 33.5 16s13.5 22.667 13.5 36c0 10.667 -2.5 20.167 -7.5 28.5s-11.5 15 -19.5 20
s-16.833 8.83301 -26.5 11.5s-19.167 4 -28.5 4c-32.667 0 -59.834 -10.833 -81.501 -32.5s-32.5 -48.834 -32.5 -81.501c0 -24.667 6.33301 -46.667 19 -66c7.33301 1.33301 14.833 2.5 22.5 3.5s16.167 1.5 25.5 1.5c26 -0.666992 44.667 -4.66699 56 -12
s17 -15.666 17 -24.999c0 -8.66699 -4.33301 -16.5 -13 -23.5s-20 -10.5 -34 -10.5c-12.667 0 -26.5 3.66699 -41.5 11s-30.167 19.666 -45.5 36.999c-22 -6 -41.667 -15.167 -59 -27.5s-32 -27 -44 -44s-21.167 -36 -27.5 -57s-9.5 -42.833 -9.5 -65.5
c0 -32.667 6.16699 -63.167 18.5 -91.5s29 -53.166 50 -74.499s45.667 -38.166 74 -50.499s58.833 -18.5 91.5 -18.5c36 0 70.667 6.5 104 19.5s61.333 33.833 84 62.5c-20.667 10.667 -40.5 21.834 -59.5 33.501s-35.833 24.5 -50.5 38.5s-26.334 29.667 -35.001 47
s-13 37 -13 59c0 24.667 8.5 45.5 25.5 62.5s38.167 25.5 63.5 25.5c20 0 38 -4.16699 54 -12.5s29.667 -19.5 41 -33.5s20.166 -29.833 26.499 -47.5s9.5 -35.834 9.5 -54.501c0 -19.333 -2.66699 -37.666 -8 -54.999s-12.666 -33.666 -21.999 -48.999l77 -40
c26.667 -14 51 -30.167 73 -48.5s40.167 -40 54.5 -65s21.5 -54.833 21.5 -89.5c0 -17.333 -3.5 -33.333 -10.5 -48s-16.333 -27.5 -28 -38.5s-25.334 -19.667 -41.001 -26s-31.834 -9.5 -48.501 -9.5c-11.333 0 -22.333 1.83301 -33 5.5s-20.334 9 -29.001 16
s-15.667 15 -21 24s-8 19.167 -8 30.5c0 3.33301 0.333008 7 1 11s1.66699 7.66699 3 11l15 -6c-2 -5.33301 -3 -10.666 -3 -15.999c0 -9.33301 2.33301 -17.5 7 -24.5s10.834 -12.833 18.501 -17.5s15.834 -8.16699 24.501 -10.5s17 -3.5 25 -3.5
c14.667 0 28.834 2.5 42.501 7.5s25.667 12.167 36 21.5s18.5 20.5 24.5 33.5s9 27.167 9 42.5c0 30.667 -7.5 57.167 -22.5 79.5s-33.833 41.833 -56.5 58.5s-47.167 31.334 -73.5 44.001l-73.5 36c-25.333 -32 -57.333 -56.167 -96 -72.5s-78.667 -24.5 -120 -24.5
c-32.667 0 -65.167 5.5 -97.5 16.5s-61.333 26.833 -87 47.5s-46.5 45.334 -62.5 74.001s-24 61 -24 97c0 26.667 4.5 52.334 13.5 77.001s21.5 47 37.5 67s34.833 37.5 56.5 52.5s45.167 26.167 70.5 33.5c-16.667 22.667 -25 47.334 -25 74.001
c0 20.667 4.16699 38.834 12.5 54.501s19.5 28.834 33.5 39.501s29.833 18.667 47.5 24s35.834 8 54.501 8c12 0 24 -1.83301 36 -5.5s22.667 -9 32 -16s17 -15.667 23 -26s9 -21.833 9 -34.5c0 -19.333 -6.83301 -35 -20.5 -47s-29.834 -18 -48.501 -18
c-16 0 -30.667 6 -44 18l11 11v0zM387.001 607.989h-27.999l-156 80c-8.66699 4 -14.834 9.16699 -18.501 15.5s-5.5 12.5 -5.5 18.5c0 10 3 17.333 9 22s13 7 21 7c12 0 23.333 -4.66699 34 -14z" />
    <glyph glyph-name="Eacute" unicode="&#xc9;" horiz-adv-x="613" 
d="M423 285c-18.667 0 -34.168 -6.83398 -46.501 -20.501s-18.5 -29.5 -18.5 -47.5s4 -34.5 12 -49.5s19 -28.833 33 -41.5s30.167 -24.667 48.5 -36s37.833 -22 58.5 -32c7.33301 13.333 12.666 27.5 15.999 42.5s5 30.833 5 47.5c0 18 -2.33301 35.167 -7 51.5
s-11.667 30.833 -21 43.5s-20.666 22.834 -33.999 30.501s-28.666 11.5 -45.999 11.5zM236.999 386.999c12 -13.333 23.667 -22.666 35 -27.999s21.666 -8 30.999 -8c8 0 14.5 1.5 19.5 4.5s7.5 6.83301 7.5 11.5c0 5.33301 -4.16699 10.166 -12.5 14.499
s-22.166 6.83301 -41.499 7.5h-4c-6 0 -12 -0.166992 -18 -0.5s-11.667 -0.833008 -17 -1.5zM322.999 476.999c10 -8.66699 21.002 -13.0098 33.002 -13.0098c13.333 0 24.5 5.33301 33.5 16s13.5 22.667 13.5 36c0 10.667 -2.5 20.167 -7.5 28.5s-11.5 15 -19.5 20
s-16.833 8.83301 -26.5 11.5s-19.167 4 -28.5 4c-32.667 0 -59.834 -10.833 -81.501 -32.5s-32.5 -48.834 -32.5 -81.501c0 -24.667 6.33301 -46.667 19 -66c7.33301 1.33301 14.833 2.5 22.5 3.5s16.167 1.5 25.5 1.5c26 -0.666992 44.667 -4.66699 56 -12
s17 -15.666 17 -24.999c0 -8.66699 -4.33301 -16.5 -13 -23.5s-20 -10.5 -34 -10.5c-12.667 0 -26.5 3.66699 -41.5 11s-30.167 19.666 -45.5 36.999c-22 -6 -41.667 -15.167 -59 -27.5s-32 -27 -44 -44s-21.167 -36 -27.5 -57s-9.5 -42.833 -9.5 -65.5
c0 -32.667 6.16699 -63.167 18.5 -91.5s29 -53.166 50 -74.499s45.667 -38.166 74 -50.499s58.833 -18.5 91.5 -18.5c36 0 70.667 6.5 104 19.5s61.333 33.833 84 62.5c-20.667 10.667 -40.5 21.834 -59.5 33.501s-35.833 24.5 -50.5 38.5s-26.334 29.667 -35.001 47
s-13 37 -13 59c0 24.667 8.5 45.5 25.5 62.5s38.167 25.5 63.5 25.5c20 0 38 -4.16699 54 -12.5s29.667 -19.5 41 -33.5s20.166 -29.833 26.499 -47.5s9.5 -35.834 9.5 -54.501c0 -19.333 -2.66699 -37.666 -8 -54.999s-12.666 -33.666 -21.999 -48.999l77 -40
c26.667 -14 51 -30.167 73 -48.5s40.167 -40 54.5 -65s21.5 -54.833 21.5 -89.5c0 -17.333 -3.5 -33.333 -10.5 -48s-16.333 -27.5 -28 -38.5s-25.334 -19.667 -41.001 -26s-31.834 -9.5 -48.501 -9.5c-11.333 0 -22.333 1.83301 -33 5.5s-20.334 9 -29.001 16
s-15.667 15 -21 24s-8 19.167 -8 30.5c0 3.33301 0.333008 7 1 11s1.66699 7.66699 3 11l15 -6c-2 -5.33301 -3 -10.666 -3 -15.999c0 -9.33301 2.33301 -17.5 7 -24.5s10.834 -12.833 18.501 -17.5s15.834 -8.16699 24.501 -10.5s17 -3.5 25 -3.5
c14.667 0 28.834 2.5 42.501 7.5s25.667 12.167 36 21.5s18.5 20.5 24.5 33.5s9 27.167 9 42.5c0 30.667 -7.5 57.167 -22.5 79.5s-33.833 41.833 -56.5 58.5s-47.167 31.334 -73.5 44.001l-73.5 36c-25.333 -32 -57.333 -56.167 -96 -72.5s-78.667 -24.5 -120 -24.5
c-32.667 0 -65.167 5.5 -97.5 16.5s-61.333 26.833 -87 47.5s-46.5 45.334 -62.5 74.001s-24 61 -24 97c0 26.667 4.5 52.334 13.5 77.001s21.5 47 37.5 67s34.833 37.5 56.5 52.5s45.167 26.167 70.5 33.5c-16.667 22.667 -25 47.334 -25 74.001
c0 20.667 4.16699 38.834 12.5 54.501s19.5 28.834 33.5 39.501s29.833 18.667 47.5 24s35.834 8 54.501 8c12 0 24 -1.83301 36 -5.5s22.667 -9 32 -16s17 -15.667 23 -26s9 -21.833 9 -34.5c0 -19.333 -6.83301 -35 -20.5 -47s-29.834 -18 -48.501 -18
c-16 0 -30.667 6 -44 18l11 11v0zM398.001 736.989c10.667 9.33301 22.001 14 34.001 14c8 0 15 -2.33301 21 -7s9 -12 9 -22c0 -6 -1.83301 -12.167 -5.5 -18.5s-9.83398 -11.5 -18.501 -15.5l-156 -80h-28z" />
    <glyph glyph-name="Ecircumflex" unicode="&#xca;" horiz-adv-x="613" 
d="M423 285c-18.667 0 -34.168 -6.83398 -46.501 -20.501s-18.5 -29.5 -18.5 -47.5s4 -34.5 12 -49.5s19 -28.833 33 -41.5s30.167 -24.667 48.5 -36s37.833 -22 58.5 -32c7.33301 13.333 12.666 27.5 15.999 42.5s5 30.833 5 47.5c0 18 -2.33301 35.167 -7 51.5
s-11.667 30.833 -21 43.5s-20.666 22.834 -33.999 30.501s-28.666 11.5 -45.999 11.5zM236.999 386.999c12 -13.333 23.667 -22.666 35 -27.999s21.666 -8 30.999 -8c8 0 14.5 1.5 19.5 4.5s7.5 6.83301 7.5 11.5c0 5.33301 -4.16699 10.166 -12.5 14.499
s-22.166 6.83301 -41.499 7.5h-4c-6 0 -12 -0.166992 -18 -0.5s-11.667 -0.833008 -17 -1.5zM322.999 476.999c10 -8.66699 21.002 -13.0098 33.002 -13.0098c13.333 0 24.5 5.33301 33.5 16s13.5 22.667 13.5 36c0 10.667 -2.5 20.167 -7.5 28.5s-11.5 15 -19.5 20
s-16.833 8.83301 -26.5 11.5s-19.167 4 -28.5 4c-32.667 0 -59.834 -10.833 -81.501 -32.5s-32.5 -48.834 -32.5 -81.501c0 -24.667 6.33301 -46.667 19 -66c7.33301 1.33301 14.833 2.5 22.5 3.5s16.167 1.5 25.5 1.5c26 -0.666992 44.667 -4.66699 56 -12
s17 -15.666 17 -24.999c0 -8.66699 -4.33301 -16.5 -13 -23.5s-20 -10.5 -34 -10.5c-12.667 0 -26.5 3.66699 -41.5 11s-30.167 19.666 -45.5 36.999c-22 -6 -41.667 -15.167 -59 -27.5s-32 -27 -44 -44s-21.167 -36 -27.5 -57s-9.5 -42.833 -9.5 -65.5
c0 -32.667 6.16699 -63.167 18.5 -91.5s29 -53.166 50 -74.499s45.667 -38.166 74 -50.499s58.833 -18.5 91.5 -18.5c36 0 70.667 6.5 104 19.5s61.333 33.833 84 62.5c-20.667 10.667 -40.5 21.834 -59.5 33.501s-35.833 24.5 -50.5 38.5s-26.334 29.667 -35.001 47
s-13 37 -13 59c0 24.667 8.5 45.5 25.5 62.5s38.167 25.5 63.5 25.5c20 0 38 -4.16699 54 -12.5s29.667 -19.5 41 -33.5s20.166 -29.833 26.499 -47.5s9.5 -35.834 9.5 -54.501c0 -19.333 -2.66699 -37.666 -8 -54.999s-12.666 -33.666 -21.999 -48.999l77 -40
c26.667 -14 51 -30.167 73 -48.5s40.167 -40 54.5 -65s21.5 -54.833 21.5 -89.5c0 -17.333 -3.5 -33.333 -10.5 -48s-16.333 -27.5 -28 -38.5s-25.334 -19.667 -41.001 -26s-31.834 -9.5 -48.501 -9.5c-11.333 0 -22.333 1.83301 -33 5.5s-20.334 9 -29.001 16
s-15.667 15 -21 24s-8 19.167 -8 30.5c0 3.33301 0.333008 7 1 11s1.66699 7.66699 3 11l15 -6c-2 -5.33301 -3 -10.666 -3 -15.999c0 -9.33301 2.33301 -17.5 7 -24.5s10.834 -12.833 18.501 -17.5s15.834 -8.16699 24.501 -10.5s17 -3.5 25 -3.5
c14.667 0 28.834 2.5 42.501 7.5s25.667 12.167 36 21.5s18.5 20.5 24.5 33.5s9 27.167 9 42.5c0 30.667 -7.5 57.167 -22.5 79.5s-33.833 41.833 -56.5 58.5s-47.167 31.334 -73.5 44.001l-73.5 36c-25.333 -32 -57.333 -56.167 -96 -72.5s-78.667 -24.5 -120 -24.5
c-32.667 0 -65.167 5.5 -97.5 16.5s-61.333 26.833 -87 47.5s-46.5 45.334 -62.5 74.001s-24 61 -24 97c0 26.667 4.5 52.334 13.5 77.001s21.5 47 37.5 67s34.833 37.5 56.5 52.5s45.167 26.167 70.5 33.5c-16.667 22.667 -25 47.334 -25 74.001
c0 20.667 4.16699 38.834 12.5 54.501s19.5 28.834 33.5 39.501s29.833 18.667 47.5 24s35.834 8 54.501 8c12 0 24 -1.83301 36 -5.5s22.667 -9 32 -16s17 -15.667 23 -26s9 -21.833 9 -34.5c0 -19.333 -6.83301 -35 -20.5 -47s-29.834 -18 -48.501 -18
c-16 0 -30.667 6 -44 18l11 11v0zM294.001 719.989h24l134 -121h-31l-115 60l-115 -60h-30z" />
    <glyph glyph-name="Edieresis" unicode="&#xcb;" horiz-adv-x="613" 
d="M423 285c-18.667 0 -34.168 -6.83398 -46.501 -20.501s-18.5 -29.5 -18.5 -47.5s4 -34.5 12 -49.5s19 -28.833 33 -41.5s30.167 -24.667 48.5 -36s37.833 -22 58.5 -32c7.33301 13.333 12.666 27.5 15.999 42.5s5 30.833 5 47.5c0 18 -2.33301 35.167 -7 51.5
s-11.667 30.833 -21 43.5s-20.666 22.834 -33.999 30.501s-28.666 11.5 -45.999 11.5zM236.999 386.999c12 -13.333 23.667 -22.666 35 -27.999s21.666 -8 30.999 -8c8 0 14.5 1.5 19.5 4.5s7.5 6.83301 7.5 11.5c0 5.33301 -4.16699 10.166 -12.5 14.499
s-22.166 6.83301 -41.499 7.5h-4c-6 0 -12 -0.166992 -18 -0.5s-11.667 -0.833008 -17 -1.5zM322.999 476.999c10 -8.66699 21.002 -13.0098 33.002 -13.0098c13.333 0 24.5 5.33301 33.5 16s13.5 22.667 13.5 36c0 10.667 -2.5 20.167 -7.5 28.5s-11.5 15 -19.5 20
s-16.833 8.83301 -26.5 11.5s-19.167 4 -28.5 4c-32.667 0 -59.834 -10.833 -81.501 -32.5s-32.5 -48.834 -32.5 -81.501c0 -24.667 6.33301 -46.667 19 -66c7.33301 1.33301 14.833 2.5 22.5 3.5s16.167 1.5 25.5 1.5c26 -0.666992 44.667 -4.66699 56 -12
s17 -15.666 17 -24.999c0 -8.66699 -4.33301 -16.5 -13 -23.5s-20 -10.5 -34 -10.5c-12.667 0 -26.5 3.66699 -41.5 11s-30.167 19.666 -45.5 36.999c-22 -6 -41.667 -15.167 -59 -27.5s-32 -27 -44 -44s-21.167 -36 -27.5 -57s-9.5 -42.833 -9.5 -65.5
c0 -32.667 6.16699 -63.167 18.5 -91.5s29 -53.166 50 -74.499s45.667 -38.166 74 -50.499s58.833 -18.5 91.5 -18.5c36 0 70.667 6.5 104 19.5s61.333 33.833 84 62.5c-20.667 10.667 -40.5 21.834 -59.5 33.501s-35.833 24.5 -50.5 38.5s-26.334 29.667 -35.001 47
s-13 37 -13 59c0 24.667 8.5 45.5 25.5 62.5s38.167 25.5 63.5 25.5c20 0 38 -4.16699 54 -12.5s29.667 -19.5 41 -33.5s20.166 -29.833 26.499 -47.5s9.5 -35.834 9.5 -54.501c0 -19.333 -2.66699 -37.666 -8 -54.999s-12.666 -33.666 -21.999 -48.999l77 -40
c26.667 -14 51 -30.167 73 -48.5s40.167 -40 54.5 -65s21.5 -54.833 21.5 -89.5c0 -17.333 -3.5 -33.333 -10.5 -48s-16.333 -27.5 -28 -38.5s-25.334 -19.667 -41.001 -26s-31.834 -9.5 -48.501 -9.5c-11.333 0 -22.333 1.83301 -33 5.5s-20.334 9 -29.001 16
s-15.667 15 -21 24s-8 19.167 -8 30.5c0 3.33301 0.333008 7 1 11s1.66699 7.66699 3 11l15 -6c-2 -5.33301 -3 -10.666 -3 -15.999c0 -9.33301 2.33301 -17.5 7 -24.5s10.834 -12.833 18.501 -17.5s15.834 -8.16699 24.501 -10.5s17 -3.5 25 -3.5
c14.667 0 28.834 2.5 42.501 7.5s25.667 12.167 36 21.5s18.5 20.5 24.5 33.5s9 27.167 9 42.5c0 30.667 -7.5 57.167 -22.5 79.5s-33.833 41.833 -56.5 58.5s-47.167 31.334 -73.5 44.001l-73.5 36c-25.333 -32 -57.333 -56.167 -96 -72.5s-78.667 -24.5 -120 -24.5
c-32.667 0 -65.167 5.5 -97.5 16.5s-61.333 26.833 -87 47.5s-46.5 45.334 -62.5 74.001s-24 61 -24 97c0 26.667 4.5 52.334 13.5 77.001s21.5 47 37.5 67s34.833 37.5 56.5 52.5s45.167 26.167 70.5 33.5c-16.667 22.667 -25 47.334 -25 74.001
c0 20.667 4.16699 38.834 12.5 54.501s19.5 28.834 33.5 39.501s29.833 18.667 47.5 24s35.834 8 54.501 8c12 0 24 -1.83301 36 -5.5s22.667 -9 32 -16s17 -15.667 23 -26s9 -21.833 9 -34.5c0 -19.333 -6.83301 -35 -20.5 -47s-29.834 -18 -48.501 -18
c-16 0 -30.667 6 -44 18l11 11v0zM280.001 687.989c10 0 18.5 -3.5 25.5 -10.5s10.5 -15.5 10.5 -25.5c0 -9.33301 -3.5 -17.666 -10.5 -24.999s-15.5 -11 -25.5 -11s-18.5 3.66699 -25.5 11s-10.5 15.666 -10.5 24.999c0 10 3.5 18.5 10.5 25.5s15.5 10.5 25.5 10.5z
M373.001 687.989c10 0 18.5 -3.5 25.5 -10.5s10.5 -15.5 10.5 -25.5c0 -9.33301 -3.5 -17.666 -10.5 -24.999s-15.5 -11 -25.5 -11s-18.5 3.66699 -25.5 11s-10.5 15.666 -10.5 24.999c0 10 3.5 18.5 10.5 25.5s15.5 10.5 25.5 10.5z" />
    <glyph glyph-name="Igrave" unicode="&#xcc;" horiz-adv-x="382" 
d="M86 -60c-22 0 -41.8369 6.83203 -59.5039 20.499s-26.5 32.167 -26.5 55.5c0 13.333 3.16699 25.166 9.5 35.499s14.833 19.166 25.5 26.499l9 -13c-7.33301 -5.33301 -13.5 -11.833 -18.5 -19.5s-7.5 -16.167 -7.5 -25.5c0 -18.667 6.83301 -34 20.5 -46
s29.5 -18 47.5 -18c29.333 0 54.333 9.33301 75 28s38.167 41.5 52.5 68.5s25.833 55.5 34.5 85.5l22 78l18 72c12.667 52.667 30 100 52 142s51.667 82.667 89 122l-18.5 -4c-6.33301 -1.33301 -12.833 -2 -19.5 -2c-19.333 0 -36.833 1.33301 -52.5 4
s-31.167 5.66699 -46.5 9c-13.333 2.66699 -26.666 5.5 -39.999 8.5s-27 4.5 -41 4.5c-17.333 0 -33.666 -2.33301 -48.999 -7s-28.666 -11.334 -39.999 -20.001s-20.5 -19.667 -27.5 -33s-10.5 -28.333 -10.5 -45c0 -22 7.33301 -41.333 22 -58s33.334 -25 56.001 -25
c18 0 34.5 5.33301 49.5 16s25.167 24.667 30.5 42l15 -5c-7.33301 -23.333 -19.833 -40.5 -37.5 -51.5s-36.167 -16.5 -55.5 -16.5c-12.667 0 -25 2.16699 -37 6.5s-22.667 10.5 -32 18.5s-16.833 18.167 -22.5 30.5s-8.5 26.5 -8.5 42.5c0 21.333 4.83301 40 14.5 56
s22.334 29.5 38.001 40.5s33.5 19.167 53.5 24.5s40.333 8 61 8c21.333 0 40.666 -1.66699 57.999 -5s33.666 -6.66602 48.999 -9.99902c13.333 -3.33301 26.5 -6 39.5 -8s26.833 -3 41.5 -3c10 0 19.5 1.33301 28.5 4s17.833 6.33398 26.5 11.001l8 -13
c-19.333 -12 -35.166 -24.833 -47.499 -38.5s-23.833 -31.5 -34.5 -53.5c-10 -21.333 -18.833 -45.333 -26.5 -72s-15.5 -55.667 -23.5 -87l-20 -79c-4.66699 -19.333 -10.334 -40.166 -17.001 -62.499s-14.667 -44.666 -24 -66.999s-20.166 -43.833 -32.499 -64.5
s-26.833 -39 -43.5 -55s-35.5 -28.833 -56.5 -38.5s-44.5 -14.5 -70.5 -14.5zM352.996 612.999h-27.999l-156 80c-8.66699 4 -14.834 9.16699 -18.501 15.5s-5.5 12.5 -5.5 18.5c0 10 3 17.333 9 22s13 7 21 7c12 0 23.333 -4.66699 34 -14z" />
    <glyph glyph-name="Iacute" unicode="&#xcd;" horiz-adv-x="382" 
d="M86 -60c-22 0 -41.8369 6.83203 -59.5039 20.499s-26.5 32.167 -26.5 55.5c0 13.333 3.16699 25.166 9.5 35.499s14.833 19.166 25.5 26.499l9 -13c-7.33301 -5.33301 -13.5 -11.833 -18.5 -19.5s-7.5 -16.167 -7.5 -25.5c0 -18.667 6.83301 -34 20.5 -46
s29.5 -18 47.5 -18c29.333 0 54.333 9.33301 75 28s38.167 41.5 52.5 68.5s25.833 55.5 34.5 85.5l22 78l18 72c12.667 52.667 30 100 52 142s51.667 82.667 89 122l-18.5 -4c-6.33301 -1.33301 -12.833 -2 -19.5 -2c-19.333 0 -36.833 1.33301 -52.5 4
s-31.167 5.66699 -46.5 9c-13.333 2.66699 -26.666 5.5 -39.999 8.5s-27 4.5 -41 4.5c-17.333 0 -33.666 -2.33301 -48.999 -7s-28.666 -11.334 -39.999 -20.001s-20.5 -19.667 -27.5 -33s-10.5 -28.333 -10.5 -45c0 -22 7.33301 -41.333 22 -58s33.334 -25 56.001 -25
c18 0 34.5 5.33301 49.5 16s25.167 24.667 30.5 42l15 -5c-7.33301 -23.333 -19.833 -40.5 -37.5 -51.5s-36.167 -16.5 -55.5 -16.5c-12.667 0 -25 2.16699 -37 6.5s-22.667 10.5 -32 18.5s-16.833 18.167 -22.5 30.5s-8.5 26.5 -8.5 42.5c0 21.333 4.83301 40 14.5 56
s22.334 29.5 38.001 40.5s33.5 19.167 53.5 24.5s40.333 8 61 8c21.333 0 40.666 -1.66699 57.999 -5s33.666 -6.66602 48.999 -9.99902c13.333 -3.33301 26.5 -6 39.5 -8s26.833 -3 41.5 -3c10 0 19.5 1.33301 28.5 4s17.833 6.33398 26.5 11.001l8 -13
c-19.333 -12 -35.166 -24.833 -47.499 -38.5s-23.833 -31.5 -34.5 -53.5c-10 -21.333 -18.833 -45.333 -26.5 -72s-15.5 -55.667 -23.5 -87l-20 -79c-4.66699 -19.333 -10.334 -40.166 -17.001 -62.499s-14.667 -44.666 -24 -66.999s-20.166 -43.833 -32.499 -64.5
s-26.833 -39 -43.5 -55s-35.5 -28.833 -56.5 -38.5s-44.5 -14.5 -70.5 -14.5zM354.996 741.999c10.667 9.33301 22.001 14 34.001 14c8 0 15 -2.33301 21 -7s9 -12 9 -22c0 -6 -1.83301 -12.167 -5.5 -18.5s-9.83398 -11.5 -18.501 -15.5l-156 -80h-28z" />
    <glyph glyph-name="Icircumflex" unicode="&#xce;" horiz-adv-x="382" 
d="M86 -60c-22 0 -41.8369 6.83203 -59.5039 20.499s-26.5 32.167 -26.5 55.5c0 13.333 3.16699 25.166 9.5 35.499s14.833 19.166 25.5 26.499l9 -13c-7.33301 -5.33301 -13.5 -11.833 -18.5 -19.5s-7.5 -16.167 -7.5 -25.5c0 -18.667 6.83301 -34 20.5 -46
s29.5 -18 47.5 -18c29.333 0 54.333 9.33301 75 28s38.167 41.5 52.5 68.5s25.833 55.5 34.5 85.5l22 78l18 72c12.667 52.667 30 100 52 142s51.667 82.667 89 122l-18.5 -4c-6.33301 -1.33301 -12.833 -2 -19.5 -2c-19.333 0 -36.833 1.33301 -52.5 4
s-31.167 5.66699 -46.5 9c-13.333 2.66699 -26.666 5.5 -39.999 8.5s-27 4.5 -41 4.5c-17.333 0 -33.666 -2.33301 -48.999 -7s-28.666 -11.334 -39.999 -20.001s-20.5 -19.667 -27.5 -33s-10.5 -28.333 -10.5 -45c0 -22 7.33301 -41.333 22 -58s33.334 -25 56.001 -25
c18 0 34.5 5.33301 49.5 16s25.167 24.667 30.5 42l15 -5c-7.33301 -23.333 -19.833 -40.5 -37.5 -51.5s-36.167 -16.5 -55.5 -16.5c-12.667 0 -25 2.16699 -37 6.5s-22.667 10.5 -32 18.5s-16.833 18.167 -22.5 30.5s-8.5 26.5 -8.5 42.5c0 21.333 4.83301 40 14.5 56
s22.334 29.5 38.001 40.5s33.5 19.167 53.5 24.5s40.333 8 61 8c21.333 0 40.666 -1.66699 57.999 -5s33.666 -6.66602 48.999 -9.99902c13.333 -3.33301 26.5 -6 39.5 -8s26.833 -3 41.5 -3c10 0 19.5 1.33301 28.5 4s17.833 6.33398 26.5 11.001l8 -13
c-19.333 -12 -35.166 -24.833 -47.499 -38.5s-23.833 -31.5 -34.5 -53.5c-10 -21.333 -18.833 -45.333 -26.5 -72s-15.5 -55.667 -23.5 -87l-20 -79c-4.66699 -19.333 -10.334 -40.166 -17.001 -62.499s-14.667 -44.666 -24 -66.999s-20.166 -43.833 -32.499 -64.5
s-26.833 -39 -43.5 -55s-35.5 -28.833 -56.5 -38.5s-44.5 -14.5 -70.5 -14.5zM277.996 727.999h24l134 -121h-31l-115 60l-115 -60h-30z" />
    <glyph glyph-name="Idieresis" unicode="&#xcf;" horiz-adv-x="382" 
d="M86 -60c-22 0 -41.8369 6.83203 -59.5039 20.499s-26.5 32.167 -26.5 55.5c0 13.333 3.16699 25.166 9.5 35.499s14.833 19.166 25.5 26.499l9 -13c-7.33301 -5.33301 -13.5 -11.833 -18.5 -19.5s-7.5 -16.167 -7.5 -25.5c0 -18.667 6.83301 -34 20.5 -46
s29.5 -18 47.5 -18c29.333 0 54.333 9.33301 75 28s38.167 41.5 52.5 68.5s25.833 55.5 34.5 85.5l22 78l18 72c12.667 52.667 30 100 52 142s51.667 82.667 89 122l-18.5 -4c-6.33301 -1.33301 -12.833 -2 -19.5 -2c-19.333 0 -36.833 1.33301 -52.5 4
s-31.167 5.66699 -46.5 9c-13.333 2.66699 -26.666 5.5 -39.999 8.5s-27 4.5 -41 4.5c-17.333 0 -33.666 -2.33301 -48.999 -7s-28.666 -11.334 -39.999 -20.001s-20.5 -19.667 -27.5 -33s-10.5 -28.333 -10.5 -45c0 -22 7.33301 -41.333 22 -58s33.334 -25 56.001 -25
c18 0 34.5 5.33301 49.5 16s25.167 24.667 30.5 42l15 -5c-7.33301 -23.333 -19.833 -40.5 -37.5 -51.5s-36.167 -16.5 -55.5 -16.5c-12.667 0 -25 2.16699 -37 6.5s-22.667 10.5 -32 18.5s-16.833 18.167 -22.5 30.5s-8.5 26.5 -8.5 42.5c0 21.333 4.83301 40 14.5 56
s22.334 29.5 38.001 40.5s33.5 19.167 53.5 24.5s40.333 8 61 8c21.333 0 40.666 -1.66699 57.999 -5s33.666 -6.66602 48.999 -9.99902c13.333 -3.33301 26.5 -6 39.5 -8s26.833 -3 41.5 -3c10 0 19.5 1.33301 28.5 4s17.833 6.33398 26.5 11.001l8 -13
c-19.333 -12 -35.166 -24.833 -47.499 -38.5s-23.833 -31.5 -34.5 -53.5c-10 -21.333 -18.833 -45.333 -26.5 -72s-15.5 -55.667 -23.5 -87l-20 -79c-4.66699 -19.333 -10.334 -40.166 -17.001 -62.499s-14.667 -44.666 -24 -66.999s-20.166 -43.833 -32.499 -64.5
s-26.833 -39 -43.5 -55s-35.5 -28.833 -56.5 -38.5s-44.5 -14.5 -70.5 -14.5zM309.996 678.999c10 0 18.5 -3.5 25.5 -10.5s10.5 -15.5 10.5 -25.5c0 -9.33301 -3.5 -17.666 -10.5 -24.999s-15.5 -11 -25.5 -11s-18.5 3.66699 -25.5 11s-10.5 15.666 -10.5 24.999
c0 10 3.5 18.5 10.5 25.5s15.5 10.5 25.5 10.5zM402.996 678.999c10 0 18.5 -3.5 25.5 -10.5s10.5 -15.5 10.5 -25.5c0 -9.33301 -3.5 -17.666 -10.5 -24.999s-15.5 -11 -25.5 -11s-18.5 3.66699 -25.5 11s-10.5 15.666 -10.5 24.999c0 10 3.5 18.5 10.5 25.5
s15.5 10.5 25.5 10.5z" />
    <glyph glyph-name="Eth" unicode="&#xd0;" horiz-adv-x="827" 
d="M409 208l-9.99902 -32.998h-81l-62 -192c29.333 -7.33301 59.166 -12 89.499 -14s60.5 -3 90.5 -3c46 0 89.5 8.5 130.5 25.5s77 40.167 108 69.5s55.5 64.166 73.5 104.499s27 84.166 27 131.499c0 40 -7.5 78.5 -22.5 115.5s-39.5 69.167 -73.5 96.5
c-26 21.333 -58 38.333 -96 51s-82 20.667 -132 24l-122 -376h80zM155.001 -35.998c15.333 0 28.832 4.33203 40.499 12.999s19.834 20 24.501 34l54 164h-65l10 33h65l123 377c-50 -1.33301 -96.5 -8.16602 -139.5 -20.499s-80.5 -29.166 -112.5 -50.499
c-32.667 -21.333 -58.334 -46.333 -77.001 -75s-28 -59.667 -28 -93c0 -13.333 2.5 -26.333 7.5 -39s11.833 -24 20.5 -34s19 -18.167 31 -24.5s25 -9.5 39 -9.5c16 0 31.333 3.5 46 10.5s27.334 17.167 38.001 30.5l12 -10c-12 -14.667 -26.333 -26 -43 -34
s-34.334 -12 -53.001 -12c-18 0 -34.5 3.16699 -49.5 9.5s-28 15 -39 26s-19.667 24 -26 39s-9.5 31.167 -9.5 48.5c0 36 10.667 69.667 32 101s51 58.666 89 81.999c37.333 23.333 80.333 41.5 129 54.5s101.334 19.5 158.001 19.5c64 0 119.5 -7.33301 166.5 -22
s86.5 -34.667 118.5 -60c38 -30 65.833 -64.667 83.5 -104s26.5 -80.333 26.5 -123c0 -45.333 -9.5 -89.5 -28.5 -132.5s-46.5 -81.5 -82.5 -115.5c-32 -30 -69.667 -53.833 -113 -71.5s-92 -26.5 -146 -26.5h-335l5 15h28z" />
    <glyph glyph-name="Ntilde" unicode="&#xd1;" horiz-adv-x="977" 
d="M135 -119c32.667 0 62.498 10.335 89.498 31.002s51.5 45.667 73.5 75s41.333 60.333 58 93l42 85l188 393c-8.66699 -4 -17.5 -6.83301 -26.5 -8.5s-18.167 -2.5 -27.5 -2.5c-21.333 0 -42.5 1.33301 -63.5 4s-42.167 4 -63.5 4s-42.166 -3.16699 -62.499 -9.5
s-38.666 -15.833 -54.999 -28.5s-29.5 -28 -39.5 -46s-15 -38.333 -15 -61c0 -14 2.5 -28 7.5 -42s12 -26.5 21 -37.5s19.667 -20 32 -27s26.166 -10.5 41.499 -10.5c21.333 0 41 6 59 18l8 -13c-20 -14 -43 -21 -69 -21c-17.333 0 -33.5 3.33301 -48.5 10
s-28 15.5 -39 26.5s-19.833 24 -26.5 39s-10 31.167 -10 48.5c0 27.333 6.33301 52 19 74s29 40.833 49 56.5s42.667 27.667 68 36s50.666 12.5 75.999 12.5c22.667 0 45.167 -1.16699 67.5 -3.5s44.833 -3.5 67.5 -3.5c10.667 0 20.334 1.5 29.001 4.5
s17.667 6.83301 27 11.5l197 -564l111 331c7.33301 22 15.166 44 23.499 66s17.833 43.167 28.5 63.5s22.834 39.666 36.501 57.999s29.834 35.5 48.501 51.5l20 -18c-20 -14.667 -37.167 -30.5 -51.5 -47.5s-27 -35 -38 -54s-20.667 -38.833 -29 -59.5
s-16.166 -42.334 -23.499 -65.001l-134 -400h-15l-200 571l-184 -393c-12 -25.333 -26.167 -53.666 -42.5 -84.999s-35.166 -60.833 -56.499 -88.5s-45.333 -50.834 -72 -69.501s-56.334 -28 -89.001 -28c-30 0 -56.833 8.5 -80.5 25.5s-44.167 37.167 -61.5 60.5l12 9
c15.333 -20 33.166 -37 53.499 -51s43.5 -21 69.5 -21zM734.998 696.002c12 0 23.998 -2.16504 35.998 -6.49805s23.667 -9.33301 35 -15s22.5 -10.667 33.5 -15s22.167 -6.5 33.5 -6.5s22 3.5 32 10.5s15 16.833 15 29.5h18c0 -22.667 -7.16699 -42.667 -21.5 -60
s-33.166 -26 -56.499 -26c-12 0 -24 2.16699 -36 6.5s-24 9.16602 -36 14.499s-23.833 10.166 -35.5 14.499s-22.834 6.5 -33.501 6.5c-11.333 0 -21.666 -3.33301 -30.999 -10s-14.666 -16 -15.999 -28h-17c0 24.667 7 45 21 61s33.667 24 59 24z" />
    <glyph glyph-name="Ograve" unicode="&#xd2;" horiz-adv-x="789" 
d="M400 580c-41.333 0 -81.001 -7.00098 -119.001 -21.001s-71.5 -33.667 -100.5 -59s-52 -55.833 -69 -91.5s-25.5 -74.834 -25.5 -117.501c0 -51.333 7.5 -97.166 22.5 -137.499s36.333 -74.666 64 -102.999s60.834 -50 99.501 -65s82 -22.5 130 -22.5
c42 0 81.333 6.83301 118 20.5s68.667 33.167 96 58.5s49 55.833 65 91.5s24 75.5 24 119.5c0 48 -7.33301 92 -22 132s-35.167 74.5 -61.5 103.5s-58.333 51.5 -96 67.5s-79.5 24 -125.5 24zM406.999 597.999c46 0 90.168 -7.33398 132.501 -22.001
s79.666 -35.834 111.999 -63.501s58 -61.167 77 -100.5s28.5 -83.333 28.5 -132c0 -50 -10 -95.667 -30 -137s-46.667 -76.666 -80 -105.999s-71.5 -52.166 -114.5 -68.499s-87.833 -24.5 -134.5 -24.5c-47.333 0 -93 8 -137 24s-83 38.5 -117 67.5
s-61.167 64.167 -81.5 105.5s-30.5 87 -30.5 137c0 48 10.167 91.667 30.5 131s47.833 73 82.5 101s74.5 49.667 119.5 65s92.5 23 142.5 23zM471 620.998h-27.999l-156 80c-8.66699 4 -14.834 9.16699 -18.501 15.5s-5.5 12.5 -5.5 18.5c0 10 3 17.333 9 22s13 7 21 7
c12 0 23.333 -4.66699 34 -14z" />
    <glyph glyph-name="Oacute" unicode="&#xd3;" horiz-adv-x="789" 
d="M400 580c-41.333 0 -81.001 -7.00098 -119.001 -21.001s-71.5 -33.667 -100.5 -59s-52 -55.833 -69 -91.5s-25.5 -74.834 -25.5 -117.501c0 -51.333 7.5 -97.166 22.5 -137.499s36.333 -74.666 64 -102.999s60.834 -50 99.501 -65s82 -22.5 130 -22.5
c42 0 81.333 6.83301 118 20.5s68.667 33.167 96 58.5s49 55.833 65 91.5s24 75.5 24 119.5c0 48 -7.33301 92 -22 132s-35.167 74.5 -61.5 103.5s-58.333 51.5 -96 67.5s-79.5 24 -125.5 24zM406.999 597.999c46 0 90.168 -7.33398 132.501 -22.001
s79.666 -35.834 111.999 -63.501s58 -61.167 77 -100.5s28.5 -83.333 28.5 -132c0 -50 -10 -95.667 -30 -137s-46.667 -76.666 -80 -105.999s-71.5 -52.166 -114.5 -68.499s-87.833 -24.5 -134.5 -24.5c-47.333 0 -93 8 -137 24s-83 38.5 -117 67.5
s-61.167 64.167 -81.5 105.5s-30.5 87 -30.5 137c0 48 10.167 91.667 30.5 131s47.833 73 82.5 101s74.5 49.667 119.5 65s92.5 23 142.5 23zM497 744.998c10.667 9.33301 22.001 14 34.001 14c8 0 15 -2.33301 21 -7s9 -12 9 -22c0 -6 -1.83301 -12.167 -5.5 -18.5
s-9.83398 -11.5 -18.501 -15.5l-156 -80h-28z" />
    <glyph glyph-name="Ocircumflex" unicode="&#xd4;" horiz-adv-x="789" 
d="M400 580c-41.333 0 -81.001 -7.00098 -119.001 -21.001s-71.5 -33.667 -100.5 -59s-52 -55.833 -69 -91.5s-25.5 -74.834 -25.5 -117.501c0 -51.333 7.5 -97.166 22.5 -137.499s36.333 -74.666 64 -102.999s60.834 -50 99.501 -65s82 -22.5 130 -22.5
c42 0 81.333 6.83301 118 20.5s68.667 33.167 96 58.5s49 55.833 65 91.5s24 75.5 24 119.5c0 48 -7.33301 92 -22 132s-35.167 74.5 -61.5 103.5s-58.333 51.5 -96 67.5s-79.5 24 -125.5 24zM406.999 597.999c46 0 90.168 -7.33398 132.501 -22.001
s79.666 -35.834 111.999 -63.501s58 -61.167 77 -100.5s28.5 -83.333 28.5 -132c0 -50 -10 -95.667 -30 -137s-46.667 -76.666 -80 -105.999s-71.5 -52.166 -114.5 -68.499s-87.833 -24.5 -134.5 -24.5c-47.333 0 -93 8 -137 24s-83 38.5 -117 67.5
s-61.167 64.167 -81.5 105.5s-30.5 87 -30.5 137c0 48 10.167 91.667 30.5 131s47.833 73 82.5 101s74.5 49.667 119.5 65s92.5 23 142.5 23zM410 729.998h24l134 -121h-31l-115 60l-115 -60h-30z" />
    <glyph glyph-name="Otilde" unicode="&#xd5;" horiz-adv-x="789" 
d="M400 580c-41.333 0 -81.001 -7.00098 -119.001 -21.001s-71.5 -33.667 -100.5 -59s-52 -55.833 -69 -91.5s-25.5 -74.834 -25.5 -117.501c0 -51.333 7.5 -97.166 22.5 -137.499s36.333 -74.666 64 -102.999s60.834 -50 99.501 -65s82 -22.5 130 -22.5
c42 0 81.333 6.83301 118 20.5s68.667 33.167 96 58.5s49 55.833 65 91.5s24 75.5 24 119.5c0 48 -7.33301 92 -22 132s-35.167 74.5 -61.5 103.5s-58.333 51.5 -96 67.5s-79.5 24 -125.5 24zM406.999 597.999c46 0 90.168 -7.33398 132.501 -22.001
s79.666 -35.834 111.999 -63.501s58 -61.167 77 -100.5s28.5 -83.333 28.5 -132c0 -50 -10 -95.667 -30 -137s-46.667 -76.666 -80 -105.999s-71.5 -52.166 -114.5 -68.499s-87.833 -24.5 -134.5 -24.5c-47.333 0 -93 8 -137 24s-83 38.5 -117 67.5
s-61.167 64.167 -81.5 105.5s-30.5 87 -30.5 137c0 48 10.167 91.667 30.5 131s47.833 73 82.5 101s74.5 49.667 119.5 65s92.5 23 142.5 23zM360 709.998c12 0 23.998 -2.16504 35.998 -6.49805s23.667 -9.33301 35 -15s22.5 -10.667 33.5 -15s22.167 -6.5 33.5 -6.5
s22 3.5 32 10.5s15 16.833 15 29.5h18c0 -22.667 -7.16699 -42.667 -21.5 -60s-33.166 -26 -56.499 -26c-12 0 -24 2.16699 -36 6.5s-24 9.16602 -36 14.499s-23.833 10.166 -35.5 14.499s-22.834 6.5 -33.501 6.5c-11.333 0 -21.666 -3.33301 -30.999 -10
s-14.666 -16 -15.999 -28h-17c0 24.667 7 45 21 61s33.667 24 59 24z" />
    <glyph glyph-name="Odieresis" unicode="&#xd6;" horiz-adv-x="789" 
d="M400 580c-41.333 0 -81.001 -7.00098 -119.001 -21.001s-71.5 -33.667 -100.5 -59s-52 -55.833 -69 -91.5s-25.5 -74.834 -25.5 -117.501c0 -51.333 7.5 -97.166 22.5 -137.499s36.333 -74.666 64 -102.999s60.834 -50 99.501 -65s82 -22.5 130 -22.5
c42 0 81.333 6.83301 118 20.5s68.667 33.167 96 58.5s49 55.833 65 91.5s24 75.5 24 119.5c0 48 -7.33301 92 -22 132s-35.167 74.5 -61.5 103.5s-58.333 51.5 -96 67.5s-79.5 24 -125.5 24zM406.999 597.999c46 0 90.168 -7.33398 132.501 -22.001
s79.666 -35.834 111.999 -63.501s58 -61.167 77 -100.5s28.5 -83.333 28.5 -132c0 -50 -10 -95.667 -30 -137s-46.667 -76.666 -80 -105.999s-71.5 -52.166 -114.5 -68.499s-87.833 -24.5 -134.5 -24.5c-47.333 0 -93 8 -137 24s-83 38.5 -117 67.5
s-61.167 64.167 -81.5 105.5s-30.5 87 -30.5 137c0 48 10.167 91.667 30.5 131s47.833 73 82.5 101s74.5 49.667 119.5 65s92.5 23 142.5 23zM379 691.998c10 0 18.5 -3.5 25.5 -10.5s10.5 -15.5 10.5 -25.5c0 -9.33301 -3.5 -17.666 -10.5 -24.999s-15.5 -11 -25.5 -11
s-18.5 3.66699 -25.5 11s-10.5 15.666 -10.5 24.999c0 10 3.5 18.5 10.5 25.5s15.5 10.5 25.5 10.5zM472 691.998c10 0 18.5 -3.5 25.5 -10.5s10.5 -15.5 10.5 -25.5c0 -9.33301 -3.5 -17.666 -10.5 -24.999s-15.5 -11 -25.5 -11s-18.5 3.66699 -25.5 11
s-10.5 15.666 -10.5 24.999c0 10 3.5 18.5 10.5 25.5s15.5 10.5 25.5 10.5z" />
    <glyph glyph-name="multiply" unicode="&#xd7;" horiz-adv-x="323" 
d="M161 309l125 125l37 -36l-125 -125l125 -125l-37 -37l-125 125l-125 -125l-36 37l125 125l-125 125l36 36z" />
    <glyph glyph-name="Oslash" unicode="&#xd8;" horiz-adv-x="789" 
d="M610 499c-26.667 25.333 -57.667 45 -93 59s-74.333 21 -117 21c-41.333 0 -81 -7 -119 -21s-71.5 -33.667 -100.5 -59s-52 -55.833 -69 -91.5s-25.5 -75.167 -25.5 -118.5c0 -48.667 7 -92.667 21 -132s33.667 -73 59 -101zM180 42c28 -26 60.5 -45.833 97.5 -59.5
s78.5 -20.5 124.5 -20.5c42 0 81.333 6.83301 118 20.5s68.667 33.167 96 58.5s49 55.833 65 91.5s24 75.5 24 119.5c0 47.333 -7 90.5 -21 129.5s-34 73.167 -60 102.5zM407 597c42.667 0 83.5 -6.33398 122.5 -19.001s74.167 -30.667 105.5 -54l63 63l15 -14l-62 -62
c32.667 -28 58.5 -61.333 77.5 -100s28.5 -82.667 28.5 -132c0 -50 -10 -95.833 -30 -137.5s-46.667 -77.167 -80 -106.5s-71.5 -52.166 -114.5 -68.499s-87.833 -24.5 -134.5 -24.5c-44 0 -86.333 6.83301 -127 20.5s-77.667 33.167 -111 58.5l-70 -69l-14 15l68 67
c-34 30 -61.167 65.333 -81.5 106s-30.5 86 -30.5 136c0 48 10.167 91.833 30.5 131.5s47.833 73.5 82.5 101.5s74.5 49.667 119.5 65s92.5 23 142.5 23z" />
    <glyph glyph-name="Ugrave" unicode="&#xd9;" horiz-adv-x="795" 
d="M434 588c-10 0 -21.333 -3 -34 -9s-23.667 -13 -33 -21c5.33301 -1.33301 10.5 -2.33301 15.5 -3s10.167 -1 15.5 -1c12.667 0 24 2.66699 34 8s15 11.333 15 18c0 5.33301 -4.33301 8 -13 8zM434 604c8 0 15.0039 -2.16797 21.0039 -6.50098s9 -10.166 9 -17.499
c0 -11.333 -6 -21 -18 -29s-28 -12 -48 -12c-16 0 -32.333 1 -49 3c-12.667 -12.667 -24.834 -27.334 -36.501 -44.001s-23.167 -34.667 -34.5 -54c-23.333 -42 -42.5 -88.667 -57.5 -140s-22.5 -101.666 -22.5 -150.999c0 -18 2.16699 -37.667 6.5 -59
s11.5 -41.166 21.5 -59.499s22.833 -33.5 38.5 -45.5s34.834 -18 57.501 -18c34.667 0 65.5 8.83301 92.5 26.5s51 39.834 72 66.501s39.167 55.5 54.5 86.5s29 59.833 41 86.5l157 358h51l-129 -452c-5.33301 -18 -10 -36.667 -14 -56s-6 -38.666 -6 -57.999
c0 -6.66699 0.5 -13.834 1.5 -21.501s3 -14.834 6 -21.501s7.33301 -12.167 13 -16.5s12.834 -6.5 21.501 -6.5c10.667 0 21.167 4.16699 31.5 12.5s19.833 18.5 28.5 30.5s16.167 24.5 22.5 37.5s11.166 23.833 14.499 32.5l15 -6c-4 -12.667 -10 -26.667 -18 -42
s-17.333 -29.5 -28 -42.5s-22.667 -23.833 -36 -32.5s-27.666 -13 -42.999 -13c-28 0 -48.167 9.33301 -60.5 28s-18.5 40.667 -18.5 66c0 22.667 2.5 45.167 7.5 67.5s10.833 44.166 17.5 65.499l104 347l-124 -283c-12.667 -29.333 -27.334 -60.666 -44.001 -93.999
s-36 -64.166 -58 -92.499s-47.5 -52 -76.5 -71s-62.167 -28.5 -99.5 -28.5c-28.667 0 -53.667 5.66699 -75 17s-39.166 26.5 -53.499 45.5s-25 40.667 -32 65s-10.5 49.5 -10.5 75.5c0 22 2.66699 45.667 8 71s12.5 50.833 21.5 76.5s19.667 51.167 32 76.5
s25.833 49.666 40.5 72.999c12 19.333 24.667 37.5 38 54.5s26.666 32.167 39.999 45.5c-15.333 2 -29.5 4.33301 -42.5 7l-38.5 8c-12.667 2.66699 -25.334 5 -38.001 7s-26 3 -40 3c-15.333 0 -30.5 -2.83301 -45.5 -8.5s-28.833 -13.334 -41.5 -23.001
s-22.834 -21 -30.501 -34s-11.5 -27.167 -11.5 -42.5c0 -21.333 7.83301 -39.166 23.5 -53.499s34.167 -21.5 55.5 -21.5c20.667 0 38.834 7.16699 54.501 21.5s23.5 32.166 23.5 53.499h16c0 -12.667 -2.5 -24.5 -7.5 -35.5s-11.833 -20.667 -20.5 -29
s-18.667 -14.833 -30 -19.5s-23.333 -7 -36 -7s-24.667 2.33301 -36 7s-21.333 11.167 -30 19.5s-15.5 18 -20.5 29s-7.5 22.833 -7.5 35.5c0 22 5.33301 41.5 16 58.5s24.167 31.167 40.5 42.5s34.666 19.833 54.999 25.5s40.166 8.5 59.499 8.5c28 0 54 -3.83301 78 -11.5
s48.667 -15.167 74 -22.5c12 10 25.667 19.333 41 28s30.666 13 45.999 13zM630.004 602.999h-27.999l-156 80c-8.66699 4 -14.834 9.16699 -18.501 15.5s-5.5 12.5 -5.5 18.5c0 10 3 17.333 9 22s13 7 21 7c12 0 23.333 -4.66699 34 -14z" />
    <glyph glyph-name="Uacute" unicode="&#xda;" horiz-adv-x="795" 
d="M434 588c-10 0 -21.333 -3 -34 -9s-23.667 -13 -33 -21c5.33301 -1.33301 10.5 -2.33301 15.5 -3s10.167 -1 15.5 -1c12.667 0 24 2.66699 34 8s15 11.333 15 18c0 5.33301 -4.33301 8 -13 8zM434 604c8 0 15.0039 -2.16797 21.0039 -6.50098s9 -10.166 9 -17.499
c0 -11.333 -6 -21 -18 -29s-28 -12 -48 -12c-16 0 -32.333 1 -49 3c-12.667 -12.667 -24.834 -27.334 -36.501 -44.001s-23.167 -34.667 -34.5 -54c-23.333 -42 -42.5 -88.667 -57.5 -140s-22.5 -101.666 -22.5 -150.999c0 -18 2.16699 -37.667 6.5 -59
s11.5 -41.166 21.5 -59.499s22.833 -33.5 38.5 -45.5s34.834 -18 57.501 -18c34.667 0 65.5 8.83301 92.5 26.5s51 39.834 72 66.501s39.167 55.5 54.5 86.5s29 59.833 41 86.5l157 358h51l-129 -452c-5.33301 -18 -10 -36.667 -14 -56s-6 -38.666 -6 -57.999
c0 -6.66699 0.5 -13.834 1.5 -21.501s3 -14.834 6 -21.501s7.33301 -12.167 13 -16.5s12.834 -6.5 21.501 -6.5c10.667 0 21.167 4.16699 31.5 12.5s19.833 18.5 28.5 30.5s16.167 24.5 22.5 37.5s11.166 23.833 14.499 32.5l15 -6c-4 -12.667 -10 -26.667 -18 -42
s-17.333 -29.5 -28 -42.5s-22.667 -23.833 -36 -32.5s-27.666 -13 -42.999 -13c-28 0 -48.167 9.33301 -60.5 28s-18.5 40.667 -18.5 66c0 22.667 2.5 45.167 7.5 67.5s10.833 44.166 17.5 65.499l104 347l-124 -283c-12.667 -29.333 -27.334 -60.666 -44.001 -93.999
s-36 -64.166 -58 -92.499s-47.5 -52 -76.5 -71s-62.167 -28.5 -99.5 -28.5c-28.667 0 -53.667 5.66699 -75 17s-39.166 26.5 -53.499 45.5s-25 40.667 -32 65s-10.5 49.5 -10.5 75.5c0 22 2.66699 45.667 8 71s12.5 50.833 21.5 76.5s19.667 51.167 32 76.5
s25.833 49.666 40.5 72.999c12 19.333 24.667 37.5 38 54.5s26.666 32.167 39.999 45.5c-15.333 2 -29.5 4.33301 -42.5 7l-38.5 8c-12.667 2.66699 -25.334 5 -38.001 7s-26 3 -40 3c-15.333 0 -30.5 -2.83301 -45.5 -8.5s-28.833 -13.334 -41.5 -23.001
s-22.834 -21 -30.501 -34s-11.5 -27.167 -11.5 -42.5c0 -21.333 7.83301 -39.166 23.5 -53.499s34.167 -21.5 55.5 -21.5c20.667 0 38.834 7.16699 54.501 21.5s23.5 32.166 23.5 53.499h16c0 -12.667 -2.5 -24.5 -7.5 -35.5s-11.833 -20.667 -20.5 -29
s-18.667 -14.833 -30 -19.5s-23.333 -7 -36 -7s-24.667 2.33301 -36 7s-21.333 11.167 -30 19.5s-15.5 18 -20.5 29s-7.5 22.833 -7.5 35.5c0 22 5.33301 41.5 16 58.5s24.167 31.167 40.5 42.5s34.666 19.833 54.999 25.5s40.166 8.5 59.499 8.5c28 0 54 -3.83301 78 -11.5
s48.667 -15.167 74 -22.5c12 10 25.667 19.333 41 28s30.666 13 45.999 13zM648.004 732.999c10.667 9.33301 22.001 14 34.001 14c8 0 15 -2.33301 21 -7s9 -12 9 -22c0 -6 -1.83301 -12.167 -5.5 -18.5s-9.83398 -11.5 -18.501 -15.5l-156 -80h-28z" />
    <glyph glyph-name="Ucircumflex" unicode="&#xdb;" horiz-adv-x="795" 
d="M434 588c-10 0 -21.333 -3 -34 -9s-23.667 -13 -33 -21c5.33301 -1.33301 10.5 -2.33301 15.5 -3s10.167 -1 15.5 -1c12.667 0 24 2.66699 34 8s15 11.333 15 18c0 5.33301 -4.33301 8 -13 8zM434 604c8 0 15.0039 -2.16797 21.0039 -6.50098s9 -10.166 9 -17.499
c0 -11.333 -6 -21 -18 -29s-28 -12 -48 -12c-16 0 -32.333 1 -49 3c-12.667 -12.667 -24.834 -27.334 -36.501 -44.001s-23.167 -34.667 -34.5 -54c-23.333 -42 -42.5 -88.667 -57.5 -140s-22.5 -101.666 -22.5 -150.999c0 -18 2.16699 -37.667 6.5 -59
s11.5 -41.166 21.5 -59.499s22.833 -33.5 38.5 -45.5s34.834 -18 57.501 -18c34.667 0 65.5 8.83301 92.5 26.5s51 39.834 72 66.501s39.167 55.5 54.5 86.5s29 59.833 41 86.5l157 358h51l-129 -452c-5.33301 -18 -10 -36.667 -14 -56s-6 -38.666 -6 -57.999
c0 -6.66699 0.5 -13.834 1.5 -21.501s3 -14.834 6 -21.501s7.33301 -12.167 13 -16.5s12.834 -6.5 21.501 -6.5c10.667 0 21.167 4.16699 31.5 12.5s19.833 18.5 28.5 30.5s16.167 24.5 22.5 37.5s11.166 23.833 14.499 32.5l15 -6c-4 -12.667 -10 -26.667 -18 -42
s-17.333 -29.5 -28 -42.5s-22.667 -23.833 -36 -32.5s-27.666 -13 -42.999 -13c-28 0 -48.167 9.33301 -60.5 28s-18.5 40.667 -18.5 66c0 22.667 2.5 45.167 7.5 67.5s10.833 44.166 17.5 65.499l104 347l-124 -283c-12.667 -29.333 -27.334 -60.666 -44.001 -93.999
s-36 -64.166 -58 -92.499s-47.5 -52 -76.5 -71s-62.167 -28.5 -99.5 -28.5c-28.667 0 -53.667 5.66699 -75 17s-39.166 26.5 -53.499 45.5s-25 40.667 -32 65s-10.5 49.5 -10.5 75.5c0 22 2.66699 45.667 8 71s12.5 50.833 21.5 76.5s19.667 51.167 32 76.5
s25.833 49.666 40.5 72.999c12 19.333 24.667 37.5 38 54.5s26.666 32.167 39.999 45.5c-15.333 2 -29.5 4.33301 -42.5 7l-38.5 8c-12.667 2.66699 -25.334 5 -38.001 7s-26 3 -40 3c-15.333 0 -30.5 -2.83301 -45.5 -8.5s-28.833 -13.334 -41.5 -23.001
s-22.834 -21 -30.501 -34s-11.5 -27.167 -11.5 -42.5c0 -21.333 7.83301 -39.166 23.5 -53.499s34.167 -21.5 55.5 -21.5c20.667 0 38.834 7.16699 54.501 21.5s23.5 32.166 23.5 53.499h16c0 -12.667 -2.5 -24.5 -7.5 -35.5s-11.833 -20.667 -20.5 -29
s-18.667 -14.833 -30 -19.5s-23.333 -7 -36 -7s-24.667 2.33301 -36 7s-21.333 11.167 -30 19.5s-15.5 18 -20.5 29s-7.5 22.833 -7.5 35.5c0 22 5.33301 41.5 16 58.5s24.167 31.167 40.5 42.5s34.666 19.833 54.999 25.5s40.166 8.5 59.499 8.5c28 0 54 -3.83301 78 -11.5
s48.667 -15.167 74 -22.5c12 10 25.667 19.333 41 28s30.666 13 45.999 13zM567.004 727.999h24l134 -121h-31l-115 60l-115 -60h-30z" />
    <glyph glyph-name="Udieresis" unicode="&#xdc;" horiz-adv-x="795" 
d="M434 588c-10 0 -21.333 -3 -34 -9s-23.667 -13 -33 -21c5.33301 -1.33301 10.5 -2.33301 15.5 -3s10.167 -1 15.5 -1c12.667 0 24 2.66699 34 8s15 11.333 15 18c0 5.33301 -4.33301 8 -13 8zM434 604c8 0 15.0039 -2.16797 21.0039 -6.50098s9 -10.166 9 -17.499
c0 -11.333 -6 -21 -18 -29s-28 -12 -48 -12c-16 0 -32.333 1 -49 3c-12.667 -12.667 -24.834 -27.334 -36.501 -44.001s-23.167 -34.667 -34.5 -54c-23.333 -42 -42.5 -88.667 -57.5 -140s-22.5 -101.666 -22.5 -150.999c0 -18 2.16699 -37.667 6.5 -59
s11.5 -41.166 21.5 -59.499s22.833 -33.5 38.5 -45.5s34.834 -18 57.501 -18c34.667 0 65.5 8.83301 92.5 26.5s51 39.834 72 66.501s39.167 55.5 54.5 86.5s29 59.833 41 86.5l157 358h51l-129 -452c-5.33301 -18 -10 -36.667 -14 -56s-6 -38.666 -6 -57.999
c0 -6.66699 0.5 -13.834 1.5 -21.501s3 -14.834 6 -21.501s7.33301 -12.167 13 -16.5s12.834 -6.5 21.501 -6.5c10.667 0 21.167 4.16699 31.5 12.5s19.833 18.5 28.5 30.5s16.167 24.5 22.5 37.5s11.166 23.833 14.499 32.5l15 -6c-4 -12.667 -10 -26.667 -18 -42
s-17.333 -29.5 -28 -42.5s-22.667 -23.833 -36 -32.5s-27.666 -13 -42.999 -13c-28 0 -48.167 9.33301 -60.5 28s-18.5 40.667 -18.5 66c0 22.667 2.5 45.167 7.5 67.5s10.833 44.166 17.5 65.499l104 347l-124 -283c-12.667 -29.333 -27.334 -60.666 -44.001 -93.999
s-36 -64.166 -58 -92.499s-47.5 -52 -76.5 -71s-62.167 -28.5 -99.5 -28.5c-28.667 0 -53.667 5.66699 -75 17s-39.166 26.5 -53.499 45.5s-25 40.667 -32 65s-10.5 49.5 -10.5 75.5c0 22 2.66699 45.667 8 71s12.5 50.833 21.5 76.5s19.667 51.167 32 76.5
s25.833 49.666 40.5 72.999c12 19.333 24.667 37.5 38 54.5s26.666 32.167 39.999 45.5c-15.333 2 -29.5 4.33301 -42.5 7l-38.5 8c-12.667 2.66699 -25.334 5 -38.001 7s-26 3 -40 3c-15.333 0 -30.5 -2.83301 -45.5 -8.5s-28.833 -13.334 -41.5 -23.001
s-22.834 -21 -30.501 -34s-11.5 -27.167 -11.5 -42.5c0 -21.333 7.83301 -39.166 23.5 -53.499s34.167 -21.5 55.5 -21.5c20.667 0 38.834 7.16699 54.501 21.5s23.5 32.166 23.5 53.499h16c0 -12.667 -2.5 -24.5 -7.5 -35.5s-11.833 -20.667 -20.5 -29
s-18.667 -14.833 -30 -19.5s-23.333 -7 -36 -7s-24.667 2.33301 -36 7s-21.333 11.167 -30 19.5s-15.5 18 -20.5 29s-7.5 22.833 -7.5 35.5c0 22 5.33301 41.5 16 58.5s24.167 31.167 40.5 42.5s34.666 19.833 54.999 25.5s40.166 8.5 59.499 8.5c28 0 54 -3.83301 78 -11.5
s48.667 -15.167 74 -22.5c12 10 25.667 19.333 41 28s30.666 13 45.999 13zM521.004 680.999c10 0 18.5 -3.5 25.5 -10.5s10.5 -15.5 10.5 -25.5c0 -9.33301 -3.5 -17.666 -10.5 -24.999s-15.5 -11 -25.5 -11s-18.5 3.66699 -25.5 11s-10.5 15.666 -10.5 24.999
c0 10 3.5 18.5 10.5 25.5s15.5 10.5 25.5 10.5zM614.004 680.999c10 0 18.5 -3.5 25.5 -10.5s10.5 -15.5 10.5 -25.5c0 -9.33301 -3.5 -17.666 -10.5 -24.999s-15.5 -11 -25.5 -11s-18.5 3.66699 -25.5 11s-10.5 15.666 -10.5 24.999c0 10 3.5 18.5 10.5 25.5
s15.5 10.5 25.5 10.5z" />
    <glyph glyph-name="Yacute" unicode="&#xdd;" horiz-adv-x="617" 
d="M401 22c-1.33301 -6.66699 -2.00195 -12 -2.00195 -16c0 -13.333 4 -23.333 12 -30s18.333 -10 31 -10h28l-5 -15h-226l5 15h11c22.667 0 41.5 4.33301 56.5 13s25.5 24.334 31.5 47.001l71 261c0 37.333 -4 72 -12 104s-21 62.667 -39 92
c-8 12.667 -17.333 24.834 -28 36.501s-22.334 21.834 -35.001 30.501s-26.167 15.667 -40.5 21s-29.5 8 -45.5 8c-19.333 0 -38 -3.16699 -56 -9.5s-34 -15.166 -48 -26.499s-25.167 -25.333 -33.5 -42s-12.5 -35.334 -12.5 -56.001c0 -27.333 9 -50.5 27 -69.5
s41 -28.5 69 -28.5c9.33301 0 18.666 0.833008 27.999 2.5s18 5.16699 26 10.5l8 -13c-9.33301 -6.66699 -19.5 -11.334 -30.5 -14.001s-22.167 -4 -33.5 -4c-16 0 -31.5 2.66699 -46.5 8s-28.333 12.833 -40 22.5s-21.167 21.334 -28.5 35.001s-11 29.167 -11 46.5
c0 25.333 6.16699 47.833 18.5 67.5s28.333 36.167 48 49.5s41.334 23.333 65.001 30s46.5 10 68.5 10c33.333 0 63.833 -6.5 91.5 -19.5s51.334 -30.5 71.001 -52.5s35 -47.5 46 -76.5s16.5 -59.5 16.5 -91.5c0 -18.667 -1 -37 -3 -55l39 54l68 89.5
c22.667 29 45.834 54.667 69.501 77s47.667 40.166 72 53.499s49.5 20 75.5 20c24.667 0 45.667 -5.16699 63 -15.5s26 -27.833 26 -52.5c0 -9.33301 -2.66699 -17.833 -8 -25.5s-11.666 -14.167 -18.999 -19.5l-9 13c5.33301 3.33301 9.83301 7.66602 13.5 12.999
s5.5 11.666 5.5 18.999c0 15.333 -6.16699 26.833 -18.5 34.5s-26.833 11.5 -43.5 11.5c-18 0 -36.167 -5 -54.5 -15s-36 -22.333 -53 -37s-32.833 -30 -47.5 -46l-38 -43l-121 -145zM609.998 717c10.667 9.33301 22.001 14 34.001 14c8 0 15 -2.33301 21 -7s9 -12 9 -22
c0 -6 -1.83301 -12.167 -5.5 -18.5s-9.83398 -11.5 -18.501 -15.5l-156 -80h-28z" />
    </font>
</defs>
</svg>
